<?xml version="1.0" encoding="UTF-8" standalone="no"?>
<!-- Created with Inkscape (http://www.inkscape.org/) -->

<svg
   xmlns:dc="http://purl.org/dc/elements/1.1/"
   xmlns:cc="http://creativecommons.org/ns#"
   xmlns:rdf="http://www.w3.org/1999/02/22-rdf-syntax-ns#"
   xmlns:svg="http://www.w3.org/2000/svg"
   xmlns="http://www.w3.org/2000/svg"
   xmlns:sodipodi="http://sodipodi.sourceforge.net/DTD/sodipodi-0.dtd"
   xmlns:inkscape="http://www.inkscape.org/namespaces/inkscape"
   width="210mm"
   height="297mm"
   viewBox="0 0 210 297"
   version="1.1"
   id="svg4150"
   inkscape:version="0.92.5 (2060ec1f9f, 2020-04-08)"
   sodipodi:docname="base.svg">
  <defs
     id="defs4144">
    <clipPath
       clipPathUnits="userSpaceOnUse"
       id="clipPath86">
      <path
         d="M 0,765.354 H 907.087 V 0 H 0 Z"
         id="path84"
         inkscape:connector-curvature="0" />
    </clipPath>
  </defs>
  <sodipodi:namedview
     id="base"
     pagecolor="#ffffff"
     bordercolor="#666666"
     borderopacity="1.0"
     inkscape:pageopacity="0.0"
     inkscape:pageshadow="2"
     inkscape:zoom="0.49497475"
     inkscape:cx="45.148344"
     inkscape:cy="933.49271"
     inkscape:document-units="mm"
     inkscape:current-layer="layer1"
     showgrid="false"
     inkscape:window-width="1294"
     inkscape:window-height="704"
     inkscape:window-x="72"
     inkscape:window-y="27"
     inkscape:window-maximized="1" />
  <metadata
     id="metadata4147">
    <rdf:RDF>
      <cc:Work
         rdf:about="">
        <dc:format>image/svg+xml</dc:format>
        <dc:type
           rdf:resource="http://purl.org/dc/dcmitype/StillImage" />
        <dc:title></dc:title>
      </cc:Work>
    </rdf:RDF>
  </metadata>
  <g
     inkscape:label="Layer 1"
     inkscape:groupmode="layer"
     id="layer1">
    <g
       id="g88"
       transform="matrix(0.35277777,0,0,-0.35277777,145.34453,9.0328441)"
       style="stroke:#ff0000">
      <path
         d="M 0,0 C 0,9.949 -73.8,18 -165.002,18"
         style="fill:none;stroke:#ff0000;stroke-width:1;stroke-linecap:butt;stroke-linejoin:miter;stroke-miterlimit:10;stroke-dasharray:none;stroke-opacity:1"
         id="path90"
         inkscape:connector-curvature="0" />
    </g>
    <g
       id="g92"
       transform="matrix(0.35277777,0,0,-0.35277777,145.34453,9.0328441)"
       style="stroke:#ff0000">
      <path
         d="M 0,0 V -215.017"
         style="fill:none;stroke:#ff0000;stroke-width:1;stroke-linecap:butt;stroke-linejoin:miter;stroke-miterlimit:10;stroke-dasharray:none;stroke-opacity:1"
         id="path94"
         inkscape:connector-curvature="0" />
    </g>
    <g
       id="g96"
       transform="matrix(0.35277777,0,0,-0.35277777,145.34453,84.885921)"
       style="stroke:#ff0000">
      <path
         d="M 0,0 C 0,-2.35 -1.901,-4.252 -4.252,-4.252"
         style="fill:none;stroke:#ff0000;stroke-width:1;stroke-linecap:butt;stroke-linejoin:miter;stroke-miterlimit:10;stroke-dasharray:none;stroke-opacity:1"
         id="path98"
         inkscape:connector-curvature="0" />
    </g>
    <g
       id="g100"
       transform="matrix(0.35277777,0,0,-0.35277777,98.203896,89.885769)"
       style="stroke:#ff0000">
      <path
         d="M 0,0 C 0,5.483 4.437,9.921 9.921,9.921"
         style="fill:none;stroke:#ff0000;stroke-width:1;stroke-linecap:butt;stroke-linejoin:miter;stroke-miterlimit:10;stroke-dasharray:none;stroke-opacity:1"
         id="path102"
         inkscape:connector-curvature="0" />
    </g>
    <g
       id="g104"
       transform="matrix(0.35277777,0,0,-0.35277777,101.70395,86.385897)"
       style="stroke:#ff0000">
      <path
         d="M 0,0 H 119.454"
         style="fill:none;stroke:#ff0000;stroke-width:1;stroke-linecap:butt;stroke-linejoin:miter;stroke-miterlimit:10;stroke-dasharray:none;stroke-opacity:1"
         id="path106"
         inkscape:connector-curvature="0" />
    </g>
    <g
       id="g108"
       transform="matrix(0.35277777,0,0,-0.35277777,98.203896,99.607831)"
       style="stroke:#ff0000">
      <path
         d="M 0,0 C 0,-2.35 -1.902,-4.252 -4.252,-4.252"
         style="fill:none;stroke:#ff0000;stroke-width:1;stroke-linecap:butt;stroke-linejoin:miter;stroke-miterlimit:10;stroke-dasharray:none;stroke-opacity:1"
         id="path110"
         inkscape:connector-curvature="0" />
    </g>
    <g
       id="g112"
       transform="matrix(0.35277777,0,0,-0.35277777,98.203896,89.885769)"
       style="stroke:#ff0000">
      <path
         d="M 0,0 V -27.622"
         style="fill:none;stroke:#ff0000;stroke-width:1;stroke-linecap:butt;stroke-linejoin:miter;stroke-miterlimit:10;stroke-dasharray:none;stroke-opacity:1"
         id="path114"
         inkscape:connector-curvature="0" />
    </g>
    <g
       id="g116"
       transform="matrix(0.35277777,0,0,-0.35277777,37.747841,101.10784)"
       style="stroke:#ff0000">
      <path
         d="M 0,0 H 167.12"
         style="fill:none;stroke:#ff0000;stroke-width:1;stroke-linecap:butt;stroke-linejoin:miter;stroke-miterlimit:10;stroke-dasharray:none;stroke-opacity:1"
         id="path118"
         inkscape:connector-curvature="0" />
    </g>
    <g
       id="g120"
       transform="matrix(0.35277777,0,0,-0.35277777,24.341404,108.86789)"
       style="stroke:#ff0000">
      <path
         d="M 0,0 4.75,2.75 9.5,5.5 14.25,8.25 19,11 23.75,13.75 28.5,16.5 33.25,19.25 38,22"
         style="fill:none;stroke:#ff0000;stroke-width:1;stroke-linecap:butt;stroke-linejoin:miter;stroke-miterlimit:10;stroke-dasharray:none;stroke-opacity:1"
         id="path122"
         inkscape:connector-curvature="0" />
    </g>
    <g
       id="g124"
       transform="matrix(0.35277777,0,0,-0.35277777,2.8223125,54.188399)"
       style="stroke:#ff0000">
      <path
         d="M 0,0 0.883,-18.425"
         style="fill:none;stroke:#ff0000;stroke-width:1;stroke-linecap:butt;stroke-linejoin:miter;stroke-miterlimit:10;stroke-dasharray:none;stroke-opacity:1"
         id="path126"
         inkscape:connector-curvature="0" />
    </g>
    <g
       id="g128"
       transform="matrix(0.35277777,0,0,-0.35277777,2.8221361,54.188399)"
       style="stroke:#ff0000">
      <path
         d="M 0,0 V 143.023"
         style="fill:none;stroke:#ff0000;stroke-width:1;stroke-linecap:butt;stroke-linejoin:miter;stroke-miterlimit:10;stroke-dasharray:none;stroke-opacity:1"
         id="path130"
         inkscape:connector-curvature="0" />
    </g>
    <g
       id="g132"
       transform="matrix(0.35277777,0,0,-0.35277777,87.135494,2.6828442)"
       style="stroke:#ff0000">
      <path
         d="M 0,0 H -236.02"
         style="fill:none;stroke:#ff0000;stroke-width:1;stroke-linecap:butt;stroke-linejoin:miter;stroke-miterlimit:10;stroke-dasharray:none;stroke-opacity:1"
         id="path134"
         inkscape:connector-curvature="0" />
    </g>
    <g
       id="g136"
       transform="matrix(0.35277777,0,0,-0.35277777,2.8228416,3.7328872)"
       style="stroke:#ff0000">
      <path
         d="M 0,0 C 0,1.646 1.331,2.977 2.977,2.977"
         style="fill:none;stroke:#ff0000;stroke-width:1;stroke-linecap:butt;stroke-linejoin:miter;stroke-miterlimit:10;stroke-dasharray:none;stroke-opacity:1"
         id="path138"
         inkscape:connector-curvature="0" />
    </g>
    <g
       id="g140"
       transform="matrix(0.35277777,0,0,-0.35277777,50.667798,25.23889)"
       style="stroke:#000080">
      <path
         d="m 0,0 c 0,1.837 -1.49,3.327 -3.328,3.327 -1.836,0 -3.326,-1.49 -3.326,-3.327 0,-1.838 1.49,-3.328 3.326,-3.328 C -1.49,-3.328 0,-1.838 0,0 Z"
         style="fill:none;stroke:#000080;stroke-width:1;stroke-linecap:round;stroke-linejoin:miter;stroke-miterlimit:4;stroke-dasharray:none;stroke-opacity:1"
         id="path142"
         inkscape:connector-curvature="0" />
    </g>
    <g
       id="g144"
       transform="matrix(0.35277777,0,0,-0.35277777,50.667798,63.238665)"
       style="stroke:#000080">
      <path
         d="m 0,0 c 0,1.837 -1.49,3.327 -3.328,3.327 -1.836,0 -3.326,-1.49 -3.326,-3.327 0,-1.838 1.49,-3.329 3.326,-3.329 C -1.49,-3.329 0,-1.838 0,0 Z"
         style="fill:none;stroke:#000080;stroke-width:1;stroke-linecap:round;stroke-linejoin:miter;stroke-miterlimit:4;stroke-dasharray:none;stroke-opacity:1"
         id="path146"
         inkscape:connector-curvature="0" />
    </g>
    <g
       id="g148"
       transform="matrix(0.35277777,0,0,-0.35277777,126.86762,65.638859)"
       style="stroke:#000080">
      <path
         d="m 0,0 c 0,1.838 -1.49,3.328 -3.328,3.328 -1.836,0 -3.326,-1.49 -3.326,-3.328 0,-1.838 1.49,-3.328 3.326,-3.328 C -1.49,-3.328 0,-1.838 0,0 Z"
         style="fill:none;stroke:#000080;stroke-width:1;stroke-linecap:round;stroke-linejoin:miter;stroke-miterlimit:4;stroke-dasharray:none;stroke-opacity:1"
         id="path150"
         inkscape:connector-curvature="0" />
    </g>
    <g
       id="g152"
       transform="matrix(0.35277777,0,0,-0.35277777,126.86762,27.438954)"
       style="stroke:#000080">
      <path
         d="m 0,0 c 0,1.838 -1.49,3.328 -3.328,3.328 -1.836,0 -3.326,-1.49 -3.326,-3.328 0,-1.838 1.49,-3.328 3.326,-3.328 C -1.49,-3.328 0,-1.838 0,0 Z"
         style="fill:none;stroke:#000080;stroke-width:1;stroke-linecap:round;stroke-linejoin:miter;stroke-miterlimit:4;stroke-dasharray:none;stroke-opacity:1"
         id="path154"
         inkscape:connector-curvature="0" />
    </g>
    <g
       id="g156"
       transform="matrix(0.35277777,0,0,-0.35277777,26.067933,80.438981)"
       style="stroke:#000080">
      <path
         d="m 0,0 c 0,1.838 -1.49,3.328 -3.328,3.328 -1.836,0 -3.326,-1.49 -3.326,-3.328 0,-1.838 1.49,-3.328 3.326,-3.328 C -1.49,-3.328 0,-1.838 0,0 Z"
         style="fill:none;stroke:#000080;stroke-width:1;stroke-linecap:round;stroke-linejoin:miter;stroke-miterlimit:4;stroke-dasharray:none;stroke-opacity:1"
         id="path158"
         inkscape:connector-curvature="0" />
    </g>
    <g
       id="g160"
       transform="matrix(0.35277777,0,0,-0.35277777,9.8775151,85.828508)"
       style="stroke:#ff0000">
      <path
         d="m 0,0 4.767,-8.111 4.767,-8.112 4.767,-8.111 4.767,-8.111 4.766,-8.112 4.768,-8.111 4.767,-8.111 4.767,-8.112"
         style="fill:none;stroke:#ff0000;stroke-width:1;stroke-linecap:butt;stroke-linejoin:miter;stroke-miterlimit:10;stroke-dasharray:none;stroke-opacity:1"
         id="path162"
         inkscape:connector-curvature="0" />
    </g>
    <g
       id="g164"
       transform="matrix(0.35277777,0,0,-0.35277777,23.330978,108.72047)"
       style="stroke:#ff0000">
      <path
         d="M 0,0 0.271,-0.336 0.697,-0.604 1.012,-0.749 1.317,-0.844 1.64,-0.848 1.991,-0.817 2.352,-0.7 2.864,-0.418"
         style="fill:none;stroke:#ff0000;stroke-width:1;stroke-linecap:butt;stroke-linejoin:miter;stroke-miterlimit:10;stroke-dasharray:none;stroke-opacity:1"
         id="path166"
         inkscape:connector-curvature="0" />
    </g>
    <g
       id="g168"
       transform="matrix(0.35277777,0,0,-0.35277777,3.1337447,60.688258)"
       style="stroke:#ff0000">
      <path
         d="m 0,0 2.117,-16.579 2.873,-14.643 3.298,-12.589 3.392,-10.417 3.156,-8.126 2.589,-5.717 1.692,-3.193"
         style="fill:none;stroke:#ff0000;stroke-width:1;stroke-linecap:butt;stroke-linejoin:miter;stroke-miterlimit:10;stroke-dasharray:none;stroke-opacity:1"
         id="path170"
         inkscape:connector-curvature="0" />
    </g>
    <path
       style="fill:#008000;fill-opacity:1;stroke:#008000;stroke-width:0.27399999;stroke-miterlimit:4;stroke-dasharray:none;stroke-opacity:1"
       d="m 37.017671,9.1506626 c 0,0 -29.3996471,-0.1836975 -29.3996471,4.5436504 0,5.01083 29.3996471,4.54365 29.3996471,4.54365 h 90.152869 c 0.53298,3.82724 3.80358,6.677281 7.66775,6.681763 4.28076,7.1e-5 7.75102,-3.470188 7.75095,-7.750948 -0.005,-4.173347 -3.31291,-7.593733 -7.48378,-7.7375123 C 118.80494,9.0215121 53.321677,9.1506626 37.017671,9.1506626 Z"
       id="path8191"
       inkscape:connector-curvature="0"
       sodipodi:nodetypes="cscccccc" />
    <path
       style="fill:#008000;fill-opacity:1;stroke:#008000;stroke-width:0.27399999;stroke-miterlimit:4;stroke-dasharray:none;stroke-opacity:1"
       d="m 113.18959,57.816051 c 0,0 29.39965,0.183697 29.39965,-4.543651 0,-5.01083 -29.39965,-4.54365 -29.39965,-4.54365 H 23.036721 c -0.53298,-3.82724 -3.80358,-6.677281 -7.66775,-6.681763 -4.28076,-7.1e-5 -7.7510198,3.470188 -7.7509498,7.750948 0.005,4.173347 3.3129098,7.593733 7.4837798,7.737512 16.30052,0.409754 81.78378,0.280604 98.087789,0.280604 z"
       id="path8191-6"
       inkscape:connector-curvature="0"
       sodipodi:nodetypes="cscccccc" />
  </g>
  <g
     inkscape:groupmode="layer"
     id="layer3"
     inkscape:label="Layer 2"
     sodipodi:insensitive="true"
     style="display:none">
    <g
       id="g8183"
       transform="translate(-2.257824,1.9116036)"
       style="fill:#008000">
      <path
         style="fill:#008000;fill-opacity:1;stroke-width:0.26458335"
         d="m 80.754615,77.974991 c -4.949928,-0.608076 -9.402047,-1.830028 -11.923257,-3.27252 -1.757042,-1.005276 -3.949746,-3.339595 -4.640705,-4.940422 -1.052492,-2.438434 -0.941212,-5.024921 0.330579,-7.683701 0.295834,-0.618463 0.662772,-1.124479 0.815418,-1.124479 0.152645,0 0.794208,0.47625 1.425694,1.058333 0.631486,0.582084 1.388941,1.058334 1.683234,1.058334 0.563487,0 1.593412,-0.863579 1.593412,-1.336056 0,-0.435047 -0.715595,-1.709288 -1.173179,-2.08905 -0.450543,-0.373917 -0.550556,-0.808228 -0.186119,-0.808228 0.125511,0 0.677664,0.357188 1.227006,0.79375 1.150987,0.914689 1.724217,0.990598 2.340243,0.309896 0.662003,-0.731504 0.53513,-1.328743 -0.533558,-2.511652 -0.534292,-0.5914 -0.84981,-1.115814 -0.70115,-1.165365 0.489839,-0.16328 3.133371,1.807006 3.047558,2.271413 -0.287156,1.554046 -1.060422,3.233613 -1.924726,4.180581 -2.101666,2.302679 -1.885903,4.136326 0.741206,6.299107 2.043107,1.681999 2.398036,1.723181 4.375261,0.507664 1.41034,-0.867021 1.863119,-1.01206 3.106208,-0.99501 0.800365,0.01098 1.812396,0.178667 2.248958,0.372649 l 0.79375,0.352698 -1.322916,0.169524 c -2.333838,0.299066 -3.434079,1.242388 -2.942671,2.522976 0.210583,0.54877 1.779343,1.179269 2.934172,1.179269 0.513998,0 0.93454,0.119063 0.93454,0.264584 0,0.145521 -0.482162,0.264583 -1.071472,0.264583 -1.205333,0 -2.496332,0.568905 -2.858169,1.259509 -0.607934,1.160304 0.965609,2.444658 2.995101,2.444658 0.654314,0 0.93454,0.119004 0.93454,0.396875 0,0.398243 -0.444535,0.441745 -2.248958,0.22008 z m 3.571875,-0.186417 c 0,-0.241962 0.436613,-0.405165 1.307878,-0.488884 1.719612,-0.165232 2.660872,-0.787403 2.660872,-1.758831 0,-1.039582 -0.786037,-1.643459 -2.431936,-1.868345 l -1.404522,-0.191905 1.058333,-0.193198 c 2.069007,-0.377693 2.268284,-0.446617 2.784856,-0.96319 0.722257,-0.722257 0.668864,-1.737209 -0.118528,-2.25313 -0.352531,-0.230987 -1.311518,-0.489183 -2.131081,-0.573768 -1.744782,-0.180078 -1.608069,-0.55512 0.278765,-0.76473 1.130522,-0.125593 1.547389,-0.0199 3.154738,0.799965 1.018646,0.519575 2.197941,0.945046 2.620656,0.945496 1.585076,0.0016 3.597052,-3.18517 3.597052,-5.697524 0,-0.712563 -0.225639,-1.067943 -1.214998,-1.91362 -1.071396,-0.915803 -1.257676,-1.238766 -1.57611,-2.732567 -0.198609,-0.931709 -0.443304,-2.914406 -0.543761,-4.405995 -0.192836,-2.863217 -0.127124,-3.025793 0.982906,-2.431722 0.520608,0.27862 0.520504,0.285369 -0.01738,1.155708 -0.67033,1.084615 -0.691377,2.050151 -0.0572,2.624069 0.702807,0.636034 0.985824,0.557387 2.276967,-0.632748 1.380471,-1.272474 1.789014,-0.983793 0.775388,0.547901 -0.588862,0.889834 -0.672468,1.210448 -0.46813,1.795206 0.187809,0.537454 0.452218,0.731761 1.079047,0.792956 0.686946,0.06706 0.954178,-0.08138 1.547979,-0.859895 0.394735,-0.517525 0.882164,-0.940954 1.083173,-0.940954 0.500666,0 0.453326,0.227425 -0.30289,1.455208 -0.828738,1.345536 -0.830503,2.121475 -0.0061,2.661677 0.808766,0.529921 1.510356,0.324845 2.365506,-0.691444 0.3608,-0.428783 0.71029,-0.779608 0.77664,-0.779608 0.34023,0 1.03909,2.478625 1.16441,4.129792 0.25205,3.321015 -1.01574,6.760654 -3.25144,8.821451 -2.286616,2.107729 -6.964227,3.911312 -11.625495,4.482534 -3.245795,0.397764 -4.365625,0.379831 -4.365625,-0.06991 z m -3.505729,-1.784446 c -1.846303,-0.704638 -0.109286,-1.361876 3.294605,-1.246581 2.673368,0.09055 3.55595,0.41929 2.897187,1.079135 -0.421846,0.422537 -5.18583,0.55137 -6.191792,0.167446 z m 0.08576,-4.169867 c -0.920004,-0.257096 -0.976631,-0.777248 -0.12007,-1.102913 1.137343,-0.432417 5.938181,-0.218919 6.727689,0.299185 0.325147,0.213373 0.305253,0.312391 -0.129368,0.643988 -0.381177,0.290822 -1.199753,0.385048 -3.175,0.365474 -1.463775,-0.0145 -2.950238,-0.107087 -3.303251,-0.205734 z M 90.808782,69.0055 c -1.286338,-0.667319 -1.309516,-0.804715 -0.339556,-2.013011 0.505013,-0.629105 1.297041,-1.705449 1.760064,-2.39187 0.78523,-1.164088 0.886333,-1.227781 1.502958,-0.946828 0.363603,0.165669 0.734597,0.594064 0.824431,0.951992 0.2222,0.885315 -0.613971,3.424672 -1.3799,4.190601 -0.72856,0.728559 -1.273876,0.776716 -2.367997,0.209116 z M 73.28004,67.887728 c -1.176648,-1.054809 -1.389144,-1.387705 -1.389063,-2.176087 1.04e-4,-1.010327 1.173599,-3.029262 1.605567,-2.76229 0.139796,0.0864 0.478174,0.595495 0.751951,1.131324 0.273778,0.535829 1.045807,1.67943 1.715621,2.541334 1.146588,1.475409 1.192246,1.595382 0.780351,2.050521 -0.774637,0.855964 -1.924777,0.595421 -3.464427,-0.784802 z m 8.929783,-0.220033 c -0.77965,-0.260586 -1.706569,-0.348755 -2.685354,-0.255434 l -1.49473,0.142512 -1.050626,-1.391544 C 76.401269,65.39788 75.558492,64.11609 75.106275,63.314804 l -0.822212,-1.456877 0.770644,-3.16401 c 0.423855,-1.740204 0.844108,-3.722092 0.933898,-4.404198 l 0.163253,-1.240192 1.077873,0.380296 c 2.171563,0.766172 4.468188,0.353454 5.746117,-1.032616 l 0.633733,-0.687361 0.981828,0.777621 c 1.820006,1.441474 3.619196,1.713434 5.383779,0.8138 1.186794,-0.605062 1.139285,-0.698788 1.330868,2.625519 0.07967,1.382448 0.335547,3.431622 0.56861,4.553717 l 0.423754,2.040176 -0.702714,1.199097 c -0.386496,0.659503 -1.224101,1.778997 -1.861344,2.487766 -1.119817,1.245504 -1.218711,1.294233 -2.95252,1.4548 -0.986642,0.09137 -2.151081,0.219496 -2.587644,0.284716 -0.436562,0.06522 -1.329531,-0.06049 -1.984375,-0.279363 z M 67.651525,61.408476 c -0.949727,-0.759412 -1.581285,-1.885762 -1.581285,-2.820135 0,-1.681327 2.151374,-3.953026 4.288679,-4.528543 1.221424,-0.328895 2.497428,0.17494 3.519604,1.389727 1.19872,1.424599 0.592233,1.764154 -0.934979,0.52347 -1.181633,-0.95994 -1.765762,-1.166222 -2.376636,-0.839293 -1.075223,0.575443 -0.899568,1.761406 0.479953,3.24048 0.510516,0.547356 0.576078,0.727604 0.264652,0.727604 -0.227689,0 -0.568715,-0.186444 -0.757835,-0.414322 -0.189121,-0.227875 -0.689022,-0.592812 -1.110891,-0.810969 -0.686773,-0.355145 -0.83414,-0.352682 -1.408333,0.02355 -0.864638,0.566531 -0.814509,1.440188 0.152452,2.656951 0.436563,0.549344 0.79375,1.041964 0.79375,1.094714 0,0.227171 -0.960713,0.05136 -1.329131,-0.243232 z m 32.156831,-0.448553 c -0.09737,-0.157554 0.129842,-0.810117 0.504924,-1.450142 0.73758,-1.258596 0.86742,-2.233372 0.36446,-2.736329 -0.56145,-0.561445 -1.254157,-0.343 -2.471949,0.779518 -0.654569,0.603362 -1.257718,1.029428 -1.340329,0.946815 -0.08261,-0.08261 0.157946,-0.676029 0.534578,-1.318702 0.791786,-1.351082 0.846902,-1.848133 0.269009,-2.426023 -0.657915,-0.657918 -1.429117,-0.490138 -2.345452,0.510267 -1.401995,1.53062 -2.028843,1.036688 -0.868852,-0.684622 0.792316,-1.175719 1.672114,-1.6134 2.939929,-1.462561 1.974882,0.234963 4.747096,2.946043 4.747096,4.642411 0,0.816461 -1.30527,3.204569 -1.84989,3.38455 -0.16856,0.0557 -0.386149,-0.02763 -0.483524,-0.185182 z m -35.42182,-5.496158 c -1.434324,-2.841969 -1.635987,-7.617439 -0.432457,-10.240806 0.773933,-1.686968 2.961426,-3.995955 4.546782,-4.799317 1.095013,-0.554884 1.398324,-0.599078 2.577192,-0.37551 0.806223,0.152897 1.833138,0.160536 2.589346,0.01926 1.205428,-0.225198 1.29385,-0.197856 2.31814,0.716835 1.21465,1.084683 1.676871,2.232626 1.706034,4.236995 0.02234,1.535803 -0.492304,3.031604 -1.361332,3.95664 -0.706128,0.751639 -0.811861,0.747633 -1.687568,-0.06394 -1.544485,-1.43138 -4.087227,-1.429642 -5.026216,0.0034 -0.431466,0.658501 -0.543609,2.182633 -0.256707,3.488889 0.1567,0.713449 0.08803,0.83621 -0.635356,1.135846 -0.446074,0.184771 -1.395568,0.975508 -2.109987,1.757195 -0.714418,0.781683 -1.365238,1.421247 -1.446265,1.421247 -0.08103,0 -0.432749,-0.565547 -0.781606,-1.256771 z m 10.040026,-1.08897 c -0.113975,-0.184414 -0.135774,-0.406751 -0.04844,-0.494085 0.236791,-0.236792 0.494974,0.111469 0.367079,0.495154 -0.08962,0.268862 -0.151941,0.268653 -0.318638,-0.0011 z M 100.99524,53.773863 C 100.48592,53.335425 99.637899,52.752828 99.110756,52.479207 98.20999,52.011648 98.14477,51.890755 98.02697,50.47022 c -0.106379,-1.282771 -0.252246,-1.62488 -0.963962,-2.260798 -1.068594,-0.954786 -2.263405,-0.983496 -3.58571,-0.08616 -1.194607,0.810684 -1.697419,0.620935 -2.646545,-0.998741 -0.785265,-1.340043 -1.075764,-2.917338 -0.834105,-4.528838 0.149953,-0.999959 0.328806,-1.273816 1.147311,-1.756744 0.830778,-0.490172 1.105119,-0.531532 1.915395,-0.288766 0.66122,0.198107 1.245452,0.200594 1.942005,0.0083 0.884579,-0.244245 1.135515,-0.193704 2.238306,0.450813 3.102315,1.813123 5.610255,5.389266 5.820805,8.300045 0.11821,1.634255 -0.31388,4.188056 -0.81999,4.846479 -0.28223,0.367149 -0.42646,0.322911 -1.24524,-0.381915 z M 71.694458,52.926421 c -1.214818,-0.298124 -1.443802,-0.653653 -1.443802,-2.241711 0,-1.261335 0.851482,-2.000774 2.010745,-1.746157 1.110127,0.243824 1.870855,0.781825 2.234726,1.580435 0.531465,1.166437 0.380453,1.915795 -0.475248,2.358295 -0.429336,0.222017 -0.87582,0.385889 -0.992187,0.364159 -0.116368,-0.02172 -0.716773,-0.163491 -1.334234,-0.315021 z m 5.550395,-0.698481 c -1.574361,-0.714595 -1.644063,-1.138777 -0.387502,-2.358229 1.497046,-1.452835 2.033452,-3.199132 1.80908,-5.889548 -0.173123,-2.075892 -0.17303,-2.076294 0.477269,-2.076294 0.357733,0 0.963418,-0.118999 1.345965,-0.264443 0.515411,-0.195958 1.039214,-0.152035 2.022582,0.169608 1.015637,0.332198 1.927469,0.400969 3.885745,0.293061 l 2.558706,-0.140991 0.0061,2.021903 c 0.0068,2.251988 0.524094,3.569759 1.968024,5.013688 1.019008,1.019008 1.009814,1.417299 -0.05593,2.423284 -1.861556,1.75718 -3.994568,1.66239 -6.066425,-0.269589 l -1.137304,-1.060516 -0.988229,1.070245 c -1.572939,1.70348 -3.293383,2.041302 -5.438117,1.067821 z m 16.143616,-0.159954 c -0.969452,-0.423963 -1.02258,-0.615381 -0.468307,-1.687227 0.510762,-0.987708 1.639298,-1.862307 2.403015,-1.862307 0.819184,0 1.703313,1.184032 1.703313,2.28109 0,0.769101 -0.127204,0.939958 -0.958352,1.287235 -1.145921,0.478795 -1.548316,0.475975 -2.679669,-0.01879 z M 82.93983,40.750971 c -2.406246,-0.900943 -3.197514,-2.102482 -3.18537,-4.836978 0.01255,-2.825326 1.313036,-4.397539 4.657893,-5.63111 l 1.898512,-0.700164 0.176482,-2.107654 c 0.335302,-4.004355 1.752487,-6.346322 4.246748,-7.017957 2.816612,-0.758435 4.772816,0.514884 6.261158,4.075467 0.578255,1.383366 0.680377,2.026974 0.678228,4.274419 -0.0013,1.455208 -0.131471,2.870219 -0.289062,3.144465 -0.252596,0.439578 -0.369097,0.318285 -0.983687,-1.02416 -0.383437,-0.837536 -0.697159,-1.976904 -0.697159,-2.531929 0,-2.805792 -2.183336,-4.781986 -4.368379,-3.953929 -1.878822,0.71201 -3.039954,2.617129 -3.039954,4.987788 0,1.492072 -0.03583,1.578207 -0.727604,1.749064 -1.030319,0.254471 -3.115588,1.636429 -3.93039,2.604765 -0.590398,0.701651 -0.672788,1.00607 -0.567852,2.098154 0.271029,2.820656 2.755561,3.710365 6.44458,2.307804 0.657879,-0.250127 0.821296,-0.21182 1.225397,0.287224 0.724456,0.894662 0.573048,1.195043 -0.922777,1.830702 -1.77065,0.752449 -5.423149,0.98829 -6.876764,0.444029 z m -5.940773,-0.569127 -0.742359,-0.663694 1.058334,-0.919871 c 0.582083,-0.505929 1.117864,-0.915263 1.190625,-0.90963 0.217198,0.01683 1.512046,2.879561 1.36773,3.023878 -0.07315,0.07315 -0.582775,0.133009 -1.13249,0.133009 -0.693327,0 -1.226877,-0.203298 -1.74184,-0.663692 z M 92.450402,38.89185 C 92.129595,38.544925 91.547766,37.780769 91.157452,37.193725 90.135954,35.657361 88.40836,34.729501 86.246124,34.55594 l -1.763469,-0.141555 1.010486,-0.873495 c 0.555765,-0.480423 1.681488,-1.097166 2.501604,-1.370542 l 1.49112,-0.497043 v -2.150619 c 0,-1.653701 0.101833,-2.252611 0.440722,-2.592032 0.411496,-0.41214 0.520388,-0.402847 1.642017,0.140125 1.426925,0.690762 2.55528,1.90989 3.513828,3.796504 1.819455,3.581054 1.868541,7.439965 0.10663,8.38291 -0.894884,0.478925 -2.111642,0.319718 -2.73866,-0.358343 z M 69.940431,38.620879 c -1.534808,-0.57088 -2.858153,-1.768938 -3.671754,-3.324127 -0.589603,-1.127022 -0.727604,-1.737966 -0.727604,-3.221177 0,-1.006703 0.1637,-2.222157 0.363777,-2.701009 0.517126,-1.237658 1.893971,-2.721847 3.276732,-3.532199 3.000438,-1.758374 7.459694,-0.0284 9.318474,3.615108 0.300037,0.588121 0.588209,1.069311 0.640381,1.069311 0.05217,0 0.780563,-0.41291 1.618645,-0.917576 0.838082,-0.504667 1.909019,-1.044715 2.379859,-1.200106 0.846425,-0.279346 0.857772,-0.305531 1.006809,-2.32357 0.0829,-1.122572 0.187254,-2.271706 0.231884,-2.55363 0.06608,-0.417432 -0.275759,-0.645622 -1.841414,-1.229196 -4.495057,-1.675463 -6.327032,-4.547569 -5.254327,-8.237547 0.915153,-3.148012 3.303214,-5.0157096 6.484243,-5.0713113 2.32317,-0.040607 3.919216,0.5939396 5.322156,2.1159493 1.79964,1.95238 2.410264,4.189488 1.794779,6.575431 -0.262985,1.019474 -0.54625,1.450439 -1.264914,1.924468 -2.540471,1.675689 -3.622355,3.465859 -4.039307,6.683754 -0.141417,1.091407 -0.293965,2.120815 -0.338997,2.287574 -0.04503,0.166759 -0.677082,0.500894 -1.404558,0.742523 -2.665452,0.885321 -4.334227,2.591212 -5.048404,5.160692 -0.489593,1.761463 -1.074928,2.563982 -2.612019,3.58118 -0.951867,0.629915 -1.469225,0.767601 -3.173553,0.844584 -1.332448,0.06019 -2.390439,-0.03975 -3.060888,-0.289126 z m 4.331892,-0.94638 c 2.756836,-0.767085 4.690927,-4.159567 3.959622,-6.945355 -0.615268,-2.343762 -2.142672,-3.840709 -4.531643,-4.441278 -1.021291,-0.256745 -1.487616,-0.236208 -2.710801,0.119381 -3.58507,1.042208 -5.349731,4.75642 -3.840569,8.083532 0.726086,1.600731 1.202089,2.087096 2.757766,2.817799 1.410435,0.662479 2.862425,0.784182 4.365625,0.365921 z m -3.924228,-1.350356 c -2.746536,-1.395638 -3.538419,-5.040876 -1.579696,-7.271738 1.092888,-1.24473 2.04593,-1.700619 3.555166,-1.700619 3.794078,0 6.118462,3.871685 4.291514,7.148295 -1.192553,2.138828 -4.025093,2.963265 -6.266984,1.824062 z m 4.273147,-1.930583 c 1.102704,-1.102701 1.363351,-2.221317 0.828852,-3.557164 -0.968086,-2.419486 -4.624845,-2.59754 -5.821503,-0.283459 -0.529672,1.024274 -0.476577,2.340679 0.131619,3.2633 0.680096,1.031692 1.499029,1.452324 2.849648,1.463672 0.921671,0.0078 1.271407,-0.14637 2.011384,-0.886349 z m -3.668237,-0.812041 c -0.432661,-0.43266 -0.649432,-0.94715 -0.649432,-1.541377 0,-2.25778 3.248717,-2.932609 4.11674,-0.855136 0.954356,2.284095 -1.726671,4.137152 -3.467308,2.396513 z M 86.438399,21.24601 c 1.552118,-0.704034 2.047952,-1.177177 2.811482,-2.682824 1.272817,-2.509949 0.693737,-5.293413 -1.490166,-7.162752 -3.760992,-3.2192692 -9.49198,-0.498239 -9.512831,4.516621 -0.01808,4.349141 4.241925,7.120472 8.191515,5.328955 z m -4.047653,-0.892139 c -1.30289,-0.464669 -1.89478,-1.016143 -2.555497,-2.381003 -1.561692,-3.226026 0.591655,-6.76137 4.117612,-6.760254 1.598914,5.02e-4 2.870785,0.620962 3.89082,1.898055 1.996776,2.499988 0.693142,6.490999 -2.400927,7.350307 -1.269138,0.352473 -1.817332,0.333235 -3.052008,-0.107105 z m 2.754333,-1.349306 c 1.544598,-0.798742 2.246532,-2.847283 1.48876,-4.344838 -0.427368,-0.844593 -1.939311,-1.860025 -2.769511,-1.860025 -1.272606,0 -2.490828,0.822728 -3.032963,2.048315 -0.458538,1.036601 -0.475897,1.277688 -0.162729,2.260094 0.62138,1.949268 2.684279,2.823219 4.476443,1.896454 z m -2.282983,-0.90037 c -0.832698,-0.337525 -1.230896,-0.968198 -1.26002,-1.995639 -0.05646,-1.991866 2.371262,-2.889654 3.684743,-1.362641 1.012399,1.176983 0.753216,2.575008 -0.612206,3.302236 -0.6615,0.352317 -1.051817,0.364386 -1.812517,0.05604 z m 2.609706,19.43447 c -1.034542,-0.436759 -1.639593,-1.403308 -1.106484,-1.767568 0.548473,-0.374758 3.259719,-0.06587 4.176778,0.475845 1.238922,0.731851 0.956517,1.024827 -1.437481,1.491295 -0.436562,0.08506 -1.171329,-0.0047 -1.632813,-0.199572 z m -6.301889,-9.11973 c -0.251548,-0.792559 -2.326093,-2.811422 -3.509172,-3.414983 -2.818003,-1.437638 -5.27449,-1.306615 -7.776993,0.414804 l -1.367731,0.940834 0.184287,-3.900259 c 0.278296,-5.889866 0.826816,-6.65835 6.289832,-8.812145 1.918619,-0.756416 3.523415,-1.340284 3.566215,-1.297484 0.0428,0.0428 -0.105169,0.667574 -0.328817,1.388388 -0.511722,1.649267 -0.349586,3.891261 0.385627,5.332397 0.783287,1.53537 2.712082,3.117296 4.842245,3.971427 1.766596,0.708353 1.834655,0.768552 1.694347,1.498674 -0.0804,0.418372 -0.14618,1.210822 -0.14618,1.760999 0,0.973976 -0.04608,1.021883 -1.749497,1.81901 -0.962224,0.450279 -1.787638,0.818689 -1.834254,0.818689 -0.04662,0 -0.159075,-0.234158 -0.249909,-0.520351 z m 13.687749,-1.813507 c -1.085747,-0.742121 -1.303044,-0.999619 -0.990946,-1.174278 0.590214,-0.3303 1.745731,0.327954 2.32651,1.325323 0.623022,1.069918 0.416586,1.046571 -1.335564,-0.151045 z m 1.12612,-7.202587 c -0.291042,-0.11877 -0.926584,-0.224314 -1.41232,-0.234542 l -0.883152,-0.0186 0.182779,-1.124479 c 0.100529,-0.618463 0.293796,-1.241797 0.429485,-1.385186 0.408739,-0.431938 1.63648,0.437402 2.178082,1.542258 0.536826,1.095116 0.34672,1.56399 -0.494874,1.220546 z"
         id="path8187"
         inkscape:connector-curvature="0" />
      <path
         style="fill:#008000;fill-opacity:1;stroke-width:0.26458335"
         d="m 78.108782,77.459707 c -5.749507,-1.032219 -9.379197,-2.526927 -11.649576,-4.797306 -2.101494,-2.101493 -2.637925,-3.379483 -2.637925,-6.284574 0,-2.045208 0.102758,-2.600626 0.72816,-3.93579 l 0.728159,-1.554539 1.184158,1.091518 c 0.915536,0.843912 1.393458,1.09152 2.106803,1.09152 1.548915,0 2.013268,-1.768253 0.806343,-3.070548 -0.889809,-0.96012 -0.621982,-1.136867 0.408628,-0.269666 0.872618,0.734258 2.054081,0.906592 2.583791,0.37688 0.514091,-0.51409 0.379851,-1.925309 -0.236173,-2.482802 -1.189442,-1.076431 -1.079942,-1.492483 0.146365,-0.556128 0.678487,0.518065 1.342709,0.979181 1.476048,1.024702 0.341751,0.116676 -0.422314,2.852606 -0.993787,3.558506 -1.913965,2.364192 -2.010442,2.537005 -2.133949,3.822367 l -0.127092,1.32267 1.841176,1.841175 c 1.670496,1.670497 1.940207,1.841177 2.909447,1.841177 0.638458,0 1.322145,-0.197855 1.699263,-0.491755 1.596377,-1.244113 3.255909,-1.642078 4.95284,-1.187717 0.789475,0.211386 0.247501,0.611217 -0.836469,0.617088 -0.810577,0.0044 -2.294752,1.262068 -2.294752,1.944553 0,0.583475 1.528966,1.763664 2.284873,1.763664 0.928769,0 0.547321,0.435314 -0.564161,0.64383 -1.707045,0.320243 -2.262771,2.333016 -0.857692,3.106457 0.325703,0.179284 1.247032,0.4704 2.047397,0.646919 l 1.455208,0.320945 -1.455208,-0.0016 c -0.800365,-7.93e-4 -2.407709,-0.172571 -3.571875,-0.381576 z m 7.301717,0.181224 c 2.205804,-0.412488 3.149324,-1.132113 3.149324,-2.401999 0,-0.642016 -1.212135,-1.578176 -2.086202,-1.611222 -0.560176,-0.02117 -0.477253,-0.09371 0.435515,-0.380934 1.669391,-0.525314 2.093388,-1.080479 1.957191,-2.562675 -0.06072,-0.660847 -1.407414,-1.26098 -2.873052,-1.280337 -1.126384,-0.01487 -1.195152,-0.04726 -0.608452,-0.286547 1.065009,-0.434361 3.049239,-0.120385 4.176626,0.660895 1.45052,1.00521 3.389095,0.99322 4.340502,-0.02685 0.831805,-0.891834 1.19506,-1.580026 1.683423,-3.189288 0.658807,-2.170922 0.44274,-2.706129 -1.802646,-4.465224 -0.373481,-0.292595 -1.429555,-5.02443 -1.177605,-5.276377 0.06194,-0.06195 0.263234,0.06884 0.44731,0.29064 0.600882,0.724016 1.727181,0.489138 2.640044,-0.550556 0.460608,-0.524605 0.89675,-0.894551 0.9692,-0.822097 0.07245,0.07245 -0.198077,0.722442 -0.601178,1.444426 -0.712086,1.275411 -0.719878,1.332585 -0.274233,2.012723 0.6951,1.060857 1.639901,0.928335 2.868367,-0.402334 1.192522,-1.291735 1.252421,-1.195353 0.356232,0.573191 -0.798293,1.575353 -0.805656,1.707885 -0.132291,2.38125 0.762719,0.76272 1.757176,0.664782 2.686536,-0.264583 0.43657,-0.436563 0.8408,-0.79375 0.8983,-0.79375 0.16709,0 0.8561,2.663518 1.0367,4.007575 0.20819,1.549474 -0.42137,4.359158 -1.36539,6.093637 -2.1149,3.885777 -8.191374,6.701891 -15.030105,6.965638 -2.112843,0.08148 -2.5771,0.04991 -1.694116,-0.115205 z m -4.785964,-1.858762 c -0.88864,-0.572328 0.183055,-0.823325 3.195093,-0.748313 2.474984,0.06164 3.020404,0.146889 3.020404,0.472096 0,0.324679 -0.529442,0.40902 -2.910417,0.463638 -1.600729,0.03672 -3.088015,-0.04762 -3.30508,-0.187421 z m 1.403085,-3.941005 c -1.538324,-0.205396 -1.974897,-0.472604 -1.397634,-0.855438 0.446764,-0.296288 6.460924,-0.213749 6.766414,0.09287 0.670327,0.672791 -2.581682,1.1347 -5.36878,0.762572 z m -8.645415,-4.095258 c -1.709744,-1.616771 -1.837411,-2.190853 -0.820135,-3.687911 0.369048,-0.543102 0.716525,-0.987459 0.772171,-0.987459 0.05564,0 0.370587,0.446484 0.69987,0.992187 0.329283,0.545703 1.128569,1.698731 1.776192,2.562283 l 1.177496,1.570096 -0.593299,0.480425 c -0.916846,0.742418 -1.402649,0.592495 -3.012295,-0.929621 z m 17.211767,0.985549 c -0.409186,-0.221819 -0.706842,-0.485058 -0.661459,-0.584973 0.301141,-0.662961 3.2155,-4.54678 3.411834,-4.54678 0.133409,0 0.482497,0.239938 0.775756,0.533197 0.584848,0.584848 0.544534,1.181999 -0.205153,3.038678 -0.815961,2.020827 -1.702519,2.437247 -3.320978,1.559878 z m -8.506963,-1.221481 c -1.510839,-0.430215 -2.01105,-0.471654 -2.778125,-0.230148 -0.89954,0.283213 -0.968605,0.256271 -1.795802,-0.700603 -1.18684,-1.372897 -2.976175,-4.414509 -2.976175,-5.059074 0,-0.292508 0.128768,-0.867005 0.286152,-1.27666 0.413877,-1.077283 1.301348,-5.335849 1.301348,-6.244574 0,-0.631137 0.08574,-0.740629 0.46302,-0.591264 0.254662,0.100822 1.07787,0.314589 1.829352,0.475035 1.656313,0.353632 3.194898,-0.06044 4.507782,-1.213172 l 0.854259,-0.750049 0.733831,0.680445 c 1.517697,1.407287 3.822718,1.733857 5.650727,0.800576 l 0.677514,-0.345901 0.350139,3.486621 c 0.192574,1.917642 0.496107,4.055158 0.674515,4.750039 l 0.324377,1.263417 -1.310296,1.911583 c -2.076633,3.029587 -2.101655,3.048129 -4.265415,3.160612 -1.039965,0.05406 -2.069441,0.167936 -2.287722,0.25305 -0.218281,0.08512 -1.226048,-0.08135 -2.239481,-0.369933 z m -14.81355,-6.693442 c -1.693025,-1.693024 -1.587425,-2.969244 0.406381,-4.911273 1.406051,-1.369536 2.915409,-2.013934 4.05012,-1.729142 0.722515,0.18134 2.542363,1.643497 2.542363,2.04266 0,0.420902 -0.434172,0.254844 -1.455208,-0.556575 -2.452305,-1.948846 -4.251844,0.166852 -2.182813,2.566308 l 0.859896,0.997222 -1.096408,-0.855723 c -1.233408,-0.962649 -2.183729,-1.087464 -2.831335,-0.371869 -0.647051,0.714983 -0.535702,1.502989 0.355868,2.518431 0.436563,0.497216 0.79375,0.977609 0.79375,1.067541 0,0.401386 -0.584811,0.09022 -1.442614,-0.76758 z m 32.663448,-0.127109 c 0,-0.145444 0.323793,-0.844391 0.719543,-1.553218 0.62616,-1.121505 0.67841,-1.379069 0.40255,-1.984512 -0.49386,-1.083916 -1.880175,-0.975273 -2.938685,0.230301 -1.03877,1.183095 -1.297705,1.186095 -0.568727,0.0066 0.658841,-1.066027 0.780327,-2.465991 0.243488,-2.805861 -0.835515,-0.528963 -1.84195,-0.25644 -2.765187,0.748755 -0.851892,0.927518 -0.911371,0.951661 -0.912551,0.370417 -7.94e-4,-0.355545 0.383913,-1.006949 0.898319,-1.521355 1.181137,-1.181137 2.457159,-1.222004 4.173302,-0.133659 2.669831,1.693156 3.346101,3.65915 1.989111,5.782514 -0.6773,1.059801 -1.241163,1.450517 -1.241163,0.860033 z M 64.706679,55.728348 c -1.455475,-2.525546 -1.888528,-7.162556 -0.908077,-9.723437 0.846042,-2.209811 2.954399,-4.581187 4.917471,-5.530927 0.412645,-0.199641 1.724281,-0.302548 3.486923,-0.273579 2.692428,0.04425 2.869107,0.08241 3.752335,0.81044 1.168631,0.963284 1.491992,1.81628 1.491992,3.935732 0,1.969688 -0.299672,2.899151 -1.258908,3.904639 l -0.696076,0.729639 -0.830887,-0.805328 c -0.479274,-0.464529 -1.235004,-0.870905 -1.785847,-0.960295 -2.709916,-0.439758 -4.074003,0.862007 -3.82148,3.646882 l 0.143083,1.577938 -0.995645,0.628523 c -0.547604,0.345689 -1.411421,1.114266 -1.919594,1.707949 -0.508172,0.593685 -0.976154,1.079428 -1.03996,1.079428 -0.06381,0 -0.304704,-0.327421 -0.53533,-0.727604 z m 27.719977,-0.74386 c -0.235537,-0.613799 -0.199557,-1.649505 0.06294,-1.811737 0.124082,-0.07669 0.411623,0.0056 0.638979,0.182822 0.372801,0.290623 0.366623,0.407188 -0.06294,1.187535 -0.370194,0.672496 -0.512556,0.770834 -0.638979,0.44138 z m 8.700874,-1.331349 c -0.43656,-0.360868 -1.240232,-0.911818 -1.785936,-1.224333 -0.826521,-0.473337 -0.992187,-0.711824 -0.992187,-1.428308 0,-2.737591 -2.167284,-4.464169 -4.267338,-3.399597 -0.490619,0.248709 -1.08672,0.622509 -1.324665,0.830668 -0.384353,0.336237 -0.525201,0.266247 -1.262211,-0.627219 -1.222491,-1.482008 -1.624341,-3.393641 -1.180206,-5.614321 0.230018,-1.150085 1.292892,-1.678236 2.94476,-1.463273 0.689261,0.0897 1.565285,0.04283 1.946722,-0.104142 1.409189,-0.542994 5.481441,2.872605 6.958291,5.836266 0.57634,1.156549 0.68148,1.72194 0.67563,3.632875 -0.005,1.575808 -0.14546,2.559936 -0.46302,3.240331 l -0.45609,0.977175 z M 71.758782,52.780385 c -1.01755,-0.154692 -1.067668,-0.209204 -1.300545,-1.414606 -0.204859,-1.060381 -0.167935,-1.335786 0.239445,-1.785937 0.573321,-0.633511 1.462535,-0.680276 2.521604,-0.132609 0.822176,0.425164 1.139901,0.882697 1.416264,2.039461 0.146018,0.611182 0.05408,0.780179 -0.611719,1.124479 -0.430959,0.222858 -0.878772,0.3883 -0.995139,0.367649 -0.116368,-0.02064 -0.687827,-0.109945 -1.26991,-0.198437 z m 7.14375,-0.207563 c -1.384797,-0.320755 -2.778125,-0.989071 -2.778125,-1.332543 0,-0.209706 0.376457,-0.75774 0.836573,-1.217856 1.62748,-1.627478 2.324958,-4.415461 1.749729,-6.994075 -0.171346,-0.768104 -0.12898,-0.861168 0.396875,-0.871828 0.323784,-0.0066 0.93596,-0.160145 1.360392,-0.341292 0.646557,-0.275949 0.989795,-0.253963 2.116667,0.135586 1.474011,0.509553 4.036208,0.621964 5.381614,0.236109 l 0.85815,-0.246115 0.009,2.032052 c 0.01021,2.31013 0.421611,3.420015 1.849231,4.988867 0.979189,1.076053 1.027578,1.433439 0.293484,2.167533 -1.00407,1.004078 -1.771618,1.357942 -2.945434,1.357942 -1.292863,0 -1.945296,-0.334782 -3.475308,-1.783283 l -0.961765,-0.910529 -0.758026,0.958318 c -1.199156,1.516009 -2.54995,2.141468 -3.933026,1.821114 z m 14.613631,-0.64855 -0.996786,-0.503899 0.430037,-0.855646 c 0.591881,-1.177669 1.403149,-1.768846 2.436932,-1.775807 0.748837,-0.0051 0.928071,0.124971 1.256771,0.911659 0.585523,1.401352 0.491352,1.826948 -0.476523,2.153613 -0.472942,0.159621 -1.038489,0.354065 -1.256771,0.432099 -0.218281,0.07803 -0.845428,-0.08488 -1.39366,-0.362019 z M 82.342115,40.362946 c -1.258854,-0.595934 -1.804009,-1.187847 -2.211492,-2.401162 -1.17759,-3.506375 0.926236,-6.758856 5.037261,-7.787526 1.209593,-0.302667 1.539856,-0.857118 1.539856,-2.585134 0,-3.073093 1.418423,-5.919358 3.364939,-6.752216 1.10739,-0.47382 3.080263,-0.465468 4.013235,0.01699 2.381136,1.231333 3.962341,6.000672 3.347021,10.095508 l -0.194924,1.297173 -0.622972,-1.190625 c -0.369784,-0.706734 -0.630192,-1.674519 -0.640736,-2.381251 -0.03734,-2.502209 -1.587857,-4.497917 -3.49455,-4.497917 -2.527491,0 -4.6042,2.55137 -4.402842,5.409173 0.0721,1.023347 0.04474,1.058208 -1.413602,1.800759 -3.21376,1.636368 -4.421156,3.524215 -3.564787,5.573797 0.785143,1.87911 2.734754,2.436841 5.725885,1.638025 1.417198,-0.378479 1.466945,-0.373214 1.904539,0.201578 0.441976,0.580546 0.42898,0.6008 -0.79375,1.237141 -1.728589,0.899602 -5.994248,1.082567 -7.593081,0.325689 z m -5.359391,-0.377306 -0.556839,-0.595313 1.030245,-0.737833 1.030245,-0.737833 0.675556,1.333146 0.675557,1.333145 h -1.148962 c -0.850137,0 -1.293786,-0.154828 -1.705802,-0.595312 z M 93.135239,39.25399 C 92.814062,39.124694 92.231457,38.507161 91.840567,37.8817 90.338511,35.478264 87.628961,33.973891 85.430012,34.322482 l -0.97123,0.153967 0.661458,-0.528032 c 0.900322,-0.718714 2.019805,-1.313299 3.435207,-1.824524 l 1.186252,-0.428461 -0.07872,-1.973385 c -0.0563,-1.411245 0.03052,-2.120624 0.304786,-2.490261 0.377087,-0.508214 0.40191,-0.508579 1.481471,-0.02176 1.46126,0.658937 2.822096,2.214372 3.80346,4.347354 0.64254,1.39655 0.828093,2.210213 0.923853,4.051178 0.118671,2.281455 0.112073,2.311395 -0.685387,3.108854 -0.828119,0.82812 -1.341366,0.945015 -2.355919,0.536583 z M 70.965032,38.758325 c -2.535056,-0.648457 -4.375027,-2.382509 -5.077121,-4.784852 -0.520709,-1.781701 -0.215477,-4.170166 0.714156,-5.588336 0.778983,-1.188351 2.617811,-2.583448 3.855641,-2.92523 2.664005,-0.735567 5.991366,0.864494 7.55341,3.632283 0.445299,0.789028 0.972729,1.434596 1.172065,1.434596 0.199336,0 0.888293,-0.333493 1.531014,-0.741095 0.642722,-0.407602 1.65118,-0.900365 2.241018,-1.095029 l 1.072433,-0.353935 0.192487,-1.749241 c 0.105871,-0.962083 0.202875,-2.204133 0.215567,-2.760111 0.02291,-1.003119 0.0109,-1.0151 -1.56442,-1.56256 -4.244938,-1.475207 -5.951165,-3.662795 -5.588201,-7.164746 0.38799,-3.743411 3.501675,-6.2792239 7.28853,-5.935844 3.740155,0.3391453 6.20618,2.983925 6.226823,6.678186 0.01199,2.146928 -0.420833,3.382015 -1.330452,3.796464 -0.780457,0.355601 -0.785969,0.311579 -0.105376,-0.841939 1.734601,-2.939928 0.259887,-7.149366 -2.977097,-8.497856 -1.388525,-0.5784447 -3.702595,-0.5269216 -4.951548,0.110247 -4.250837,2.168615 -4.531191,8.181267 -0.497745,10.674956 1.047108,0.647377 1.499183,0.757944 3.099002,0.757944 1.476156,0 2.083906,-0.126885 2.868102,-0.598796 l 0.995045,-0.598796 -0.564364,0.641596 c -0.310399,0.352878 -0.742373,0.998784 -0.959946,1.435346 -0.456154,0.915294 -1.253815,4.278211 -1.253815,5.286055 0,0.415852 -0.181385,0.744227 -0.463021,0.838241 -1.919664,0.64081 -3.758974,1.723635 -4.474992,2.634482 -1.117902,1.422087 -1.67657,2.585233 -1.67657,3.490621 0,0.907598 -1.372497,2.444139 -2.861929,3.203991 -1.13491,0.578987 -3.528879,0.877477 -4.678696,0.583358 z m 3.440738,-0.996823 c 1.691903,-0.576487 3.43732,-2.317133 3.846232,-3.835717 1.299456,-4.825813 -2.801819,-8.962176 -7.564104,-7.628819 -2.222173,0.62217 -4.353075,3.469844 -4.353075,5.81732 0,2.22097 1.896313,4.890471 4.002832,5.634916 1.526926,0.539617 2.511786,0.542597 4.068115,0.0123 z m -4.401394,-1.810221 c -3.023835,-1.982369 -2.758917,-6.464148 0.474966,-8.03529 1.344421,-0.653171 2.397762,-0.712067 3.617837,-0.202287 1.813627,0.757782 3.085561,2.599716 3.085561,4.468312 0,1.386705 -1.036107,3.150942 -2.248958,3.829431 -1.473617,0.824365 -3.620136,0.798166 -4.929406,-0.06017 z m 3.83923,-0.763931 c 3.204742,-1.339027 2.23422,-6.514687 -1.221043,-6.511659 -0.636729,5.56e-4 -1.483433,0.21751 -1.943291,0.49793 -0.87897,0.535995 -1.698616,1.976264 -1.698616,2.984779 0,0.999056 0.891089,2.387867 1.868399,2.912004 1.079064,0.57871 1.820131,0.60765 2.994551,0.116946 z m -2.863572,-1.80902 c -0.429426,-0.61309 -0.544698,-1.979033 -0.209388,-2.481207 0.381441,-0.57126 1.421769,-0.933476 2.19395,-0.763876 1.422738,0.312485 2.028329,2.005989 1.160433,3.245083 -0.319183,0.455697 -0.673083,0.588039 -1.572497,0.588039 -0.899415,0 -1.253315,-0.132342 -1.572498,-0.588039 z m 14.043596,3.743836 c -1.143528,-0.899499 -0.911273,-1.303714 0.749091,-1.303714 1.346655,0 3.316269,0.642303 3.316269,1.081456 0,0.291496 -1.565135,0.770628 -2.517341,0.770628 -0.467984,0 -1.164593,-0.246767 -1.548019,-0.54837 z m -6.223595,-9.486267 c -0.774128,-1.255651 -2.735753,-2.787932 -4.255585,-3.32416 -1.779037,-0.627681 -4.030359,-0.520488 -5.506443,0.262181 -0.686387,0.363944 -1.486101,0.835075 -1.777142,1.046956 -0.524455,0.381808 -0.527655,0.351556 -0.359369,-3.397598 0.200616,-4.469432 0.619789,-5.565283 2.62562,-6.864207 0.873142,-0.565424 6.648265,-2.861172 6.804491,-2.704946 0.06521,0.06521 -0.01426,0.499597 -0.176609,0.965303 -0.423698,1.215421 -0.363644,3.647563 0.125512,5.083157 0.284906,0.836153 0.836007,1.608056 1.707464,2.391571 1.251129,1.124872 3.839221,2.553463 4.625957,2.553463 0.427965,0 0.482173,0.573978 0.228793,2.422582 -0.152911,1.115612 -0.234515,1.209134 -1.653646,1.895171 -0.821038,0.396907 -1.552328,0.715675 -1.625088,0.708373 -0.07276,-0.0073 -0.41654,-0.474332 -0.763955,-1.037846 z m 14.130308,-1.224733 c -1.204441,-0.83292 -1.257371,-0.911464 -0.614211,-0.911464 0.724101,0 1.334161,0.452596 1.810983,1.343548 0.343818,0.642431 0.371464,0.652413 -1.196772,-0.432084 z m -10.900248,-6.35013 c -1.604981,-0.702937 -2.950941,-3.274962 -2.585208,-4.940134 0.280755,-1.278267 1.331846,-2.779804 2.294283,-3.2775 1.072652,-0.55469 3.277324,-0.571393 4.313303,-0.03268 1.68112,0.874189 2.50735,2.246319 2.50735,4.163978 0,1.446759 -0.256585,2.140998 -1.157541,3.131957 -1.180066,1.297946 -3.604377,1.728629 -5.372187,0.954377 z m 2.562317,-0.64675 c 0.788842,0 2.084258,-1.283277 2.37123,-2.349011 0.497703,-1.848322 -0.489944,-3.687911 -2.300853,-4.285565 -0.739132,-0.243935 -1.125076,-0.217336 -2.067216,0.14247 -2.867965,1.095286 -3.02528,4.98002 -0.253458,6.258888 0.582083,0.268563 1.216899,0.430903 1.410702,0.360757 0.193803,-0.07015 0.57162,-0.127539 0.839595,-0.127539 z m -2.363385,-2.020057 c -0.727437,-0.924786 -0.692607,-1.82851 0.101061,-2.622178 0.750299,-0.750299 1.621528,-0.829534 2.483397,-0.225857 0.904856,0.633786 1.175962,1.573455 0.71252,2.469649 -0.677669,1.310469 -2.407628,1.509012 -3.296978,0.378386 z m 10.904588,1.632701 c -1.128385,-0.224441 -1.333704,-0.346538 -1.12853,-0.671104 0.13794,-0.218212 0.252627,-0.72417 0.254854,-1.124353 0.005,-0.899576 0.271643,-0.913541 1.27779,-0.06693 0.649412,0.546445 1.345517,1.92788 1.054243,2.092167 -0.04346,0.02451 -0.699723,-0.07889 -1.458357,-0.229784 z"
         id="path8185"
         inkscape:connector-curvature="0" />
    </g>
  </g>
</svg>
