G04 #@! TF.GenerationSoftware,KiCad,Pcbnew,5.1.6-c6e7f7d~87~ubuntu20.04.1*
G04 #@! TF.CreationDate,2020-10-22T20:53:10+01:00*
G04 #@! TF.ProjectId,Lily58,4c696c79-3538-42e6-9b69-6361645f7063,rev?*
G04 #@! TF.SameCoordinates,Original*
G04 #@! TF.FileFunction,Legend,Bot*
G04 #@! TF.FilePolarity,Positive*
%FSLAX46Y46*%
G04 Gerber Fmt 4.6, Leading zero omitted, Abs format (unit mm)*
G04 Created by KiCad (PCBNEW 5.1.6-c6e7f7d~87~ubuntu20.04.1) date 2020-10-22 20:53:10*
%MOMM*%
%LPD*%
G01*
G04 APERTURE LIST*
%ADD10C,0.150000*%
%ADD11C,0.125000*%
%ADD12C,0.010000*%
%ADD13C,0.120000*%
%ADD14C,0.250000*%
G04 APERTURE END LIST*
D10*
X99655380Y-41196000D02*
X99655380Y-41767428D01*
X100655380Y-41481714D02*
X99655380Y-41481714D01*
X100655380Y-42100761D02*
X99988714Y-42100761D01*
X99655380Y-42100761D02*
X99703000Y-42053142D01*
X99750619Y-42100761D01*
X99703000Y-42148380D01*
X99655380Y-42100761D01*
X99750619Y-42100761D01*
X100655380Y-42576952D02*
X99655380Y-42576952D01*
X100274428Y-42672190D02*
X100655380Y-42957904D01*
X99988714Y-42957904D02*
X100369666Y-42576952D01*
X100655380Y-43386476D02*
X99988714Y-43386476D01*
X99655380Y-43386476D02*
X99703000Y-43338857D01*
X99750619Y-43386476D01*
X99703000Y-43434095D01*
X99655380Y-43386476D01*
X99750619Y-43386476D01*
X99655380Y-45100761D02*
X99655380Y-44624571D01*
X100131571Y-44576952D01*
X100083952Y-44624571D01*
X100036333Y-44719809D01*
X100036333Y-44957904D01*
X100083952Y-45053142D01*
X100131571Y-45100761D01*
X100226809Y-45148380D01*
X100464904Y-45148380D01*
X100560142Y-45100761D01*
X100607761Y-45053142D01*
X100655380Y-44957904D01*
X100655380Y-44719809D01*
X100607761Y-44624571D01*
X100560142Y-44576952D01*
X99655380Y-45481714D02*
X99655380Y-46148380D01*
X100655380Y-45719809D01*
X100655380Y-47100761D02*
X100179190Y-46767428D01*
X100655380Y-46529333D02*
X99655380Y-46529333D01*
X99655380Y-46910285D01*
X99703000Y-47005523D01*
X99750619Y-47053142D01*
X99845857Y-47100761D01*
X99988714Y-47100761D01*
X100083952Y-47053142D01*
X100131571Y-47005523D01*
X100179190Y-46910285D01*
X100179190Y-46529333D01*
D11*
X115233333Y-75816666D02*
X115000000Y-76516666D01*
X114766666Y-75816666D01*
X114133333Y-76450000D02*
X114166666Y-76483333D01*
X114266666Y-76516666D01*
X114333333Y-76516666D01*
X114433333Y-76483333D01*
X114500000Y-76416666D01*
X114533333Y-76350000D01*
X114566666Y-76216666D01*
X114566666Y-76116666D01*
X114533333Y-75983333D01*
X114500000Y-75916666D01*
X114433333Y-75850000D01*
X114333333Y-75816666D01*
X114266666Y-75816666D01*
X114166666Y-75850000D01*
X114133333Y-75883333D01*
X113433333Y-76450000D02*
X113466666Y-76483333D01*
X113566666Y-76516666D01*
X113633333Y-76516666D01*
X113733333Y-76483333D01*
X113800000Y-76416666D01*
X113833333Y-76350000D01*
X113866666Y-76216666D01*
X113866666Y-76116666D01*
X113833333Y-75983333D01*
X113800000Y-75916666D01*
X113733333Y-75850000D01*
X113633333Y-75816666D01*
X113566666Y-75816666D01*
X113466666Y-75850000D01*
X113433333Y-75883333D01*
X114750000Y-79016666D02*
X115083333Y-79016666D01*
X115083333Y-78316666D01*
X114516666Y-78650000D02*
X114283333Y-78650000D01*
X114183333Y-79016666D02*
X114516666Y-79016666D01*
X114516666Y-78316666D01*
X114183333Y-78316666D01*
X113883333Y-79016666D02*
X113883333Y-78316666D01*
X113716666Y-78316666D01*
X113616666Y-78350000D01*
X113550000Y-78416666D01*
X113516666Y-78483333D01*
X113483333Y-78616666D01*
X113483333Y-78716666D01*
X113516666Y-78850000D01*
X113550000Y-78916666D01*
X113616666Y-78983333D01*
X113716666Y-79016666D01*
X113883333Y-79016666D01*
X114733333Y-80950000D02*
X114800000Y-80916666D01*
X114900000Y-80916666D01*
X115000000Y-80950000D01*
X115066666Y-81016666D01*
X115100000Y-81083333D01*
X115133333Y-81216666D01*
X115133333Y-81316666D01*
X115100000Y-81450000D01*
X115066666Y-81516666D01*
X115000000Y-81583333D01*
X114900000Y-81616666D01*
X114833333Y-81616666D01*
X114733333Y-81583333D01*
X114700000Y-81550000D01*
X114700000Y-81316666D01*
X114833333Y-81316666D01*
X114400000Y-81616666D02*
X114400000Y-80916666D01*
X114000000Y-81616666D01*
X114000000Y-80916666D01*
X113666666Y-81616666D02*
X113666666Y-80916666D01*
X113500000Y-80916666D01*
X113400000Y-80950000D01*
X113333333Y-81016666D01*
X113300000Y-81083333D01*
X113266666Y-81216666D01*
X113266666Y-81316666D01*
X113300000Y-81450000D01*
X113333333Y-81516666D01*
X113400000Y-81583333D01*
X113500000Y-81616666D01*
X113666666Y-81616666D01*
D12*
G36*
X98318489Y-53958959D02*
G01*
X98221153Y-54000525D01*
X98139721Y-54046664D01*
X97939043Y-54189266D01*
X97731946Y-54378301D01*
X97541976Y-54588988D01*
X97392679Y-54796545D01*
X97344299Y-54883830D01*
X97234537Y-55202700D01*
X97204981Y-55541426D01*
X97256421Y-55890526D01*
X97259686Y-55902772D01*
X97301012Y-56043968D01*
X97337495Y-56148694D01*
X97360916Y-56193831D01*
X97405450Y-56178193D01*
X97490696Y-56120260D01*
X97557166Y-56066939D01*
X97686003Y-55967915D01*
X97816087Y-55883254D01*
X97864083Y-55857443D01*
X97946127Y-55810961D01*
X97986804Y-55755321D01*
X98000466Y-55661316D01*
X98001666Y-55577447D01*
X98009849Y-55436273D01*
X98045500Y-55337663D01*
X98125276Y-55240207D01*
X98145600Y-55219600D01*
X98303556Y-55106060D01*
X98469854Y-55075716D01*
X98648827Y-55128286D01*
X98737847Y-55181075D01*
X98851926Y-55243387D01*
X98944210Y-55248706D01*
X99031707Y-55190580D01*
X99131422Y-55062557D01*
X99158572Y-55021470D01*
X99251668Y-54814576D01*
X99298706Y-54571762D01*
X99293796Y-54331638D01*
X99276639Y-54247466D01*
X99197934Y-54087584D01*
X99073142Y-53988087D01*
X98918180Y-53958165D01*
X98812048Y-53979235D01*
X98675036Y-54007059D01*
X98529450Y-53985646D01*
X98505622Y-53978789D01*
X98401662Y-53953875D01*
X98318489Y-53958959D01*
G37*
X98318489Y-53958959D02*
X98221153Y-54000525D01*
X98139721Y-54046664D01*
X97939043Y-54189266D01*
X97731946Y-54378301D01*
X97541976Y-54588988D01*
X97392679Y-54796545D01*
X97344299Y-54883830D01*
X97234537Y-55202700D01*
X97204981Y-55541426D01*
X97256421Y-55890526D01*
X97259686Y-55902772D01*
X97301012Y-56043968D01*
X97337495Y-56148694D01*
X97360916Y-56193831D01*
X97405450Y-56178193D01*
X97490696Y-56120260D01*
X97557166Y-56066939D01*
X97686003Y-55967915D01*
X97816087Y-55883254D01*
X97864083Y-55857443D01*
X97946127Y-55810961D01*
X97986804Y-55755321D01*
X98000466Y-55661316D01*
X98001666Y-55577447D01*
X98009849Y-55436273D01*
X98045500Y-55337663D01*
X98125276Y-55240207D01*
X98145600Y-55219600D01*
X98303556Y-55106060D01*
X98469854Y-55075716D01*
X98648827Y-55128286D01*
X98737847Y-55181075D01*
X98851926Y-55243387D01*
X98944210Y-55248706D01*
X99031707Y-55190580D01*
X99131422Y-55062557D01*
X99158572Y-55021470D01*
X99251668Y-54814576D01*
X99298706Y-54571762D01*
X99293796Y-54331638D01*
X99276639Y-54247466D01*
X99197934Y-54087584D01*
X99073142Y-53988087D01*
X98918180Y-53958165D01*
X98812048Y-53979235D01*
X98675036Y-54007059D01*
X98529450Y-53985646D01*
X98505622Y-53978789D01*
X98401662Y-53953875D01*
X98318489Y-53958959D01*
G36*
X101730818Y-56142816D02*
G01*
X101736006Y-56182185D01*
X101759322Y-56214052D01*
X101786988Y-56182015D01*
X101802522Y-56119692D01*
X101794739Y-56102961D01*
X101752889Y-56096009D01*
X101730818Y-56142816D01*
G37*
X101730818Y-56142816D02*
X101736006Y-56182185D01*
X101759322Y-56214052D01*
X101786988Y-56182015D01*
X101802522Y-56119692D01*
X101794739Y-56102961D01*
X101752889Y-56096009D01*
X101730818Y-56142816D01*
G36*
X99977459Y-48948680D02*
G01*
X99753403Y-49024400D01*
X99545211Y-49163517D01*
X99492087Y-49209627D01*
X99303206Y-49427608D01*
X99189178Y-49676962D01*
X99145446Y-49968291D01*
X99144666Y-50017731D01*
X99159902Y-50260510D01*
X99211029Y-50441093D01*
X99306181Y-50577270D01*
X99449468Y-50684486D01*
X99670268Y-50862567D01*
X99840195Y-51107809D01*
X99958810Y-51419364D01*
X100025109Y-51790801D01*
X100054833Y-52083103D01*
X100346236Y-52201047D01*
X100643507Y-52358245D01*
X100873620Y-52560182D01*
X101032805Y-52802577D01*
X101116566Y-53076516D01*
X101149409Y-53199115D01*
X101215429Y-53305979D01*
X101333070Y-53426082D01*
X101347275Y-53438940D01*
X101484239Y-53545771D01*
X101627806Y-53632715D01*
X101717017Y-53670674D01*
X101941500Y-53710140D01*
X102194526Y-53712005D01*
X102432037Y-53677214D01*
X102511741Y-53653632D01*
X102764110Y-53521206D01*
X102968596Y-53327038D01*
X103115749Y-53084826D01*
X103196118Y-52808271D01*
X103208430Y-52643771D01*
X103201711Y-52516644D01*
X103036875Y-52516644D01*
X103023186Y-52770945D01*
X102943817Y-53016333D01*
X102806248Y-53235457D01*
X102617960Y-53410967D01*
X102445401Y-53504567D01*
X102290874Y-53539084D01*
X102095148Y-53546722D01*
X101896963Y-53528498D01*
X101736223Y-53485920D01*
X101510157Y-53350816D01*
X101338057Y-53166148D01*
X101221902Y-52946597D01*
X101163673Y-52706846D01*
X101165348Y-52461575D01*
X101228906Y-52225464D01*
X101356328Y-52013197D01*
X101517265Y-51861800D01*
X101768107Y-51727019D01*
X102029313Y-51669703D01*
X102287622Y-51686140D01*
X102529772Y-51772613D01*
X102742501Y-51925410D01*
X102912549Y-52140814D01*
X102977400Y-52270780D01*
X103036875Y-52516644D01*
X103201711Y-52516644D01*
X103195135Y-52392240D01*
X103148716Y-52195076D01*
X103058580Y-52025027D01*
X102914131Y-51854847D01*
X102893624Y-51834102D01*
X102653361Y-51638727D01*
X102406559Y-51527547D01*
X102151448Y-51500222D01*
X101886255Y-51556414D01*
X101749465Y-51615653D01*
X101535967Y-51738141D01*
X101375676Y-51872011D01*
X101238603Y-52044359D01*
X101188006Y-52122916D01*
X101110327Y-52245136D01*
X101050638Y-52332516D01*
X101021739Y-52366329D01*
X101021641Y-52366333D01*
X100979844Y-52345649D01*
X100890756Y-52292832D01*
X100826575Y-52252794D01*
X100671321Y-52165157D01*
X100502713Y-52085199D01*
X100457000Y-52066702D01*
X100266500Y-51994148D01*
X100236594Y-51661657D01*
X100220727Y-51492212D01*
X100206093Y-51347941D01*
X100195479Y-51256089D01*
X100194261Y-51247559D01*
X100203776Y-51196437D01*
X100258870Y-51147698D01*
X100373880Y-51090933D01*
X100457000Y-51056817D01*
X100684450Y-50961830D01*
X100851555Y-50878528D01*
X100979163Y-50794598D01*
X101088121Y-50697726D01*
X101118670Y-50666028D01*
X101248469Y-50509752D01*
X101323347Y-50362771D01*
X101356453Y-50191127D01*
X101361813Y-50038000D01*
X101360274Y-50025314D01*
X101175737Y-50025314D01*
X101137467Y-50308907D01*
X101031721Y-50551336D01*
X100868672Y-50745195D01*
X100658489Y-50883078D01*
X100411344Y-50957577D01*
X100137408Y-50961287D01*
X99945710Y-50921012D01*
X99710505Y-50808674D01*
X99521982Y-50633336D01*
X99389173Y-50407836D01*
X99321111Y-50145008D01*
X99314000Y-50023274D01*
X99336832Y-49773054D01*
X99412043Y-49570605D01*
X99549707Y-49390362D01*
X99572327Y-49367609D01*
X99800882Y-49189996D01*
X100042982Y-49095245D01*
X100304020Y-49081943D01*
X100508555Y-49122539D01*
X100755527Y-49235903D01*
X100954183Y-49411471D01*
X101094801Y-49636085D01*
X101167656Y-49896589D01*
X101175737Y-50025314D01*
X101360274Y-50025314D01*
X101323883Y-49725388D01*
X101215687Y-49453710D01*
X101044706Y-49230429D01*
X100818421Y-49063005D01*
X100544315Y-48958902D01*
X100246321Y-48925450D01*
X99977459Y-48948680D01*
G37*
X99977459Y-48948680D02*
X99753403Y-49024400D01*
X99545211Y-49163517D01*
X99492087Y-49209627D01*
X99303206Y-49427608D01*
X99189178Y-49676962D01*
X99145446Y-49968291D01*
X99144666Y-50017731D01*
X99159902Y-50260510D01*
X99211029Y-50441093D01*
X99306181Y-50577270D01*
X99449468Y-50684486D01*
X99670268Y-50862567D01*
X99840195Y-51107809D01*
X99958810Y-51419364D01*
X100025109Y-51790801D01*
X100054833Y-52083103D01*
X100346236Y-52201047D01*
X100643507Y-52358245D01*
X100873620Y-52560182D01*
X101032805Y-52802577D01*
X101116566Y-53076516D01*
X101149409Y-53199115D01*
X101215429Y-53305979D01*
X101333070Y-53426082D01*
X101347275Y-53438940D01*
X101484239Y-53545771D01*
X101627806Y-53632715D01*
X101717017Y-53670674D01*
X101941500Y-53710140D01*
X102194526Y-53712005D01*
X102432037Y-53677214D01*
X102511741Y-53653632D01*
X102764110Y-53521206D01*
X102968596Y-53327038D01*
X103115749Y-53084826D01*
X103196118Y-52808271D01*
X103208430Y-52643771D01*
X103201711Y-52516644D01*
X103036875Y-52516644D01*
X103023186Y-52770945D01*
X102943817Y-53016333D01*
X102806248Y-53235457D01*
X102617960Y-53410967D01*
X102445401Y-53504567D01*
X102290874Y-53539084D01*
X102095148Y-53546722D01*
X101896963Y-53528498D01*
X101736223Y-53485920D01*
X101510157Y-53350816D01*
X101338057Y-53166148D01*
X101221902Y-52946597D01*
X101163673Y-52706846D01*
X101165348Y-52461575D01*
X101228906Y-52225464D01*
X101356328Y-52013197D01*
X101517265Y-51861800D01*
X101768107Y-51727019D01*
X102029313Y-51669703D01*
X102287622Y-51686140D01*
X102529772Y-51772613D01*
X102742501Y-51925410D01*
X102912549Y-52140814D01*
X102977400Y-52270780D01*
X103036875Y-52516644D01*
X103201711Y-52516644D01*
X103195135Y-52392240D01*
X103148716Y-52195076D01*
X103058580Y-52025027D01*
X102914131Y-51854847D01*
X102893624Y-51834102D01*
X102653361Y-51638727D01*
X102406559Y-51527547D01*
X102151448Y-51500222D01*
X101886255Y-51556414D01*
X101749465Y-51615653D01*
X101535967Y-51738141D01*
X101375676Y-51872011D01*
X101238603Y-52044359D01*
X101188006Y-52122916D01*
X101110327Y-52245136D01*
X101050638Y-52332516D01*
X101021739Y-52366329D01*
X101021641Y-52366333D01*
X100979844Y-52345649D01*
X100890756Y-52292832D01*
X100826575Y-52252794D01*
X100671321Y-52165157D01*
X100502713Y-52085199D01*
X100457000Y-52066702D01*
X100266500Y-51994148D01*
X100236594Y-51661657D01*
X100220727Y-51492212D01*
X100206093Y-51347941D01*
X100195479Y-51256089D01*
X100194261Y-51247559D01*
X100203776Y-51196437D01*
X100258870Y-51147698D01*
X100373880Y-51090933D01*
X100457000Y-51056817D01*
X100684450Y-50961830D01*
X100851555Y-50878528D01*
X100979163Y-50794598D01*
X101088121Y-50697726D01*
X101118670Y-50666028D01*
X101248469Y-50509752D01*
X101323347Y-50362771D01*
X101356453Y-50191127D01*
X101361813Y-50038000D01*
X101360274Y-50025314D01*
X101175737Y-50025314D01*
X101137467Y-50308907D01*
X101031721Y-50551336D01*
X100868672Y-50745195D01*
X100658489Y-50883078D01*
X100411344Y-50957577D01*
X100137408Y-50961287D01*
X99945710Y-50921012D01*
X99710505Y-50808674D01*
X99521982Y-50633336D01*
X99389173Y-50407836D01*
X99321111Y-50145008D01*
X99314000Y-50023274D01*
X99336832Y-49773054D01*
X99412043Y-49570605D01*
X99549707Y-49390362D01*
X99572327Y-49367609D01*
X99800882Y-49189996D01*
X100042982Y-49095245D01*
X100304020Y-49081943D01*
X100508555Y-49122539D01*
X100755527Y-49235903D01*
X100954183Y-49411471D01*
X101094801Y-49636085D01*
X101167656Y-49896589D01*
X101175737Y-50025314D01*
X101360274Y-50025314D01*
X101323883Y-49725388D01*
X101215687Y-49453710D01*
X101044706Y-49230429D01*
X100818421Y-49063005D01*
X100544315Y-48958902D01*
X100246321Y-48925450D01*
X99977459Y-48948680D01*
G36*
X102191131Y-56541206D02*
G01*
X102119906Y-56596267D01*
X102016191Y-56673160D01*
X101932909Y-56719998D01*
X101907854Y-56726666D01*
X101864361Y-56760665D01*
X101857041Y-56851068D01*
X101880557Y-56980490D01*
X101929570Y-57131542D01*
X101998744Y-57286838D01*
X102082741Y-57428989D01*
X102149361Y-57513395D01*
X102303386Y-57711675D01*
X102380172Y-57894251D01*
X102378744Y-58069688D01*
X102298124Y-58246552D01*
X102137339Y-58433409D01*
X102033910Y-58527026D01*
X101891916Y-58644496D01*
X101792383Y-58713928D01*
X101716090Y-58745281D01*
X101643814Y-58748513D01*
X101614064Y-58744547D01*
X101495813Y-58706607D01*
X101355612Y-58636382D01*
X101294277Y-58597693D01*
X101092475Y-58484111D01*
X100902752Y-58438304D01*
X100695587Y-58454307D01*
X100642758Y-58466008D01*
X100488209Y-58509803D01*
X100408082Y-58546660D01*
X100404873Y-58573657D01*
X100481078Y-58587875D01*
X100537385Y-58589333D01*
X100736232Y-58613362D01*
X100895827Y-58678899D01*
X101004102Y-58776122D01*
X101048990Y-58895205D01*
X101033660Y-58993316D01*
X100970348Y-59061042D01*
X100850596Y-59122569D01*
X100702480Y-59166615D01*
X100564193Y-59182000D01*
X100465720Y-59192542D01*
X100416093Y-59218496D01*
X100414666Y-59224333D01*
X100452253Y-59250708D01*
X100546278Y-59265505D01*
X100586102Y-59266666D01*
X100762775Y-59290301D01*
X100919059Y-59352940D01*
X101026826Y-59442189D01*
X101043409Y-59468188D01*
X101062009Y-59580658D01*
X101009512Y-59686971D01*
X100899351Y-59776161D01*
X100744960Y-59837266D01*
X100564193Y-59859333D01*
X100454069Y-59872845D01*
X100415033Y-59916100D01*
X100414666Y-59922833D01*
X100425124Y-59956325D01*
X100464252Y-59975254D01*
X100543686Y-59979514D01*
X100675059Y-59969000D01*
X100870005Y-59943605D01*
X101049666Y-59917048D01*
X101602563Y-59814249D01*
X102078112Y-59684717D01*
X102479726Y-59527145D01*
X102810815Y-59340227D01*
X103042948Y-59153868D01*
X103268833Y-58903542D01*
X103418984Y-58649065D01*
X103501307Y-58373151D01*
X103523906Y-58102500D01*
X103519602Y-57906763D01*
X103498930Y-57757211D01*
X103454319Y-57615819D01*
X103403832Y-57499250D01*
X103336496Y-57367230D01*
X103276069Y-57272846D01*
X103235355Y-57236020D01*
X103234635Y-57236010D01*
X103179401Y-57264727D01*
X103091627Y-57336310D01*
X103039552Y-57385972D01*
X102880800Y-57514656D01*
X102740265Y-57567102D01*
X102623416Y-57543268D01*
X102535720Y-57443114D01*
X102512909Y-57389972D01*
X102497257Y-57311059D01*
X102520605Y-57234112D01*
X102592756Y-57130429D01*
X102608159Y-57111089D01*
X102704563Y-56979966D01*
X102738899Y-56906085D01*
X102712799Y-56890912D01*
X102627893Y-56935913D01*
X102510167Y-57023000D01*
X102369077Y-57117669D01*
X102260835Y-57144621D01*
X102170262Y-57105868D01*
X102135728Y-57072583D01*
X102077331Y-56978174D01*
X102080162Y-56878199D01*
X102147519Y-56756105D01*
X102215807Y-56670553D01*
X102301503Y-56555870D01*
X102322743Y-56493595D01*
X102284346Y-56487463D01*
X102191131Y-56541206D01*
G37*
X102191131Y-56541206D02*
X102119906Y-56596267D01*
X102016191Y-56673160D01*
X101932909Y-56719998D01*
X101907854Y-56726666D01*
X101864361Y-56760665D01*
X101857041Y-56851068D01*
X101880557Y-56980490D01*
X101929570Y-57131542D01*
X101998744Y-57286838D01*
X102082741Y-57428989D01*
X102149361Y-57513395D01*
X102303386Y-57711675D01*
X102380172Y-57894251D01*
X102378744Y-58069688D01*
X102298124Y-58246552D01*
X102137339Y-58433409D01*
X102033910Y-58527026D01*
X101891916Y-58644496D01*
X101792383Y-58713928D01*
X101716090Y-58745281D01*
X101643814Y-58748513D01*
X101614064Y-58744547D01*
X101495813Y-58706607D01*
X101355612Y-58636382D01*
X101294277Y-58597693D01*
X101092475Y-58484111D01*
X100902752Y-58438304D01*
X100695587Y-58454307D01*
X100642758Y-58466008D01*
X100488209Y-58509803D01*
X100408082Y-58546660D01*
X100404873Y-58573657D01*
X100481078Y-58587875D01*
X100537385Y-58589333D01*
X100736232Y-58613362D01*
X100895827Y-58678899D01*
X101004102Y-58776122D01*
X101048990Y-58895205D01*
X101033660Y-58993316D01*
X100970348Y-59061042D01*
X100850596Y-59122569D01*
X100702480Y-59166615D01*
X100564193Y-59182000D01*
X100465720Y-59192542D01*
X100416093Y-59218496D01*
X100414666Y-59224333D01*
X100452253Y-59250708D01*
X100546278Y-59265505D01*
X100586102Y-59266666D01*
X100762775Y-59290301D01*
X100919059Y-59352940D01*
X101026826Y-59442189D01*
X101043409Y-59468188D01*
X101062009Y-59580658D01*
X101009512Y-59686971D01*
X100899351Y-59776161D01*
X100744960Y-59837266D01*
X100564193Y-59859333D01*
X100454069Y-59872845D01*
X100415033Y-59916100D01*
X100414666Y-59922833D01*
X100425124Y-59956325D01*
X100464252Y-59975254D01*
X100543686Y-59979514D01*
X100675059Y-59969000D01*
X100870005Y-59943605D01*
X101049666Y-59917048D01*
X101602563Y-59814249D01*
X102078112Y-59684717D01*
X102479726Y-59527145D01*
X102810815Y-59340227D01*
X103042948Y-59153868D01*
X103268833Y-58903542D01*
X103418984Y-58649065D01*
X103501307Y-58373151D01*
X103523906Y-58102500D01*
X103519602Y-57906763D01*
X103498930Y-57757211D01*
X103454319Y-57615819D01*
X103403832Y-57499250D01*
X103336496Y-57367230D01*
X103276069Y-57272846D01*
X103235355Y-57236020D01*
X103234635Y-57236010D01*
X103179401Y-57264727D01*
X103091627Y-57336310D01*
X103039552Y-57385972D01*
X102880800Y-57514656D01*
X102740265Y-57567102D01*
X102623416Y-57543268D01*
X102535720Y-57443114D01*
X102512909Y-57389972D01*
X102497257Y-57311059D01*
X102520605Y-57234112D01*
X102592756Y-57130429D01*
X102608159Y-57111089D01*
X102704563Y-56979966D01*
X102738899Y-56906085D01*
X102712799Y-56890912D01*
X102627893Y-56935913D01*
X102510167Y-57023000D01*
X102369077Y-57117669D01*
X102260835Y-57144621D01*
X102170262Y-57105868D01*
X102135728Y-57072583D01*
X102077331Y-56978174D01*
X102080162Y-56878199D01*
X102147519Y-56756105D01*
X102215807Y-56670553D01*
X102301503Y-56555870D01*
X102322743Y-56493595D01*
X102284346Y-56487463D01*
X102191131Y-56541206D01*
G36*
X99103047Y-51787298D02*
G01*
X99094912Y-51791147D01*
X98827775Y-51963738D01*
X98611306Y-52204044D01*
X98518577Y-52356023D01*
X98390828Y-52637381D01*
X98306285Y-52913517D01*
X98265410Y-53172297D01*
X98268665Y-53401586D01*
X98316514Y-53589251D01*
X98409418Y-53723156D01*
X98464988Y-53762078D01*
X98617482Y-53804476D01*
X98770881Y-53783668D01*
X98885645Y-53710416D01*
X98963942Y-53617798D01*
X99059364Y-53493958D01*
X99099970Y-53438080D01*
X99297678Y-53230127D01*
X99546062Y-53088633D01*
X99840031Y-53016351D01*
X99888412Y-53011595D01*
X100034577Y-52998586D01*
X100110076Y-52984595D01*
X100128674Y-52962367D01*
X100104139Y-52924643D01*
X100087910Y-52906438D01*
X99932613Y-52782980D01*
X99697980Y-52666227D01*
X99568000Y-52616687D01*
X99377500Y-52549431D01*
X99377500Y-52205560D01*
X99372745Y-52014387D01*
X99356492Y-51889655D01*
X99325758Y-51813568D01*
X99308222Y-51792245D01*
X99255090Y-51749922D01*
X99198096Y-51748332D01*
X99103047Y-51787298D01*
G37*
X99103047Y-51787298D02*
X99094912Y-51791147D01*
X98827775Y-51963738D01*
X98611306Y-52204044D01*
X98518577Y-52356023D01*
X98390828Y-52637381D01*
X98306285Y-52913517D01*
X98265410Y-53172297D01*
X98268665Y-53401586D01*
X98316514Y-53589251D01*
X98409418Y-53723156D01*
X98464988Y-53762078D01*
X98617482Y-53804476D01*
X98770881Y-53783668D01*
X98885645Y-53710416D01*
X98963942Y-53617798D01*
X99059364Y-53493958D01*
X99099970Y-53438080D01*
X99297678Y-53230127D01*
X99546062Y-53088633D01*
X99840031Y-53016351D01*
X99888412Y-53011595D01*
X100034577Y-52998586D01*
X100110076Y-52984595D01*
X100128674Y-52962367D01*
X100104139Y-52924643D01*
X100087910Y-52906438D01*
X99932613Y-52782980D01*
X99697980Y-52666227D01*
X99568000Y-52616687D01*
X99377500Y-52549431D01*
X99377500Y-52205560D01*
X99372745Y-52014387D01*
X99356492Y-51889655D01*
X99325758Y-51813568D01*
X99308222Y-51792245D01*
X99255090Y-51749922D01*
X99198096Y-51748332D01*
X99103047Y-51787298D01*
G36*
X102075134Y-55326545D02*
G01*
X101931476Y-55409545D01*
X101853684Y-55484661D01*
X101752213Y-55637449D01*
X101725942Y-55773572D01*
X101774905Y-55884810D01*
X101851898Y-55942412D01*
X101940184Y-55985510D01*
X101988099Y-56004059D01*
X101989481Y-56004024D01*
X102033593Y-55987048D01*
X102086833Y-55964666D01*
X102196824Y-55934807D01*
X102282979Y-55925308D01*
X102366701Y-55902511D01*
X102417657Y-55830935D01*
X102441860Y-55697629D01*
X102446088Y-55574059D01*
X102415477Y-55430019D01*
X102332922Y-55339165D01*
X102214212Y-55303879D01*
X102075134Y-55326545D01*
G37*
X102075134Y-55326545D02*
X101931476Y-55409545D01*
X101853684Y-55484661D01*
X101752213Y-55637449D01*
X101725942Y-55773572D01*
X101774905Y-55884810D01*
X101851898Y-55942412D01*
X101940184Y-55985510D01*
X101988099Y-56004059D01*
X101989481Y-56004024D01*
X102033593Y-55987048D01*
X102086833Y-55964666D01*
X102196824Y-55934807D01*
X102282979Y-55925308D01*
X102366701Y-55902511D01*
X102417657Y-55830935D01*
X102441860Y-55697629D01*
X102446088Y-55574059D01*
X102415477Y-55430019D01*
X102332922Y-55339165D01*
X102214212Y-55303879D01*
X102075134Y-55326545D01*
G36*
X100574192Y-54147232D02*
G01*
X100494538Y-54171081D01*
X100349585Y-54207238D01*
X100181474Y-54224231D01*
X99964661Y-54224068D01*
X99869901Y-54220202D01*
X99456330Y-54200288D01*
X99474577Y-54420320D01*
X99460728Y-54721589D01*
X99373190Y-55005277D01*
X99218483Y-55251676D01*
X99188263Y-55285965D01*
X99096552Y-55393441D01*
X99034624Y-55481583D01*
X99017666Y-55522284D01*
X99051576Y-55592347D01*
X99138214Y-55683100D01*
X99254947Y-55776650D01*
X99379139Y-55855103D01*
X99488156Y-55900566D01*
X99499215Y-55902968D01*
X99711545Y-55900807D01*
X99923985Y-55818684D01*
X100123233Y-55663433D01*
X100219533Y-55572490D01*
X100292985Y-55512828D01*
X100319416Y-55499121D01*
X100361123Y-55531265D01*
X100423188Y-55610338D01*
X100435833Y-55629237D01*
X100587206Y-55788808D01*
X100783809Y-55884624D01*
X101010753Y-55912546D01*
X101253148Y-55868432D01*
X101272318Y-55861825D01*
X101448228Y-55783005D01*
X101539629Y-55702289D01*
X101546475Y-55619762D01*
X101468721Y-55535507D01*
X101453802Y-55525349D01*
X101372688Y-55449663D01*
X101280089Y-55331431D01*
X101231552Y-55255897D01*
X101177337Y-55157102D01*
X101142976Y-55068115D01*
X101124213Y-54965435D01*
X101116792Y-54825564D01*
X101116456Y-54625004D01*
X101116490Y-54620583D01*
X101117186Y-54425560D01*
X101113512Y-54299945D01*
X101102217Y-54228485D01*
X101080048Y-54195928D01*
X101043755Y-54187022D01*
X101023995Y-54186666D01*
X100909741Y-54171277D01*
X100816892Y-54144355D01*
X100710669Y-54125523D01*
X100574192Y-54147232D01*
G37*
X100574192Y-54147232D02*
X100494538Y-54171081D01*
X100349585Y-54207238D01*
X100181474Y-54224231D01*
X99964661Y-54224068D01*
X99869901Y-54220202D01*
X99456330Y-54200288D01*
X99474577Y-54420320D01*
X99460728Y-54721589D01*
X99373190Y-55005277D01*
X99218483Y-55251676D01*
X99188263Y-55285965D01*
X99096552Y-55393441D01*
X99034624Y-55481583D01*
X99017666Y-55522284D01*
X99051576Y-55592347D01*
X99138214Y-55683100D01*
X99254947Y-55776650D01*
X99379139Y-55855103D01*
X99488156Y-55900566D01*
X99499215Y-55902968D01*
X99711545Y-55900807D01*
X99923985Y-55818684D01*
X100123233Y-55663433D01*
X100219533Y-55572490D01*
X100292985Y-55512828D01*
X100319416Y-55499121D01*
X100361123Y-55531265D01*
X100423188Y-55610338D01*
X100435833Y-55629237D01*
X100587206Y-55788808D01*
X100783809Y-55884624D01*
X101010753Y-55912546D01*
X101253148Y-55868432D01*
X101272318Y-55861825D01*
X101448228Y-55783005D01*
X101539629Y-55702289D01*
X101546475Y-55619762D01*
X101468721Y-55535507D01*
X101453802Y-55525349D01*
X101372688Y-55449663D01*
X101280089Y-55331431D01*
X101231552Y-55255897D01*
X101177337Y-55157102D01*
X101142976Y-55068115D01*
X101124213Y-54965435D01*
X101116792Y-54825564D01*
X101116456Y-54625004D01*
X101116490Y-54620583D01*
X101117186Y-54425560D01*
X101113512Y-54299945D01*
X101102217Y-54228485D01*
X101080048Y-54195928D01*
X101043755Y-54187022D01*
X101023995Y-54186666D01*
X100909741Y-54171277D01*
X100816892Y-54144355D01*
X100710669Y-54125523D01*
X100574192Y-54147232D01*
G36*
X100160613Y-55880042D02*
G01*
X99925591Y-56026640D01*
X99692891Y-56089973D01*
X99456792Y-56071059D01*
X99328637Y-56028166D01*
X99189413Y-55976863D01*
X99121143Y-55969243D01*
X99122354Y-56005145D01*
X99122478Y-56005346D01*
X99127138Y-56061665D01*
X99120913Y-56183616D01*
X99105933Y-56353170D01*
X99084327Y-56552300D01*
X99058223Y-56762975D01*
X99029750Y-56967168D01*
X99001037Y-57146851D01*
X98974213Y-57283993D01*
X98968850Y-57306374D01*
X98947969Y-57403746D01*
X98948786Y-57480424D01*
X98978628Y-57562193D01*
X99044822Y-57674838D01*
X99096134Y-57754317D01*
X99244314Y-57969363D01*
X99371909Y-58119932D01*
X99494654Y-58218026D01*
X99628283Y-58275649D01*
X99788534Y-58304804D01*
X99822000Y-58308005D01*
X99988469Y-58324019D01*
X100139401Y-58341339D01*
X100224166Y-58353382D01*
X100346298Y-58351782D01*
X100489010Y-58320571D01*
X100520500Y-58309463D01*
X100711972Y-58264961D01*
X100948934Y-58266341D01*
X101208034Y-58288790D01*
X101402638Y-58026311D01*
X101516264Y-57865880D01*
X101625308Y-57700019D01*
X101704306Y-57567875D01*
X101811371Y-57371917D01*
X101687303Y-56899023D01*
X101633499Y-56683252D01*
X101585659Y-56472006D01*
X101549905Y-56293404D01*
X101534836Y-56198844D01*
X101506439Y-55971560D01*
X101336230Y-56031613D01*
X101145839Y-56076247D01*
X100939684Y-56089236D01*
X100751312Y-56070552D01*
X100634814Y-56032188D01*
X100522613Y-55956985D01*
X100419103Y-55864167D01*
X100317705Y-55755622D01*
X100160613Y-55880042D01*
G37*
X100160613Y-55880042D02*
X99925591Y-56026640D01*
X99692891Y-56089973D01*
X99456792Y-56071059D01*
X99328637Y-56028166D01*
X99189413Y-55976863D01*
X99121143Y-55969243D01*
X99122354Y-56005145D01*
X99122478Y-56005346D01*
X99127138Y-56061665D01*
X99120913Y-56183616D01*
X99105933Y-56353170D01*
X99084327Y-56552300D01*
X99058223Y-56762975D01*
X99029750Y-56967168D01*
X99001037Y-57146851D01*
X98974213Y-57283993D01*
X98968850Y-57306374D01*
X98947969Y-57403746D01*
X98948786Y-57480424D01*
X98978628Y-57562193D01*
X99044822Y-57674838D01*
X99096134Y-57754317D01*
X99244314Y-57969363D01*
X99371909Y-58119932D01*
X99494654Y-58218026D01*
X99628283Y-58275649D01*
X99788534Y-58304804D01*
X99822000Y-58308005D01*
X99988469Y-58324019D01*
X100139401Y-58341339D01*
X100224166Y-58353382D01*
X100346298Y-58351782D01*
X100489010Y-58320571D01*
X100520500Y-58309463D01*
X100711972Y-58264961D01*
X100948934Y-58266341D01*
X101208034Y-58288790D01*
X101402638Y-58026311D01*
X101516264Y-57865880D01*
X101625308Y-57700019D01*
X101704306Y-57567875D01*
X101811371Y-57371917D01*
X101687303Y-56899023D01*
X101633499Y-56683252D01*
X101585659Y-56472006D01*
X101549905Y-56293404D01*
X101534836Y-56198844D01*
X101506439Y-55971560D01*
X101336230Y-56031613D01*
X101145839Y-56076247D01*
X100939684Y-56089236D01*
X100751312Y-56070552D01*
X100634814Y-56032188D01*
X100522613Y-55956985D01*
X100419103Y-55864167D01*
X100317705Y-55755622D01*
X100160613Y-55880042D01*
G36*
X101913350Y-57607245D02*
G01*
X101846828Y-57692632D01*
X101820019Y-57736854D01*
X101745890Y-57855361D01*
X101641519Y-58006045D01*
X101534716Y-58149436D01*
X101341318Y-58398495D01*
X101433015Y-58472747D01*
X101551369Y-58536449D01*
X101677281Y-58533870D01*
X101822371Y-58462230D01*
X101970432Y-58344083D01*
X102092653Y-58227465D01*
X102160794Y-58139137D01*
X102189017Y-58057281D01*
X102192682Y-58001663D01*
X102173001Y-57882973D01*
X102123394Y-57755674D01*
X102057981Y-57646235D01*
X101990881Y-57581122D01*
X101964176Y-57573333D01*
X101913350Y-57607245D01*
G37*
X101913350Y-57607245D02*
X101846828Y-57692632D01*
X101820019Y-57736854D01*
X101745890Y-57855361D01*
X101641519Y-58006045D01*
X101534716Y-58149436D01*
X101341318Y-58398495D01*
X101433015Y-58472747D01*
X101551369Y-58536449D01*
X101677281Y-58533870D01*
X101822371Y-58462230D01*
X101970432Y-58344083D01*
X102092653Y-58227465D01*
X102160794Y-58139137D01*
X102189017Y-58057281D01*
X102192682Y-58001663D01*
X102173001Y-57882973D01*
X102123394Y-57755674D01*
X102057981Y-57646235D01*
X101990881Y-57581122D01*
X101964176Y-57573333D01*
X101913350Y-57607245D01*
G36*
X98704367Y-57663809D02*
G01*
X98698594Y-57666419D01*
X98608803Y-57739633D01*
X98566170Y-57818973D01*
X98564664Y-57939469D01*
X98598479Y-58099964D01*
X98657302Y-58269138D01*
X98730820Y-58415673D01*
X98786954Y-58489469D01*
X98895997Y-58569262D01*
X99010801Y-58581383D01*
X99155939Y-58528002D01*
X99165833Y-58522927D01*
X99285236Y-58453581D01*
X99331266Y-58394185D01*
X99308764Y-58322267D01*
X99230218Y-58224039D01*
X99127451Y-58096433D01*
X99013263Y-57939282D01*
X98948200Y-57842028D01*
X98867561Y-57720790D01*
X98812238Y-57659255D01*
X98763938Y-57644551D01*
X98704367Y-57663809D01*
G37*
X98704367Y-57663809D02*
X98698594Y-57666419D01*
X98608803Y-57739633D01*
X98566170Y-57818973D01*
X98564664Y-57939469D01*
X98598479Y-58099964D01*
X98657302Y-58269138D01*
X98730820Y-58415673D01*
X98786954Y-58489469D01*
X98895997Y-58569262D01*
X99010801Y-58581383D01*
X99155939Y-58528002D01*
X99165833Y-58522927D01*
X99285236Y-58453581D01*
X99331266Y-58394185D01*
X99308764Y-58322267D01*
X99230218Y-58224039D01*
X99127451Y-58096433D01*
X99013263Y-57939282D01*
X98948200Y-57842028D01*
X98867561Y-57720790D01*
X98812238Y-57659255D01*
X98763938Y-57644551D01*
X98704367Y-57663809D01*
G36*
X100177462Y-49751601D02*
G01*
X100051565Y-49839004D01*
X100045439Y-49845936D01*
X99962991Y-49989557D01*
X99965019Y-50131488D01*
X100051608Y-50273105D01*
X100072743Y-50295256D01*
X100193526Y-50389176D01*
X100312896Y-50411561D01*
X100448157Y-50374703D01*
X100541330Y-50298442D01*
X100611006Y-50172838D01*
X100640743Y-50032921D01*
X100636495Y-49973458D01*
X100574352Y-49842184D01*
X100461822Y-49758146D01*
X100321870Y-49726300D01*
X100177462Y-49751601D01*
G37*
X100177462Y-49751601D02*
X100051565Y-49839004D01*
X100045439Y-49845936D01*
X99962991Y-49989557D01*
X99965019Y-50131488D01*
X100051608Y-50273105D01*
X100072743Y-50295256D01*
X100193526Y-50389176D01*
X100312896Y-50411561D01*
X100448157Y-50374703D01*
X100541330Y-50298442D01*
X100611006Y-50172838D01*
X100640743Y-50032921D01*
X100636495Y-49973458D01*
X100574352Y-49842184D01*
X100461822Y-49758146D01*
X100321870Y-49726300D01*
X100177462Y-49751601D01*
G36*
X100300451Y-58782235D02*
G01*
X100108167Y-58792070D01*
X99928568Y-58806716D01*
X99783986Y-58824960D01*
X99696755Y-58845589D01*
X99687383Y-58850389D01*
X99658982Y-58889215D01*
X99700173Y-58939380D01*
X99713674Y-58949971D01*
X99794379Y-58978131D01*
X99936627Y-58997793D01*
X100117695Y-59008679D01*
X100314861Y-59010515D01*
X100505402Y-59003024D01*
X100666595Y-58985930D01*
X100766033Y-58962757D01*
X100852831Y-58912080D01*
X100857094Y-58858651D01*
X100780361Y-58809707D01*
X100730077Y-58793734D01*
X100633739Y-58781854D01*
X100483086Y-58778425D01*
X100300451Y-58782235D01*
G37*
X100300451Y-58782235D02*
X100108167Y-58792070D01*
X99928568Y-58806716D01*
X99783986Y-58824960D01*
X99696755Y-58845589D01*
X99687383Y-58850389D01*
X99658982Y-58889215D01*
X99700173Y-58939380D01*
X99713674Y-58949971D01*
X99794379Y-58978131D01*
X99936627Y-58997793D01*
X100117695Y-59008679D01*
X100314861Y-59010515D01*
X100505402Y-59003024D01*
X100666595Y-58985930D01*
X100766033Y-58962757D01*
X100852831Y-58912080D01*
X100857094Y-58858651D01*
X100780361Y-58809707D01*
X100730077Y-58793734D01*
X100633739Y-58781854D01*
X100483086Y-58778425D01*
X100300451Y-58782235D01*
G36*
X102231446Y-56135027D02*
G01*
X102166487Y-56156515D01*
X102045446Y-56224644D01*
X101932798Y-56312934D01*
X101845152Y-56404495D01*
X101799121Y-56482437D01*
X101804418Y-56524685D01*
X101854669Y-56535757D01*
X101941641Y-56494164D01*
X102049871Y-56416057D01*
X102183001Y-56318294D01*
X102275402Y-56272836D01*
X102349286Y-56275359D01*
X102426869Y-56321543D01*
X102448359Y-56338524D01*
X102515890Y-56435794D01*
X102507058Y-56558772D01*
X102421242Y-56710517D01*
X102357003Y-56789390D01*
X102282120Y-56886893D01*
X102272538Y-56933970D01*
X102287553Y-56938333D01*
X102360999Y-56909184D01*
X102421999Y-56857534D01*
X102515709Y-56781716D01*
X102620141Y-56724951D01*
X102718028Y-56695569D01*
X102787592Y-56715657D01*
X102828747Y-56748811D01*
X102898938Y-56863054D01*
X102902284Y-56996550D01*
X102839204Y-57117131D01*
X102823745Y-57132381D01*
X102741969Y-57220053D01*
X102695256Y-57287109D01*
X102678545Y-57350763D01*
X102713270Y-57367603D01*
X102784119Y-57342901D01*
X102875778Y-57281929D01*
X102970907Y-57192211D01*
X103091618Y-57016007D01*
X103128483Y-56843273D01*
X103081735Y-56667518D01*
X102994529Y-56533057D01*
X102807199Y-56337288D01*
X102609582Y-56202058D01*
X102413667Y-56132820D01*
X102231446Y-56135027D01*
G37*
X102231446Y-56135027D02*
X102166487Y-56156515D01*
X102045446Y-56224644D01*
X101932798Y-56312934D01*
X101845152Y-56404495D01*
X101799121Y-56482437D01*
X101804418Y-56524685D01*
X101854669Y-56535757D01*
X101941641Y-56494164D01*
X102049871Y-56416057D01*
X102183001Y-56318294D01*
X102275402Y-56272836D01*
X102349286Y-56275359D01*
X102426869Y-56321543D01*
X102448359Y-56338524D01*
X102515890Y-56435794D01*
X102507058Y-56558772D01*
X102421242Y-56710517D01*
X102357003Y-56789390D01*
X102282120Y-56886893D01*
X102272538Y-56933970D01*
X102287553Y-56938333D01*
X102360999Y-56909184D01*
X102421999Y-56857534D01*
X102515709Y-56781716D01*
X102620141Y-56724951D01*
X102718028Y-56695569D01*
X102787592Y-56715657D01*
X102828747Y-56748811D01*
X102898938Y-56863054D01*
X102902284Y-56996550D01*
X102839204Y-57117131D01*
X102823745Y-57132381D01*
X102741969Y-57220053D01*
X102695256Y-57287109D01*
X102678545Y-57350763D01*
X102713270Y-57367603D01*
X102784119Y-57342901D01*
X102875778Y-57281929D01*
X102970907Y-57192211D01*
X103091618Y-57016007D01*
X103128483Y-56843273D01*
X103081735Y-56667518D01*
X102994529Y-56533057D01*
X102807199Y-56337288D01*
X102609582Y-56202058D01*
X102413667Y-56132820D01*
X102231446Y-56135027D01*
G36*
X100192062Y-59444730D02*
G01*
X99961206Y-59463786D01*
X99812893Y-59495730D01*
X99745913Y-59541053D01*
X99759054Y-59600242D01*
X99771846Y-59614446D01*
X99838912Y-59640153D01*
X99968081Y-59659747D01*
X100136967Y-59672598D01*
X100323183Y-59678075D01*
X100504343Y-59675548D01*
X100658061Y-59664386D01*
X100761950Y-59643958D01*
X100766033Y-59642454D01*
X100857624Y-59592015D01*
X100872774Y-59544549D01*
X100819712Y-59502887D01*
X100706663Y-59469866D01*
X100541855Y-59448317D01*
X100333515Y-59441077D01*
X100192062Y-59444730D01*
G37*
X100192062Y-59444730D02*
X99961206Y-59463786D01*
X99812893Y-59495730D01*
X99745913Y-59541053D01*
X99759054Y-59600242D01*
X99771846Y-59614446D01*
X99838912Y-59640153D01*
X99968081Y-59659747D01*
X100136967Y-59672598D01*
X100323183Y-59678075D01*
X100504343Y-59675548D01*
X100658061Y-59664386D01*
X100761950Y-59643958D01*
X100766033Y-59642454D01*
X100857624Y-59592015D01*
X100872774Y-59544549D01*
X100819712Y-59502887D01*
X100706663Y-59469866D01*
X100541855Y-59448317D01*
X100333515Y-59441077D01*
X100192062Y-59444730D01*
G36*
X99822740Y-53191691D02*
G01*
X99677325Y-53236806D01*
X99557416Y-53285381D01*
X99441843Y-53342976D01*
X99407156Y-53388481D01*
X99452132Y-53430445D01*
X99531984Y-53462858D01*
X99740168Y-53508441D01*
X99934059Y-53501870D01*
X100090590Y-53445319D01*
X100141424Y-53405424D01*
X100223548Y-53309407D01*
X100231942Y-53248519D01*
X100162876Y-53210263D01*
X100077785Y-53192134D01*
X99945775Y-53178674D01*
X99822740Y-53191691D01*
G37*
X99822740Y-53191691D02*
X99677325Y-53236806D01*
X99557416Y-53285381D01*
X99441843Y-53342976D01*
X99407156Y-53388481D01*
X99452132Y-53430445D01*
X99531984Y-53462858D01*
X99740168Y-53508441D01*
X99934059Y-53501870D01*
X100090590Y-53445319D01*
X100141424Y-53405424D01*
X100223548Y-53309407D01*
X100231942Y-53248519D01*
X100162876Y-53210263D01*
X100077785Y-53192134D01*
X99945775Y-53178674D01*
X99822740Y-53191691D01*
G36*
X100205520Y-49284014D02*
G01*
X99957782Y-49339267D01*
X99754824Y-49457773D01*
X99604243Y-49626721D01*
X99513635Y-49833301D01*
X99490594Y-50064701D01*
X99542717Y-50308112D01*
X99565606Y-50363283D01*
X99690706Y-50542570D01*
X99872618Y-50678900D01*
X100090066Y-50762035D01*
X100321774Y-50781738D01*
X100411031Y-50770092D01*
X100597210Y-50696665D01*
X100770687Y-50564249D01*
X100901501Y-50396745D01*
X100917598Y-50365969D01*
X100992928Y-50125119D01*
X100992713Y-50054461D01*
X100816712Y-50054461D01*
X100788423Y-50235901D01*
X100698053Y-50397756D01*
X100575964Y-50502581D01*
X100383351Y-50577609D01*
X100192119Y-50568114D01*
X100029960Y-50491812D01*
X99873561Y-50347021D01*
X99793697Y-50171058D01*
X99780291Y-50044531D01*
X99817007Y-49854897D01*
X99917486Y-49700326D01*
X100064525Y-49591116D01*
X100240923Y-49537559D01*
X100429481Y-49549953D01*
X100537482Y-49591336D01*
X100690403Y-49712307D01*
X100783759Y-49873306D01*
X100816712Y-50054461D01*
X100992713Y-50054461D01*
X100992201Y-49886982D01*
X100919685Y-49666870D01*
X100779646Y-49480095D01*
X100641815Y-49376263D01*
X100513408Y-49310801D01*
X100396306Y-49282106D01*
X100248211Y-49281234D01*
X100205520Y-49284014D01*
G37*
X100205520Y-49284014D02*
X99957782Y-49339267D01*
X99754824Y-49457773D01*
X99604243Y-49626721D01*
X99513635Y-49833301D01*
X99490594Y-50064701D01*
X99542717Y-50308112D01*
X99565606Y-50363283D01*
X99690706Y-50542570D01*
X99872618Y-50678900D01*
X100090066Y-50762035D01*
X100321774Y-50781738D01*
X100411031Y-50770092D01*
X100597210Y-50696665D01*
X100770687Y-50564249D01*
X100901501Y-50396745D01*
X100917598Y-50365969D01*
X100992928Y-50125119D01*
X100992713Y-50054461D01*
X100816712Y-50054461D01*
X100788423Y-50235901D01*
X100698053Y-50397756D01*
X100575964Y-50502581D01*
X100383351Y-50577609D01*
X100192119Y-50568114D01*
X100029960Y-50491812D01*
X99873561Y-50347021D01*
X99793697Y-50171058D01*
X99780291Y-50044531D01*
X99817007Y-49854897D01*
X99917486Y-49700326D01*
X100064525Y-49591116D01*
X100240923Y-49537559D01*
X100429481Y-49549953D01*
X100537482Y-49591336D01*
X100690403Y-49712307D01*
X100783759Y-49873306D01*
X100816712Y-50054461D01*
X100992713Y-50054461D01*
X100992201Y-49886982D01*
X100919685Y-49666870D01*
X100779646Y-49480095D01*
X100641815Y-49376263D01*
X100513408Y-49310801D01*
X100396306Y-49282106D01*
X100248211Y-49281234D01*
X100205520Y-49284014D01*
G36*
X97946648Y-56034441D02*
G01*
X97698379Y-56190711D01*
X97514366Y-56367504D01*
X97401566Y-56556430D01*
X97366666Y-56733772D01*
X97389080Y-56856379D01*
X97446425Y-56992040D01*
X97523855Y-57116436D01*
X97606524Y-57205250D01*
X97672459Y-57234666D01*
X97735892Y-57219853D01*
X97747450Y-57202916D01*
X97726823Y-57150789D01*
X97674822Y-57055110D01*
X97642937Y-57001833D01*
X97557939Y-56819673D01*
X97538800Y-56672992D01*
X97575357Y-56570584D01*
X97657444Y-56521242D01*
X97774897Y-56533759D01*
X97917552Y-56616928D01*
X98000095Y-56692861D01*
X98097374Y-56788181D01*
X98150941Y-56823215D01*
X98170358Y-56803478D01*
X98171000Y-56791444D01*
X98143595Y-56695844D01*
X98108003Y-56642555D01*
X98038388Y-56523304D01*
X98015174Y-56390124D01*
X98042033Y-56276250D01*
X98064285Y-56246762D01*
X98172707Y-56183528D01*
X98292550Y-56201695D01*
X98426871Y-56301881D01*
X98448908Y-56324500D01*
X98568021Y-56433821D01*
X98646379Y-56472994D01*
X98677816Y-56446003D01*
X98656166Y-56356830D01*
X98590246Y-56233220D01*
X98450346Y-56070800D01*
X98283758Y-55985826D01*
X98098796Y-55980867D01*
X97946648Y-56034441D01*
G37*
X97946648Y-56034441D02*
X97698379Y-56190711D01*
X97514366Y-56367504D01*
X97401566Y-56556430D01*
X97366666Y-56733772D01*
X97389080Y-56856379D01*
X97446425Y-56992040D01*
X97523855Y-57116436D01*
X97606524Y-57205250D01*
X97672459Y-57234666D01*
X97735892Y-57219853D01*
X97747450Y-57202916D01*
X97726823Y-57150789D01*
X97674822Y-57055110D01*
X97642937Y-57001833D01*
X97557939Y-56819673D01*
X97538800Y-56672992D01*
X97575357Y-56570584D01*
X97657444Y-56521242D01*
X97774897Y-56533759D01*
X97917552Y-56616928D01*
X98000095Y-56692861D01*
X98097374Y-56788181D01*
X98150941Y-56823215D01*
X98170358Y-56803478D01*
X98171000Y-56791444D01*
X98143595Y-56695844D01*
X98108003Y-56642555D01*
X98038388Y-56523304D01*
X98015174Y-56390124D01*
X98042033Y-56276250D01*
X98064285Y-56246762D01*
X98172707Y-56183528D01*
X98292550Y-56201695D01*
X98426871Y-56301881D01*
X98448908Y-56324500D01*
X98568021Y-56433821D01*
X98646379Y-56472994D01*
X98677816Y-56446003D01*
X98656166Y-56356830D01*
X98590246Y-56233220D01*
X98450346Y-56070800D01*
X98283758Y-55985826D01*
X98098796Y-55980867D01*
X97946648Y-56034441D01*
G36*
X101103963Y-53548720D02*
G01*
X101055550Y-53636885D01*
X101000858Y-53751731D01*
X100951650Y-53867304D01*
X100919688Y-53957650D01*
X100915496Y-53996052D01*
X100993893Y-54023524D01*
X101115119Y-54017182D01*
X101247185Y-53982840D01*
X101358101Y-53926312D01*
X101375389Y-53912453D01*
X101494166Y-53807573D01*
X101324833Y-53660043D01*
X101226337Y-53577531D01*
X101155502Y-53524295D01*
X101134333Y-53513191D01*
X101103963Y-53548720D01*
G37*
X101103963Y-53548720D02*
X101055550Y-53636885D01*
X101000858Y-53751731D01*
X100951650Y-53867304D01*
X100919688Y-53957650D01*
X100915496Y-53996052D01*
X100993893Y-54023524D01*
X101115119Y-54017182D01*
X101247185Y-53982840D01*
X101358101Y-53926312D01*
X101375389Y-53912453D01*
X101494166Y-53807573D01*
X101324833Y-53660043D01*
X101226337Y-53577531D01*
X101155502Y-53524295D01*
X101134333Y-53513191D01*
X101103963Y-53548720D01*
G36*
X98650618Y-50805823D02*
G01*
X98461735Y-50956425D01*
X98434115Y-50985514D01*
X98266572Y-51208443D01*
X98153339Y-51461348D01*
X98089364Y-51759555D01*
X98069645Y-52091166D01*
X98073137Y-52280064D01*
X98084375Y-52443285D01*
X98101382Y-52558131D01*
X98113477Y-52594281D01*
X98142326Y-52629071D01*
X98172856Y-52616996D01*
X98215627Y-52547077D01*
X98271121Y-52430415D01*
X98331894Y-52271425D01*
X98372408Y-52115158D01*
X98382666Y-52025306D01*
X98413777Y-51807797D01*
X98498829Y-51619609D01*
X98625407Y-51472809D01*
X98781092Y-51379467D01*
X98953468Y-51351649D01*
X99056548Y-51370404D01*
X99240320Y-51470465D01*
X99393940Y-51634438D01*
X99505441Y-51843544D01*
X99562853Y-52079002D01*
X99568000Y-52172906D01*
X99568000Y-52406186D01*
X99805702Y-52518637D01*
X99975677Y-52615415D01*
X100147849Y-52738669D01*
X100229036Y-52808954D01*
X100334333Y-52916645D01*
X100390058Y-53001618D01*
X100411628Y-53095421D01*
X100414666Y-53188810D01*
X100404576Y-53329021D01*
X100362190Y-53430030D01*
X100274072Y-53531394D01*
X100117433Y-53649874D01*
X99941266Y-53702654D01*
X99729149Y-53692791D01*
X99583975Y-53659790D01*
X99414213Y-53613910D01*
X99306573Y-53591568D01*
X99241452Y-53594174D01*
X99199249Y-53623136D01*
X99160362Y-53679863D01*
X99153684Y-53690723D01*
X99116708Y-53760940D01*
X99114523Y-53813216D01*
X99158151Y-53857245D01*
X99258617Y-53902718D01*
X99426942Y-53959327D01*
X99477209Y-53975191D01*
X99760112Y-54036197D01*
X100058351Y-54053483D01*
X100331559Y-54025035D01*
X100357930Y-54019128D01*
X100598340Y-53926368D01*
X100774516Y-53778570D01*
X100885582Y-53576858D01*
X100930660Y-53322355D01*
X100931650Y-53283262D01*
X100904689Y-53006049D01*
X100815016Y-52775940D01*
X100657612Y-52586412D01*
X100427459Y-52430944D01*
X100198877Y-52330842D01*
X99885500Y-52215252D01*
X99855117Y-51878042D01*
X99798642Y-51513294D01*
X99700449Y-51220670D01*
X99558824Y-50997673D01*
X99372049Y-50841806D01*
X99138411Y-50750572D01*
X99071461Y-50737403D01*
X98849814Y-50734390D01*
X98650618Y-50805823D01*
G37*
X98650618Y-50805823D02*
X98461735Y-50956425D01*
X98434115Y-50985514D01*
X98266572Y-51208443D01*
X98153339Y-51461348D01*
X98089364Y-51759555D01*
X98069645Y-52091166D01*
X98073137Y-52280064D01*
X98084375Y-52443285D01*
X98101382Y-52558131D01*
X98113477Y-52594281D01*
X98142326Y-52629071D01*
X98172856Y-52616996D01*
X98215627Y-52547077D01*
X98271121Y-52430415D01*
X98331894Y-52271425D01*
X98372408Y-52115158D01*
X98382666Y-52025306D01*
X98413777Y-51807797D01*
X98498829Y-51619609D01*
X98625407Y-51472809D01*
X98781092Y-51379467D01*
X98953468Y-51351649D01*
X99056548Y-51370404D01*
X99240320Y-51470465D01*
X99393940Y-51634438D01*
X99505441Y-51843544D01*
X99562853Y-52079002D01*
X99568000Y-52172906D01*
X99568000Y-52406186D01*
X99805702Y-52518637D01*
X99975677Y-52615415D01*
X100147849Y-52738669D01*
X100229036Y-52808954D01*
X100334333Y-52916645D01*
X100390058Y-53001618D01*
X100411628Y-53095421D01*
X100414666Y-53188810D01*
X100404576Y-53329021D01*
X100362190Y-53430030D01*
X100274072Y-53531394D01*
X100117433Y-53649874D01*
X99941266Y-53702654D01*
X99729149Y-53692791D01*
X99583975Y-53659790D01*
X99414213Y-53613910D01*
X99306573Y-53591568D01*
X99241452Y-53594174D01*
X99199249Y-53623136D01*
X99160362Y-53679863D01*
X99153684Y-53690723D01*
X99116708Y-53760940D01*
X99114523Y-53813216D01*
X99158151Y-53857245D01*
X99258617Y-53902718D01*
X99426942Y-53959327D01*
X99477209Y-53975191D01*
X99760112Y-54036197D01*
X100058351Y-54053483D01*
X100331559Y-54025035D01*
X100357930Y-54019128D01*
X100598340Y-53926368D01*
X100774516Y-53778570D01*
X100885582Y-53576858D01*
X100930660Y-53322355D01*
X100931650Y-53283262D01*
X100904689Y-53006049D01*
X100815016Y-52775940D01*
X100657612Y-52586412D01*
X100427459Y-52430944D01*
X100198877Y-52330842D01*
X99885500Y-52215252D01*
X99855117Y-51878042D01*
X99798642Y-51513294D01*
X99700449Y-51220670D01*
X99558824Y-50997673D01*
X99372049Y-50841806D01*
X99138411Y-50750572D01*
X99071461Y-50737403D01*
X98849814Y-50734390D01*
X98650618Y-50805823D01*
G36*
X101981831Y-51871562D02*
G01*
X101784393Y-51929779D01*
X101608733Y-52036619D01*
X101468227Y-52190024D01*
X101376254Y-52387937D01*
X101346000Y-52609742D01*
X101369239Y-52834856D01*
X101447598Y-53017096D01*
X101588824Y-53182083D01*
X101787064Y-53315461D01*
X102014138Y-53374742D01*
X102254485Y-53357925D01*
X102439543Y-53291497D01*
X102635237Y-53150577D01*
X102774827Y-52959018D01*
X102850448Y-52735258D01*
X102850780Y-52714399D01*
X102608831Y-52714399D01*
X102546321Y-52884803D01*
X102427081Y-53020593D01*
X102259466Y-53106200D01*
X102103126Y-53128123D01*
X101918335Y-53103973D01*
X101791079Y-53036558D01*
X101651346Y-52880782D01*
X101583318Y-52702843D01*
X101583723Y-52519910D01*
X101649288Y-52349148D01*
X101776740Y-52207723D01*
X101962805Y-52112801D01*
X101967473Y-52111384D01*
X102163870Y-52093331D01*
X102346026Y-52152336D01*
X102494884Y-52280926D01*
X102530248Y-52332035D01*
X102606258Y-52524954D01*
X102608831Y-52714399D01*
X102850780Y-52714399D01*
X102854238Y-52497735D01*
X102827472Y-52381852D01*
X102721809Y-52166085D01*
X102571035Y-52009230D01*
X102388530Y-51909230D01*
X102187669Y-51864027D01*
X101981831Y-51871562D01*
G37*
X101981831Y-51871562D02*
X101784393Y-51929779D01*
X101608733Y-52036619D01*
X101468227Y-52190024D01*
X101376254Y-52387937D01*
X101346000Y-52609742D01*
X101369239Y-52834856D01*
X101447598Y-53017096D01*
X101588824Y-53182083D01*
X101787064Y-53315461D01*
X102014138Y-53374742D01*
X102254485Y-53357925D01*
X102439543Y-53291497D01*
X102635237Y-53150577D01*
X102774827Y-52959018D01*
X102850448Y-52735258D01*
X102850780Y-52714399D01*
X102608831Y-52714399D01*
X102546321Y-52884803D01*
X102427081Y-53020593D01*
X102259466Y-53106200D01*
X102103126Y-53128123D01*
X101918335Y-53103973D01*
X101791079Y-53036558D01*
X101651346Y-52880782D01*
X101583318Y-52702843D01*
X101583723Y-52519910D01*
X101649288Y-52349148D01*
X101776740Y-52207723D01*
X101962805Y-52112801D01*
X101967473Y-52111384D01*
X102163870Y-52093331D01*
X102346026Y-52152336D01*
X102494884Y-52280926D01*
X102530248Y-52332035D01*
X102606258Y-52524954D01*
X102608831Y-52714399D01*
X102850780Y-52714399D01*
X102854238Y-52497735D01*
X102827472Y-52381852D01*
X102721809Y-52166085D01*
X102571035Y-52009230D01*
X102388530Y-51909230D01*
X102187669Y-51864027D01*
X101981831Y-51871562D01*
G36*
X101450829Y-49501566D02*
G01*
X101475373Y-49600512D01*
X101498833Y-49680141D01*
X101547605Y-49974137D01*
X101520614Y-50275643D01*
X101420385Y-50559933D01*
X101406214Y-50586863D01*
X101263974Y-50776943D01*
X101057348Y-50957306D01*
X100806443Y-51112776D01*
X100577131Y-51212691D01*
X100453704Y-51262367D01*
X100396039Y-51305998D01*
X100387649Y-51357634D01*
X100390789Y-51371500D01*
X100405087Y-51465999D01*
X100413389Y-51600054D01*
X100414165Y-51646666D01*
X100414819Y-51837166D01*
X100961087Y-52106724D01*
X101112311Y-51896231D01*
X101325820Y-51666835D01*
X101596274Y-51483580D01*
X101872267Y-51370017D01*
X102127321Y-51317730D01*
X102357219Y-51326999D01*
X102584136Y-51401918D01*
X102830251Y-51546581D01*
X102830757Y-51546928D01*
X103051720Y-51698924D01*
X103021217Y-51090712D01*
X102999462Y-50761457D01*
X102964536Y-50502595D01*
X102906403Y-50299910D01*
X102815028Y-50139187D01*
X102680374Y-50006211D01*
X102492407Y-49886765D01*
X102241089Y-49766634D01*
X102021149Y-49674134D01*
X101820437Y-49593260D01*
X101649606Y-49526707D01*
X101522888Y-49479842D01*
X101454517Y-49458035D01*
X101446728Y-49457494D01*
X101450829Y-49501566D01*
G37*
X101450829Y-49501566D02*
X101475373Y-49600512D01*
X101498833Y-49680141D01*
X101547605Y-49974137D01*
X101520614Y-50275643D01*
X101420385Y-50559933D01*
X101406214Y-50586863D01*
X101263974Y-50776943D01*
X101057348Y-50957306D01*
X100806443Y-51112776D01*
X100577131Y-51212691D01*
X100453704Y-51262367D01*
X100396039Y-51305998D01*
X100387649Y-51357634D01*
X100390789Y-51371500D01*
X100405087Y-51465999D01*
X100413389Y-51600054D01*
X100414165Y-51646666D01*
X100414819Y-51837166D01*
X100961087Y-52106724D01*
X101112311Y-51896231D01*
X101325820Y-51666835D01*
X101596274Y-51483580D01*
X101872267Y-51370017D01*
X102127321Y-51317730D01*
X102357219Y-51326999D01*
X102584136Y-51401918D01*
X102830251Y-51546581D01*
X102830757Y-51546928D01*
X103051720Y-51698924D01*
X103021217Y-51090712D01*
X102999462Y-50761457D01*
X102964536Y-50502595D01*
X102906403Y-50299910D01*
X102815028Y-50139187D01*
X102680374Y-50006211D01*
X102492407Y-49886765D01*
X102241089Y-49766634D01*
X102021149Y-49674134D01*
X101820437Y-49593260D01*
X101649606Y-49526707D01*
X101522888Y-49479842D01*
X101454517Y-49458035D01*
X101446728Y-49457494D01*
X101450829Y-49501566D01*
G36*
X98333184Y-55283186D02*
G01*
X98241690Y-55381174D01*
X98186671Y-55514107D01*
X98179524Y-55617365D01*
X98198618Y-55714264D01*
X98250496Y-55772406D01*
X98360110Y-55819585D01*
X98361500Y-55820067D01*
X98490305Y-55861283D01*
X98577337Y-55871650D01*
X98660178Y-55849829D01*
X98753083Y-55806112D01*
X98851014Y-55749554D01*
X98884058Y-55693240D01*
X98860383Y-55608487D01*
X98828012Y-55542968D01*
X98730086Y-55406847D01*
X98603746Y-55301587D01*
X98475776Y-55247943D01*
X98443530Y-55245000D01*
X98333184Y-55283186D01*
G37*
X98333184Y-55283186D02*
X98241690Y-55381174D01*
X98186671Y-55514107D01*
X98179524Y-55617365D01*
X98198618Y-55714264D01*
X98250496Y-55772406D01*
X98360110Y-55819585D01*
X98361500Y-55820067D01*
X98490305Y-55861283D01*
X98577337Y-55871650D01*
X98660178Y-55849829D01*
X98753083Y-55806112D01*
X98851014Y-55749554D01*
X98884058Y-55693240D01*
X98860383Y-55608487D01*
X98828012Y-55542968D01*
X98730086Y-55406847D01*
X98603746Y-55301587D01*
X98475776Y-55247943D01*
X98443530Y-55245000D01*
X98333184Y-55283186D01*
G36*
X98799807Y-51580411D02*
G01*
X98695824Y-51652142D01*
X98611621Y-51781166D01*
X98577641Y-51856309D01*
X98581369Y-51886979D01*
X98631054Y-51871596D01*
X98734945Y-51808580D01*
X98841685Y-51737086D01*
X99067871Y-51583166D01*
X98934170Y-51569694D01*
X98799807Y-51580411D01*
G37*
X98799807Y-51580411D02*
X98695824Y-51652142D01*
X98611621Y-51781166D01*
X98577641Y-51856309D01*
X98581369Y-51886979D01*
X98631054Y-51871596D01*
X98734945Y-51808580D01*
X98841685Y-51737086D01*
X99067871Y-51583166D01*
X98934170Y-51569694D01*
X98799807Y-51580411D01*
G36*
X98827356Y-50136340D02*
G01*
X98734994Y-50191451D01*
X98645431Y-50280673D01*
X98575738Y-50392222D01*
X98554373Y-50450179D01*
X98536202Y-50564980D01*
X98564391Y-50611077D01*
X98637852Y-50586715D01*
X98638688Y-50586188D01*
X98720132Y-50560231D01*
X98840259Y-50547034D01*
X98860835Y-50546648D01*
X99021503Y-50546000D01*
X98995120Y-50387250D01*
X98973547Y-50269128D01*
X98954622Y-50183997D01*
X98952197Y-50175583D01*
X98905448Y-50127123D01*
X98827356Y-50136340D01*
G37*
X98827356Y-50136340D02*
X98734994Y-50191451D01*
X98645431Y-50280673D01*
X98575738Y-50392222D01*
X98554373Y-50450179D01*
X98536202Y-50564980D01*
X98564391Y-50611077D01*
X98637852Y-50586715D01*
X98638688Y-50586188D01*
X98720132Y-50560231D01*
X98840259Y-50547034D01*
X98860835Y-50546648D01*
X99021503Y-50546000D01*
X98995120Y-50387250D01*
X98973547Y-50269128D01*
X98954622Y-50183997D01*
X98952197Y-50175583D01*
X98905448Y-50127123D01*
X98827356Y-50136340D01*
G36*
X101938489Y-52314908D02*
G01*
X101825560Y-52411261D01*
X101772735Y-52565664D01*
X101769333Y-52626666D01*
X101804123Y-52783877D01*
X101895282Y-52896258D01*
X102022994Y-52955915D01*
X102167444Y-52954956D01*
X102308815Y-52885485D01*
X102342757Y-52855090D01*
X102428206Y-52719845D01*
X102443304Y-52574645D01*
X102396493Y-52439983D01*
X102296213Y-52336352D01*
X102150906Y-52284245D01*
X102106576Y-52281666D01*
X101938489Y-52314908D01*
G37*
X101938489Y-52314908D02*
X101825560Y-52411261D01*
X101772735Y-52565664D01*
X101769333Y-52626666D01*
X101804123Y-52783877D01*
X101895282Y-52896258D01*
X102022994Y-52955915D01*
X102167444Y-52954956D01*
X102308815Y-52885485D01*
X102342757Y-52855090D01*
X102428206Y-52719845D01*
X102443304Y-52574645D01*
X102396493Y-52439983D01*
X102296213Y-52336352D01*
X102150906Y-52284245D01*
X102106576Y-52281666D01*
X101938489Y-52314908D01*
G36*
X101498275Y-54059654D02*
G01*
X101388127Y-54188059D01*
X101325197Y-54298538D01*
X101291518Y-54427193D01*
X101281891Y-54494378D01*
X101272395Y-54799769D01*
X101325259Y-55055933D01*
X101402471Y-55208291D01*
X101500780Y-55335618D01*
X101581648Y-55390516D01*
X101661696Y-55378073D01*
X101746638Y-55313624D01*
X101896102Y-55211026D01*
X102069806Y-55144452D01*
X102234028Y-55125119D01*
X102289312Y-55133077D01*
X102455247Y-55214353D01*
X102570150Y-55353904D01*
X102627086Y-55537727D01*
X102619118Y-55751820D01*
X102612115Y-55784750D01*
X102593896Y-55894801D01*
X102612703Y-55959592D01*
X102667340Y-56007000D01*
X102741102Y-56066537D01*
X102852725Y-56166749D01*
X102980566Y-56288078D01*
X103006947Y-56313916D01*
X103122095Y-56426036D01*
X103211776Y-56510870D01*
X103261085Y-56554409D01*
X103265885Y-56557333D01*
X103291617Y-56524111D01*
X103342334Y-56440549D01*
X103366120Y-56398583D01*
X103497590Y-56085031D01*
X103573027Y-55732023D01*
X103590320Y-55365375D01*
X103547360Y-55010906D01*
X103494845Y-54823467D01*
X103366672Y-54561926D01*
X103177418Y-54310238D01*
X102949177Y-54094077D01*
X102756948Y-53965920D01*
X102626851Y-53901677D01*
X102525169Y-53876225D01*
X102409121Y-53882531D01*
X102330250Y-53895779D01*
X102081077Y-53915042D01*
X101896664Y-53898090D01*
X101685329Y-53859678D01*
X101498275Y-54059654D01*
G37*
X101498275Y-54059654D02*
X101388127Y-54188059D01*
X101325197Y-54298538D01*
X101291518Y-54427193D01*
X101281891Y-54494378D01*
X101272395Y-54799769D01*
X101325259Y-55055933D01*
X101402471Y-55208291D01*
X101500780Y-55335618D01*
X101581648Y-55390516D01*
X101661696Y-55378073D01*
X101746638Y-55313624D01*
X101896102Y-55211026D01*
X102069806Y-55144452D01*
X102234028Y-55125119D01*
X102289312Y-55133077D01*
X102455247Y-55214353D01*
X102570150Y-55353904D01*
X102627086Y-55537727D01*
X102619118Y-55751820D01*
X102612115Y-55784750D01*
X102593896Y-55894801D01*
X102612703Y-55959592D01*
X102667340Y-56007000D01*
X102741102Y-56066537D01*
X102852725Y-56166749D01*
X102980566Y-56288078D01*
X103006947Y-56313916D01*
X103122095Y-56426036D01*
X103211776Y-56510870D01*
X103261085Y-56554409D01*
X103265885Y-56557333D01*
X103291617Y-56524111D01*
X103342334Y-56440549D01*
X103366120Y-56398583D01*
X103497590Y-56085031D01*
X103573027Y-55732023D01*
X103590320Y-55365375D01*
X103547360Y-55010906D01*
X103494845Y-54823467D01*
X103366672Y-54561926D01*
X103177418Y-54310238D01*
X102949177Y-54094077D01*
X102756948Y-53965920D01*
X102626851Y-53901677D01*
X102525169Y-53876225D01*
X102409121Y-53882531D01*
X102330250Y-53895779D01*
X102081077Y-53915042D01*
X101896664Y-53898090D01*
X101685329Y-53859678D01*
X101498275Y-54059654D01*
G36*
X98796462Y-55990086D02*
G01*
X98762036Y-56007872D01*
X98711973Y-56040327D01*
X98705832Y-56079545D01*
X98744023Y-56153725D01*
X98764661Y-56187789D01*
X98830760Y-56342784D01*
X98842992Y-56487692D01*
X98800849Y-56599314D01*
X98774250Y-56625403D01*
X98681694Y-56674127D01*
X98591463Y-56665220D01*
X98485342Y-56593312D01*
X98405545Y-56516753D01*
X98291346Y-56413022D01*
X98221403Y-56376751D01*
X98200012Y-56405888D01*
X98231469Y-56498382D01*
X98274955Y-56579114D01*
X98358944Y-56749833D01*
X98378371Y-56874724D01*
X98331355Y-56964876D01*
X98216015Y-57031377D01*
X98197022Y-57038464D01*
X98128106Y-57036872D01*
X98040524Y-56979635D01*
X97955301Y-56896869D01*
X97858464Y-56802830D01*
X97780659Y-56741017D01*
X97749362Y-56726666D01*
X97716805Y-56731205D01*
X97712223Y-56756305D01*
X97740463Y-56819192D01*
X97806367Y-56937090D01*
X97810657Y-56944595D01*
X97892431Y-57118317D01*
X97909848Y-57248017D01*
X97862971Y-57344616D01*
X97813239Y-57385368D01*
X97690398Y-57430390D01*
X97569808Y-57397484D01*
X97442731Y-57284096D01*
X97434759Y-57274737D01*
X97362227Y-57194720D01*
X97313484Y-57152134D01*
X97307601Y-57150000D01*
X97277290Y-57188339D01*
X97239419Y-57289294D01*
X97199126Y-57431772D01*
X97161548Y-57594680D01*
X97131824Y-57756926D01*
X97115091Y-57897416D01*
X97113169Y-57948209D01*
X97151357Y-58307472D01*
X97258967Y-58653295D01*
X97427841Y-58966313D01*
X97649817Y-59227159D01*
X97653582Y-59230643D01*
X97891509Y-59408395D01*
X98197782Y-59571840D01*
X98556494Y-59715045D01*
X98951739Y-59832076D01*
X99367611Y-59916999D01*
X99566398Y-59944217D01*
X99825166Y-59971259D01*
X100008810Y-59983735D01*
X100125634Y-59981503D01*
X100183943Y-59964418D01*
X100192423Y-59933436D01*
X100143353Y-59896269D01*
X100039686Y-59863444D01*
X99982379Y-59853015D01*
X99771258Y-59803075D01*
X99626839Y-59726123D01*
X99554149Y-59627266D01*
X99558210Y-59511615D01*
X99588372Y-59452438D01*
X99709998Y-59336858D01*
X99891088Y-59274840D01*
X100025839Y-59262414D01*
X100181833Y-59258161D01*
X100012500Y-59220262D01*
X99877760Y-59189892D01*
X99762738Y-59163622D01*
X99746840Y-59159938D01*
X99617109Y-59096383D01*
X99520883Y-58988766D01*
X99483333Y-58865475D01*
X99520245Y-58755636D01*
X99632608Y-58672628D01*
X99822862Y-58614995D01*
X99932106Y-58597269D01*
X100181833Y-58564340D01*
X100020324Y-58509143D01*
X99831751Y-58475167D01*
X99631594Y-58503869D01*
X99403587Y-58598236D01*
X99336275Y-58634720D01*
X99116827Y-58731264D01*
X98929495Y-58752065D01*
X98767365Y-58696514D01*
X98630445Y-58572534D01*
X98547778Y-58437661D01*
X98470626Y-58254680D01*
X98411643Y-58059850D01*
X98383487Y-57889426D01*
X98382666Y-57862696D01*
X98387333Y-57770749D01*
X98410317Y-57699058D01*
X98465098Y-57628565D01*
X98565152Y-57540213D01*
X98669038Y-57457776D01*
X98741023Y-57357288D01*
X98804158Y-57178691D01*
X98857009Y-56928219D01*
X98898140Y-56612106D01*
X98917705Y-56377416D01*
X98929100Y-56175501D01*
X98927309Y-56046815D01*
X98907696Y-55980354D01*
X98865626Y-55965113D01*
X98796462Y-55990086D01*
G37*
X98796462Y-55990086D02*
X98762036Y-56007872D01*
X98711973Y-56040327D01*
X98705832Y-56079545D01*
X98744023Y-56153725D01*
X98764661Y-56187789D01*
X98830760Y-56342784D01*
X98842992Y-56487692D01*
X98800849Y-56599314D01*
X98774250Y-56625403D01*
X98681694Y-56674127D01*
X98591463Y-56665220D01*
X98485342Y-56593312D01*
X98405545Y-56516753D01*
X98291346Y-56413022D01*
X98221403Y-56376751D01*
X98200012Y-56405888D01*
X98231469Y-56498382D01*
X98274955Y-56579114D01*
X98358944Y-56749833D01*
X98378371Y-56874724D01*
X98331355Y-56964876D01*
X98216015Y-57031377D01*
X98197022Y-57038464D01*
X98128106Y-57036872D01*
X98040524Y-56979635D01*
X97955301Y-56896869D01*
X97858464Y-56802830D01*
X97780659Y-56741017D01*
X97749362Y-56726666D01*
X97716805Y-56731205D01*
X97712223Y-56756305D01*
X97740463Y-56819192D01*
X97806367Y-56937090D01*
X97810657Y-56944595D01*
X97892431Y-57118317D01*
X97909848Y-57248017D01*
X97862971Y-57344616D01*
X97813239Y-57385368D01*
X97690398Y-57430390D01*
X97569808Y-57397484D01*
X97442731Y-57284096D01*
X97434759Y-57274737D01*
X97362227Y-57194720D01*
X97313484Y-57152134D01*
X97307601Y-57150000D01*
X97277290Y-57188339D01*
X97239419Y-57289294D01*
X97199126Y-57431772D01*
X97161548Y-57594680D01*
X97131824Y-57756926D01*
X97115091Y-57897416D01*
X97113169Y-57948209D01*
X97151357Y-58307472D01*
X97258967Y-58653295D01*
X97427841Y-58966313D01*
X97649817Y-59227159D01*
X97653582Y-59230643D01*
X97891509Y-59408395D01*
X98197782Y-59571840D01*
X98556494Y-59715045D01*
X98951739Y-59832076D01*
X99367611Y-59916999D01*
X99566398Y-59944217D01*
X99825166Y-59971259D01*
X100008810Y-59983735D01*
X100125634Y-59981503D01*
X100183943Y-59964418D01*
X100192423Y-59933436D01*
X100143353Y-59896269D01*
X100039686Y-59863444D01*
X99982379Y-59853015D01*
X99771258Y-59803075D01*
X99626839Y-59726123D01*
X99554149Y-59627266D01*
X99558210Y-59511615D01*
X99588372Y-59452438D01*
X99709998Y-59336858D01*
X99891088Y-59274840D01*
X100025839Y-59262414D01*
X100181833Y-59258161D01*
X100012500Y-59220262D01*
X99877760Y-59189892D01*
X99762738Y-59163622D01*
X99746840Y-59159938D01*
X99617109Y-59096383D01*
X99520883Y-58988766D01*
X99483333Y-58865475D01*
X99520245Y-58755636D01*
X99632608Y-58672628D01*
X99822862Y-58614995D01*
X99932106Y-58597269D01*
X100181833Y-58564340D01*
X100020324Y-58509143D01*
X99831751Y-58475167D01*
X99631594Y-58503869D01*
X99403587Y-58598236D01*
X99336275Y-58634720D01*
X99116827Y-58731264D01*
X98929495Y-58752065D01*
X98767365Y-58696514D01*
X98630445Y-58572534D01*
X98547778Y-58437661D01*
X98470626Y-58254680D01*
X98411643Y-58059850D01*
X98383487Y-57889426D01*
X98382666Y-57862696D01*
X98387333Y-57770749D01*
X98410317Y-57699058D01*
X98465098Y-57628565D01*
X98565152Y-57540213D01*
X98669038Y-57457776D01*
X98741023Y-57357288D01*
X98804158Y-57178691D01*
X98857009Y-56928219D01*
X98898140Y-56612106D01*
X98917705Y-56377416D01*
X98929100Y-56175501D01*
X98927309Y-56046815D01*
X98907696Y-55980354D01*
X98865626Y-55965113D01*
X98796462Y-55990086D01*
D13*
X95041500Y-99846500D02*
X95041500Y-95846500D01*
X106841500Y-95846500D02*
X106841500Y-99846500D01*
X100941500Y-98346500D02*
X100941500Y-97346500D01*
X101441500Y-97846500D02*
X100441500Y-97846500D01*
X97441500Y-91746500D02*
X95041500Y-91746500D01*
X102241500Y-91746500D02*
X99641500Y-91746500D01*
X106841500Y-91746500D02*
X104441500Y-91746500D01*
X105041500Y-105046500D02*
X104741500Y-105346500D01*
X105041500Y-105646500D02*
X105041500Y-105046500D01*
X104741500Y-105346500D02*
X105041500Y-105646500D01*
X106841500Y-103946500D02*
X95041500Y-103946500D01*
X106841500Y-99846500D02*
X106841500Y-103946500D01*
X95041500Y-99846500D02*
X95041500Y-103946500D01*
X95041500Y-91746500D02*
X95041500Y-95846500D01*
X106841500Y-95846500D02*
X106841500Y-91746500D01*
X103941500Y-97846500D02*
G75*
G03*
X103941500Y-97846500I-3000000J0D01*
G01*
D10*
X83150000Y-39300000D02*
X83650000Y-39300000D01*
X89150000Y-39300000D02*
X89150000Y-51300000D01*
X89150000Y-51300000D02*
X83150000Y-51300000D01*
X83150000Y-51300000D02*
X83150000Y-39300000D01*
X83650000Y-39300000D02*
X83650000Y-37400000D01*
X83700000Y-37400000D02*
X88650000Y-37400000D01*
X89150000Y-39300000D02*
X88650000Y-39300000D01*
X88650000Y-39300000D02*
X88650000Y-37400000D01*
X128750000Y-50550000D02*
X128750000Y-51550000D01*
X128750000Y-44950000D02*
X128750000Y-44050000D01*
X128750000Y-47350000D02*
X129450000Y-48250000D01*
X129450000Y-48250000D02*
X128050000Y-48250000D01*
X128050000Y-48250000D02*
X128750000Y-47350000D01*
X129450000Y-47350000D02*
X128050000Y-47350000D01*
X113700000Y-125124871D02*
X114200000Y-125990897D01*
X110900000Y-120275129D02*
X110450000Y-119495706D01*
X112100000Y-122353590D02*
X113156218Y-122783013D01*
X113156218Y-122783013D02*
X111943782Y-123483013D01*
X111943782Y-123483013D02*
X112100000Y-122353590D01*
X112706218Y-122003590D02*
X111493782Y-122703590D01*
X131250000Y-109800000D02*
X131250000Y-110800000D01*
X131250000Y-104200000D02*
X131250000Y-103300000D01*
X131250000Y-106600000D02*
X131950000Y-107500000D01*
X131950000Y-107500000D02*
X130550000Y-107500000D01*
X130550000Y-107500000D02*
X131250000Y-106600000D01*
X131950000Y-106600000D02*
X130550000Y-106600000D01*
X128750000Y-71800000D02*
X128750000Y-72800000D01*
X128750000Y-66200000D02*
X128750000Y-65300000D01*
X128750000Y-68600000D02*
X129450000Y-69500000D01*
X129450000Y-69500000D02*
X128050000Y-69500000D01*
X128050000Y-69500000D02*
X128750000Y-68600000D01*
X129450000Y-68600000D02*
X128050000Y-68600000D01*
X131250000Y-50550000D02*
X131250000Y-51550000D01*
X131250000Y-44950000D02*
X131250000Y-44050000D01*
X131250000Y-47350000D02*
X131950000Y-48250000D01*
X131950000Y-48250000D02*
X130550000Y-48250000D01*
X130550000Y-48250000D02*
X131250000Y-47350000D01*
X131950000Y-47350000D02*
X130550000Y-47350000D01*
X149250000Y-48050000D02*
X149250000Y-49050000D01*
X149250000Y-42450000D02*
X149250000Y-41550000D01*
X149250000Y-44850000D02*
X149950000Y-45750000D01*
X149950000Y-45750000D02*
X148550000Y-45750000D01*
X148550000Y-45750000D02*
X149250000Y-44850000D01*
X149950000Y-44850000D02*
X148550000Y-44850000D01*
X168250000Y-50300000D02*
X168250000Y-51300000D01*
X168250000Y-44700000D02*
X168250000Y-43800000D01*
X168250000Y-47100000D02*
X168950000Y-48000000D01*
X168950000Y-48000000D02*
X167550000Y-48000000D01*
X167550000Y-48000000D02*
X168250000Y-47100000D01*
X168950000Y-47100000D02*
X167550000Y-47100000D01*
X187250000Y-55300000D02*
X187250000Y-56300000D01*
X187250000Y-49700000D02*
X187250000Y-48800000D01*
X187250000Y-52100000D02*
X187950000Y-53000000D01*
X187950000Y-53000000D02*
X186550000Y-53000000D01*
X186550000Y-53000000D02*
X187250000Y-52100000D01*
X187950000Y-52100000D02*
X186550000Y-52100000D01*
X206250000Y-55300000D02*
X206250000Y-56300000D01*
X206250000Y-49700000D02*
X206250000Y-48800000D01*
X206250000Y-52100000D02*
X206950000Y-53000000D01*
X206950000Y-53000000D02*
X205550000Y-53000000D01*
X205550000Y-53000000D02*
X206250000Y-52100000D01*
X206950000Y-52100000D02*
X205550000Y-52100000D01*
X131252540Y-71752540D02*
X131252540Y-72752540D01*
X131252540Y-66152540D02*
X131252540Y-65252540D01*
X131252540Y-68552540D02*
X131952540Y-69452540D01*
X131952540Y-69452540D02*
X130552540Y-69452540D01*
X130552540Y-69452540D02*
X131252540Y-68552540D01*
X131952540Y-68552540D02*
X130552540Y-68552540D01*
X149000000Y-67300000D02*
X149000000Y-68300000D01*
X149000000Y-61700000D02*
X149000000Y-60800000D01*
X149000000Y-64100000D02*
X149700000Y-65000000D01*
X149700000Y-65000000D02*
X148300000Y-65000000D01*
X148300000Y-65000000D02*
X149000000Y-64100000D01*
X149700000Y-64100000D02*
X148300000Y-64100000D01*
X168250000Y-69300000D02*
X168250000Y-70300000D01*
X168250000Y-63700000D02*
X168250000Y-62800000D01*
X168250000Y-66100000D02*
X168950000Y-67000000D01*
X168950000Y-67000000D02*
X167550000Y-67000000D01*
X167550000Y-67000000D02*
X168250000Y-66100000D01*
X168950000Y-66100000D02*
X167550000Y-66100000D01*
X187250000Y-74050000D02*
X187250000Y-75050000D01*
X187250000Y-68450000D02*
X187250000Y-67550000D01*
X187250000Y-70850000D02*
X187950000Y-71750000D01*
X187950000Y-71750000D02*
X186550000Y-71750000D01*
X186550000Y-71750000D02*
X187250000Y-70850000D01*
X187950000Y-70850000D02*
X186550000Y-70850000D01*
X206250000Y-74050000D02*
X206250000Y-75050000D01*
X206250000Y-68450000D02*
X206250000Y-67550000D01*
X206250000Y-70850000D02*
X206950000Y-71750000D01*
X206950000Y-71750000D02*
X205550000Y-71750000D01*
X205550000Y-71750000D02*
X206250000Y-70850000D01*
X206950000Y-70850000D02*
X205550000Y-70850000D01*
X128750000Y-88550000D02*
X128750000Y-89550000D01*
X128750000Y-82950000D02*
X128750000Y-82050000D01*
X128750000Y-85350000D02*
X129450000Y-86250000D01*
X129450000Y-86250000D02*
X128050000Y-86250000D01*
X128050000Y-86250000D02*
X128750000Y-85350000D01*
X129450000Y-85350000D02*
X128050000Y-85350000D01*
X131250000Y-88550000D02*
X131250000Y-89550000D01*
X131250000Y-82950000D02*
X131250000Y-82050000D01*
X131250000Y-85350000D02*
X131950000Y-86250000D01*
X131950000Y-86250000D02*
X130550000Y-86250000D01*
X130550000Y-86250000D02*
X131250000Y-85350000D01*
X131950000Y-85350000D02*
X130550000Y-85350000D01*
X149000000Y-86300000D02*
X149000000Y-87300000D01*
X149000000Y-80700000D02*
X149000000Y-79800000D01*
X149000000Y-83100000D02*
X149700000Y-84000000D01*
X149700000Y-84000000D02*
X148300000Y-84000000D01*
X148300000Y-84000000D02*
X149000000Y-83100000D01*
X149700000Y-83100000D02*
X148300000Y-83100000D01*
X168250000Y-88550000D02*
X168250000Y-89550000D01*
X168250000Y-82950000D02*
X168250000Y-82050000D01*
X168250000Y-85350000D02*
X168950000Y-86250000D01*
X168950000Y-86250000D02*
X167550000Y-86250000D01*
X167550000Y-86250000D02*
X168250000Y-85350000D01*
X168950000Y-85350000D02*
X167550000Y-85350000D01*
X187250000Y-93550000D02*
X187250000Y-94550000D01*
X187250000Y-87950000D02*
X187250000Y-87050000D01*
X187250000Y-90350000D02*
X187950000Y-91250000D01*
X187950000Y-91250000D02*
X186550000Y-91250000D01*
X186550000Y-91250000D02*
X187250000Y-90350000D01*
X187950000Y-90350000D02*
X186550000Y-90350000D01*
X206250000Y-93550000D02*
X206250000Y-94550000D01*
X206250000Y-87950000D02*
X206250000Y-87050000D01*
X206250000Y-90350000D02*
X206950000Y-91250000D01*
X206950000Y-91250000D02*
X205550000Y-91250000D01*
X205550000Y-91250000D02*
X206250000Y-90350000D01*
X206950000Y-90350000D02*
X205550000Y-90350000D01*
X128800000Y-109800000D02*
X128800000Y-110800000D01*
X128800000Y-104200000D02*
X128800000Y-103300000D01*
X128800000Y-106600000D02*
X129500000Y-107500000D01*
X129500000Y-107500000D02*
X128100000Y-107500000D01*
X128100000Y-107500000D02*
X128800000Y-106600000D01*
X129500000Y-106600000D02*
X128100000Y-106600000D01*
X149000000Y-105300000D02*
X149000000Y-106300000D01*
X149000000Y-99700000D02*
X149000000Y-98800000D01*
X149000000Y-102100000D02*
X149700000Y-103000000D01*
X149700000Y-103000000D02*
X148300000Y-103000000D01*
X148300000Y-103000000D02*
X149000000Y-102100000D01*
X149700000Y-102100000D02*
X148300000Y-102100000D01*
X168250000Y-107550000D02*
X168250000Y-108550000D01*
X168250000Y-101950000D02*
X168250000Y-101050000D01*
X168250000Y-104350000D02*
X168950000Y-105250000D01*
X168950000Y-105250000D02*
X167550000Y-105250000D01*
X167550000Y-105250000D02*
X168250000Y-104350000D01*
X168950000Y-104350000D02*
X167550000Y-104350000D01*
X187250000Y-112300000D02*
X187250000Y-113300000D01*
X187250000Y-106700000D02*
X187250000Y-105800000D01*
X187250000Y-109100000D02*
X187950000Y-110000000D01*
X187950000Y-110000000D02*
X186550000Y-110000000D01*
X186550000Y-110000000D02*
X187250000Y-109100000D01*
X187950000Y-109100000D02*
X186550000Y-109100000D01*
X206250000Y-112300000D02*
X206250000Y-113300000D01*
X206250000Y-106700000D02*
X206250000Y-105800000D01*
X206250000Y-109100000D02*
X206950000Y-110000000D01*
X206950000Y-110000000D02*
X205550000Y-110000000D01*
X205550000Y-110000000D02*
X206250000Y-109100000D01*
X206950000Y-109100000D02*
X205550000Y-109100000D01*
X109800000Y-99800000D02*
X109800000Y-100800000D01*
X109800000Y-94200000D02*
X109800000Y-93300000D01*
X109800000Y-96600000D02*
X110500000Y-97500000D01*
X110500000Y-97500000D02*
X109100000Y-97500000D01*
X109100000Y-97500000D02*
X109800000Y-96600000D01*
X110500000Y-96600000D02*
X109100000Y-96600000D01*
X121700000Y-130300000D02*
X121700000Y-131300000D01*
X121700000Y-124700000D02*
X121700000Y-123800000D01*
X121700000Y-127100000D02*
X122400000Y-128000000D01*
X122400000Y-128000000D02*
X121000000Y-128000000D01*
X121000000Y-128000000D02*
X121700000Y-127100000D01*
X122400000Y-127100000D02*
X121000000Y-127100000D01*
X139200000Y-125200000D02*
X139200000Y-126200000D01*
X139200000Y-119600000D02*
X139200000Y-118700000D01*
X139200000Y-122000000D02*
X139900000Y-122900000D01*
X139900000Y-122900000D02*
X138500000Y-122900000D01*
X138500000Y-122900000D02*
X139200000Y-122000000D01*
X139900000Y-122000000D02*
X138500000Y-122000000D01*
X158700000Y-125200000D02*
X158700000Y-126200000D01*
X158700000Y-119600000D02*
X158700000Y-118700000D01*
X158700000Y-122000000D02*
X159400000Y-122900000D01*
X159400000Y-122900000D02*
X158000000Y-122900000D01*
X158000000Y-122900000D02*
X158700000Y-122000000D01*
X159400000Y-122000000D02*
X158000000Y-122000000D01*
X94833973Y-77533759D02*
X87213973Y-77533759D01*
X94833973Y-72453759D02*
X94833973Y-77533759D01*
X87213973Y-72453759D02*
X94833973Y-72453759D01*
X87213973Y-77533759D02*
X87213973Y-72453759D01*
X86900000Y-65500000D02*
X86900000Y-71400000D01*
X86900000Y-65500000D02*
X86900000Y-71500000D01*
X83400000Y-71500000D02*
X83400000Y-65500000D01*
X86900000Y-71500000D02*
X86400000Y-71500000D01*
X83400000Y-71500000D02*
X83800000Y-71500000D01*
X83400000Y-65500000D02*
X83800000Y-65500000D01*
X86900000Y-65500000D02*
X86400000Y-65500000D01*
X83688035Y-54539272D02*
X85688035Y-54539272D01*
X83688035Y-57539272D02*
X83688035Y-54539272D01*
X85688035Y-57539272D02*
X83688035Y-57539272D01*
X85688035Y-54539272D02*
X85688035Y-57539272D01*
X85938035Y-54539272D02*
X87938035Y-54539272D01*
X85938035Y-57539272D02*
X85938035Y-54539272D01*
X87938035Y-57539272D02*
X85938035Y-57539272D01*
X87938035Y-54539272D02*
X87938035Y-57539272D01*
X87900000Y-59700000D02*
X87900000Y-61700000D01*
X85900000Y-59700000D02*
X87900000Y-59700000D01*
X85900000Y-61700000D02*
X85900000Y-59700000D01*
X87900000Y-61700000D02*
X85900000Y-61700000D01*
X85700000Y-59700000D02*
X85700000Y-61700000D01*
X83700000Y-59700000D02*
X85700000Y-59700000D01*
X83700000Y-61700000D02*
X83700000Y-59700000D01*
X85700000Y-61700000D02*
X83700000Y-61700000D01*
X90910000Y-70340000D02*
X90910000Y-39860000D01*
D14*
X93450000Y-70340000D02*
X90910000Y-70340000D01*
X93450000Y-39860000D02*
X93450000Y-70340000D01*
X90910000Y-39860000D02*
X93450000Y-39860000D01*
X106150000Y-70340000D02*
X106150000Y-39860000D01*
X108690000Y-70340000D02*
X106150000Y-70340000D01*
D10*
X108690000Y-39860000D02*
X108690000Y-70340000D01*
D14*
X106150000Y-39860000D02*
X108690000Y-39860000D01*
X90910000Y-70340000D02*
X90910000Y-37320000D01*
X108690000Y-37320000D02*
X108690000Y-70340000D01*
X90910000Y-37320000D02*
X108690000Y-37320000D01*
D10*
X105189000Y-71543000D02*
X105189000Y-69257000D01*
X105189000Y-69257000D02*
X103411000Y-69257000D01*
X103411000Y-69257000D02*
X103411000Y-71543000D01*
X103411000Y-71543000D02*
X105189000Y-71543000D01*
X100911000Y-71543000D02*
X102689000Y-71543000D01*
X100911000Y-69257000D02*
X100911000Y-71543000D01*
X102689000Y-69257000D02*
X100911000Y-69257000D01*
X102689000Y-71543000D02*
X102689000Y-69257000D01*
X100089000Y-71543000D02*
X100089000Y-69257000D01*
X100089000Y-69257000D02*
X98311000Y-69257000D01*
X98311000Y-69257000D02*
X98311000Y-71543000D01*
X98311000Y-71543000D02*
X100089000Y-71543000D01*
X95811000Y-71543000D02*
X97589000Y-71543000D01*
X95811000Y-69257000D02*
X95811000Y-71543000D01*
X97589000Y-69257000D02*
X95811000Y-69257000D01*
X97589000Y-71543000D02*
X97589000Y-69257000D01*
X95430000Y-76270000D02*
X95430000Y-73730000D01*
X105590000Y-76270000D02*
X95430000Y-76270000D01*
X105590000Y-73730000D02*
X105590000Y-76270000D01*
X95430000Y-73730000D02*
X105590000Y-73730000D01*
X108546261Y-100736976D02*
X108593880Y-100879833D01*
X108593880Y-101117928D01*
X108546261Y-101213166D01*
X108498642Y-101260785D01*
X108403404Y-101308404D01*
X108308166Y-101308404D01*
X108212928Y-101260785D01*
X108165309Y-101213166D01*
X108117690Y-101117928D01*
X108070071Y-100927452D01*
X108022452Y-100832214D01*
X107974833Y-100784595D01*
X107879595Y-100736976D01*
X107784357Y-100736976D01*
X107689119Y-100784595D01*
X107641500Y-100832214D01*
X107593880Y-100927452D01*
X107593880Y-101165547D01*
X107641500Y-101308404D01*
X107593880Y-101641738D02*
X108593880Y-101879833D01*
X107879595Y-102070309D01*
X108593880Y-102260785D01*
X107593880Y-102498880D01*
X107593880Y-102784595D02*
X107593880Y-103403642D01*
X107974833Y-103070309D01*
X107974833Y-103213166D01*
X108022452Y-103308404D01*
X108070071Y-103356023D01*
X108165309Y-103403642D01*
X108403404Y-103403642D01*
X108498642Y-103356023D01*
X108546261Y-103308404D01*
X108593880Y-103213166D01*
X108593880Y-102927452D01*
X108546261Y-102832214D01*
X108498642Y-102784595D01*
X107593880Y-104022690D02*
X107593880Y-104117928D01*
X107641500Y-104213166D01*
X107689119Y-104260785D01*
X107784357Y-104308404D01*
X107974833Y-104356023D01*
X108212928Y-104356023D01*
X108403404Y-104308404D01*
X108498642Y-104260785D01*
X108546261Y-104213166D01*
X108593880Y-104117928D01*
X108593880Y-104022690D01*
X108546261Y-103927452D01*
X108498642Y-103879833D01*
X108403404Y-103832214D01*
X108212928Y-103784595D01*
X107974833Y-103784595D01*
X107784357Y-103832214D01*
X107689119Y-103879833D01*
X107641500Y-103927452D01*
X107593880Y-104022690D01*
X85461904Y-67338095D02*
X85080952Y-67071428D01*
X85461904Y-66880952D02*
X84661904Y-66880952D01*
X84661904Y-67185714D01*
X84700000Y-67261904D01*
X84738095Y-67300000D01*
X84814285Y-67338095D01*
X84928571Y-67338095D01*
X85004761Y-67300000D01*
X85042857Y-67261904D01*
X85080952Y-67185714D01*
X85080952Y-66880952D01*
X85042857Y-67680952D02*
X85042857Y-67947619D01*
X85461904Y-68061904D02*
X85461904Y-67680952D01*
X84661904Y-67680952D01*
X84661904Y-68061904D01*
X85423809Y-68366666D02*
X85461904Y-68480952D01*
X85461904Y-68671428D01*
X85423809Y-68747619D01*
X85385714Y-68785714D01*
X85309523Y-68823809D01*
X85233333Y-68823809D01*
X85157142Y-68785714D01*
X85119047Y-68747619D01*
X85080952Y-68671428D01*
X85042857Y-68519047D01*
X85004761Y-68442857D01*
X84966666Y-68404761D01*
X84890476Y-68366666D01*
X84814285Y-68366666D01*
X84738095Y-68404761D01*
X84700000Y-68442857D01*
X84661904Y-68519047D01*
X84661904Y-68709523D01*
X84700000Y-68823809D01*
X85042857Y-69166666D02*
X85042857Y-69433333D01*
X85461904Y-69547619D02*
X85461904Y-69166666D01*
X84661904Y-69166666D01*
X84661904Y-69547619D01*
X84661904Y-69776190D02*
X84661904Y-70233333D01*
X85461904Y-70004761D02*
X84661904Y-70004761D01*
X85061904Y-55905938D02*
X84680952Y-55639272D01*
X85061904Y-55448795D02*
X84261904Y-55448795D01*
X84261904Y-55753557D01*
X84300000Y-55829748D01*
X84338095Y-55867843D01*
X84414285Y-55905938D01*
X84528571Y-55905938D01*
X84604761Y-55867843D01*
X84642857Y-55829748D01*
X84680952Y-55753557D01*
X84680952Y-55448795D01*
X85061904Y-56667843D02*
X85061904Y-56210700D01*
X85061904Y-56439272D02*
X84261904Y-56439272D01*
X84376190Y-56363081D01*
X84452380Y-56286891D01*
X84490476Y-56210700D01*
X87311904Y-55905938D02*
X86930952Y-55639272D01*
X87311904Y-55448795D02*
X86511904Y-55448795D01*
X86511904Y-55753557D01*
X86550000Y-55829748D01*
X86588095Y-55867843D01*
X86664285Y-55905938D01*
X86778571Y-55905938D01*
X86854761Y-55867843D01*
X86892857Y-55829748D01*
X86930952Y-55753557D01*
X86930952Y-55448795D01*
X87311904Y-56667843D02*
X87311904Y-56210700D01*
X87311904Y-56439272D02*
X86511904Y-56439272D01*
X86626190Y-56363081D01*
X86702380Y-56286891D01*
X86740476Y-56210700D01*
X87490476Y-62761904D02*
X87490476Y-61961904D01*
X87185714Y-61961904D01*
X87109523Y-62000000D01*
X87071428Y-62038095D01*
X87033333Y-62114285D01*
X87033333Y-62228571D01*
X87071428Y-62304761D01*
X87109523Y-62342857D01*
X87185714Y-62380952D01*
X87490476Y-62380952D01*
X86728571Y-62038095D02*
X86690476Y-62000000D01*
X86614285Y-61961904D01*
X86423809Y-61961904D01*
X86347619Y-62000000D01*
X86309523Y-62038095D01*
X86271428Y-62114285D01*
X86271428Y-62190476D01*
X86309523Y-62304761D01*
X86766666Y-62761904D01*
X86271428Y-62761904D01*
X85290476Y-62761904D02*
X85290476Y-61961904D01*
X84985714Y-61961904D01*
X84909523Y-62000000D01*
X84871428Y-62038095D01*
X84833333Y-62114285D01*
X84833333Y-62228571D01*
X84871428Y-62304761D01*
X84909523Y-62342857D01*
X84985714Y-62380952D01*
X85290476Y-62380952D01*
X84528571Y-62038095D02*
X84490476Y-62000000D01*
X84414285Y-61961904D01*
X84223809Y-61961904D01*
X84147619Y-62000000D01*
X84109523Y-62038095D01*
X84071428Y-62114285D01*
X84071428Y-62190476D01*
X84109523Y-62304761D01*
X84566666Y-62761904D01*
X84071428Y-62761904D01*
M02*
