M48
; DRILL file {KiCad 5.1.6-c6e7f7d~87~ubuntu20.04.1} date Thu Oct 22 20:53:07 2020
; FORMAT={-:-/ absolute / inch / decimal}
; #@! TF.CreationDate,2020-10-22T20:53:07+01:00
; #@! TF.GenerationSoftware,Kicad,Pcbnew,5.1.6-c6e7f7d~87~ubuntu20.04.1
; #@! TF.FileFunction,NonPlated,1,2,NPTH
FMAT,2
INCH
T1C0.0394
T2C0.0472
T3C0.0669
T4C0.0670
T5C0.0748
T6C0.0866
T7C0.1570
T8C0.1575
%
G90
G05
T1
X6.7866Y-1.7087
X7.1976Y-1.7087
X7.5386Y-2.6417
X7.9496Y-2.6417
X6.7866Y-2.4567
X7.1976Y-2.4567
X7.5386Y-4.1457
X7.9496Y-4.1457
X6.0386Y-2.4055
X6.4496Y-2.4055
X7.5386Y-1.8976
X7.9496Y-1.8976
X5.2866Y-3.9606
X5.6976Y-3.9606
X8.2886Y-4.2047
X8.6996Y-4.2047
X4.5386Y-1.8031
X4.9496Y-1.8031
X4.9126Y-4.7953
X5.3236Y-4.7953
X6.7866Y-3.2087
X7.1976Y-3.2087
X4.5386Y-2.5551
X4.9496Y-2.5551
X5.2866Y-1.7087
X5.6976Y-1.7087
X4.1743Y-4.7393
X4.3798Y-5.0953
X4.5386Y-3.3031
X4.9496Y-3.3031
X7.5386Y-3.3976
X7.9496Y-3.3976
X8.2866Y-3.4567
X8.6976Y-3.4567
X6.7866Y-3.9606
X7.1976Y-3.9606
X6.0386Y-3.9055
X6.4496Y-3.9055
X6.0386Y-3.1575
X6.4496Y-3.1575
X4.5386Y-4.0512
X4.9496Y-4.0512
X5.6606Y-4.7067
X6.0717Y-4.7067
X8.2866Y-2.7008
X8.6976Y-2.7008
X5.2866Y-2.4606
X5.6976Y-2.4606
X5.2866Y-3.2087
X5.6976Y-3.2087
X6.4126Y-4.7067
X6.8236Y-4.7067
X6.0386Y-1.6539
X6.4496Y-1.6539
X8.2866Y-1.9567
X8.6976Y-1.9567
T2
X3.3917Y-1.6063
X3.3917Y-1.8819
X3.4606Y-1.6063
X3.4606Y-1.8819
T3
X6.7921Y-1.874
X7.1921Y-1.874
X7.5441Y-2.8071
X7.9441Y-2.8071
X6.7921Y-2.622
X7.1921Y-2.622
X7.5441Y-4.311
X7.9441Y-4.311
X6.0441Y-2.5709
X6.4441Y-2.5709
X7.5441Y-2.063
X7.9441Y-2.063
X5.2921Y-4.126
X5.6921Y-4.126
X8.2941Y-4.3701
X8.6941Y-4.3701
X4.5441Y-1.9685
X4.9441Y-1.9685
X4.9181Y-4.9606
X5.3181Y-4.9606
X6.7921Y-3.374
X7.1921Y-3.374
X4.5441Y-2.7205
X4.9441Y-2.7205
X5.2921Y-1.874
X5.6921Y-1.874
X4.0339Y-4.8268
X4.2339Y-5.1732
X4.5441Y-3.4685
X4.9441Y-3.4685
X7.5441Y-3.563
X7.9441Y-3.563
X8.2921Y-3.622
X8.6921Y-3.622
X6.7921Y-4.126
X7.1921Y-4.126
X6.0441Y-4.0709
X6.4441Y-4.0709
X6.0441Y-3.3228
X6.4441Y-3.3228
X4.5441Y-4.2165
X4.9441Y-4.2165
X5.6661Y-4.872
X6.0661Y-4.872
X8.2921Y-2.8661
X8.6921Y-2.8661
X5.2921Y-2.626
X5.6921Y-2.626
X5.2921Y-3.374
X5.6921Y-3.374
X6.4181Y-4.872
X6.8181Y-4.872
X6.0441Y-1.8193
X6.4441Y-1.8193
X8.2921Y-2.122
X8.6921Y-2.122
T4
X3.7921Y-3.8386
X4.1921Y-3.8386
T5
X4.9016Y-4.9606
X5.3346Y-4.9606
X6.7756Y-3.374
X7.2087Y-3.374
X4.5276Y-2.7205
X4.9606Y-2.7205
X5.2756Y-1.874
X5.7087Y-1.874
X4.0256Y-4.8125
X4.2421Y-5.1875
X4.5276Y-3.4685
X4.9606Y-3.4685
X7.5276Y-3.563
X7.9606Y-3.563
X8.2756Y-3.622
X8.7087Y-3.622
X6.7756Y-4.126
X7.2087Y-4.126
X6.0276Y-4.0709
X6.4606Y-4.0709
X6.0276Y-3.3228
X6.4606Y-3.3228
X4.5276Y-4.2165
X4.9606Y-4.2165
X5.6496Y-4.872
X6.0827Y-4.872
X8.2756Y-2.8661
X8.7087Y-2.8661
X5.2756Y-2.626
X5.7087Y-2.626
X5.2756Y-3.374
X5.7087Y-3.374
X6.4016Y-4.872
X6.8346Y-4.872
X6.0276Y-1.8193
X6.4606Y-1.8193
X8.2756Y-2.122
X8.7087Y-2.122
X6.7756Y-1.874
X7.2087Y-1.874
X7.5276Y-2.8071
X7.9606Y-2.8071
X6.7756Y-2.622
X7.2087Y-2.622
X7.5276Y-4.311
X7.9606Y-4.311
X6.0276Y-2.5709
X6.4606Y-2.5709
X7.5276Y-2.063
X7.9606Y-2.063
X5.2756Y-4.126
X5.7087Y-4.126
X8.2776Y-4.3701
X8.7106Y-4.3701
X4.5276Y-1.9685
X4.9606Y-1.9685
T6
X3.3858Y-3.3465
X4.252Y-3.3465
T7
X3.9921Y-3.8386
T8
X6.6181Y-4.872
X6.2441Y-1.8193
X8.4921Y-2.122
X6.9921Y-1.874
X7.7441Y-2.8071
X6.9921Y-2.622
X7.7441Y-4.311
X6.2441Y-2.5709
X7.7441Y-2.063
X5.4921Y-4.126
X8.4941Y-4.3701
X4.7441Y-1.9685
X5.1181Y-4.9606
X6.9921Y-3.374
X4.7441Y-2.7205
X5.4921Y-1.874
X4.1339Y-5.0
X4.7441Y-3.4685
X7.7441Y-3.563
X8.4921Y-3.622
X6.9921Y-4.126
X6.2441Y-4.0709
X6.2441Y-3.3228
X4.7441Y-4.2165
X5.8661Y-4.872
X8.4921Y-2.8661
X5.4921Y-2.626
X5.4921Y-3.374
T0
M30
