G04 #@! TF.GenerationSoftware,KiCad,Pcbnew,5.1.6-c6e7f7d~87~ubuntu20.04.1*
G04 #@! TF.CreationDate,2020-10-22T20:53:10+01:00*
G04 #@! TF.ProjectId,Lily58,4c696c79-3538-42e6-9b69-6361645f7063,rev?*
G04 #@! TF.SameCoordinates,Original*
G04 #@! TF.FileFunction,Legend,Top*
G04 #@! TF.FilePolarity,Positive*
%FSLAX46Y46*%
G04 Gerber Fmt 4.6, Leading zero omitted, Abs format (unit mm)*
G04 Created by KiCad (PCBNEW 5.1.6-c6e7f7d~87~ubuntu20.04.1) date 2020-10-22 20:53:10*
%MOMM*%
%LPD*%
G01*
G04 APERTURE LIST*
%ADD10C,0.150000*%
%ADD11C,0.125000*%
%ADD12C,0.010000*%
%ADD13C,0.381000*%
%ADD14C,0.250000*%
%ADD15C,0.100000*%
G04 APERTURE END LIST*
D10*
X99782380Y-47196000D02*
X99782380Y-46624571D01*
X100782380Y-46910285D02*
X99782380Y-46910285D01*
X100782380Y-46291238D02*
X100115714Y-46291238D01*
X99782380Y-46291238D02*
X99830000Y-46338857D01*
X99877619Y-46291238D01*
X99830000Y-46243619D01*
X99782380Y-46291238D01*
X99877619Y-46291238D01*
X100782380Y-45815047D02*
X99782380Y-45815047D01*
X100401428Y-45719809D02*
X100782380Y-45434095D01*
X100115714Y-45434095D02*
X100496666Y-45815047D01*
X100782380Y-45005523D02*
X100115714Y-45005523D01*
X99782380Y-45005523D02*
X99830000Y-45053142D01*
X99877619Y-45005523D01*
X99830000Y-44957904D01*
X99782380Y-45005523D01*
X99877619Y-45005523D01*
X99782380Y-43291238D02*
X99782380Y-43767428D01*
X100258571Y-43815047D01*
X100210952Y-43767428D01*
X100163333Y-43672190D01*
X100163333Y-43434095D01*
X100210952Y-43338857D01*
X100258571Y-43291238D01*
X100353809Y-43243619D01*
X100591904Y-43243619D01*
X100687142Y-43291238D01*
X100734761Y-43338857D01*
X100782380Y-43434095D01*
X100782380Y-43672190D01*
X100734761Y-43767428D01*
X100687142Y-43815047D01*
X99782380Y-42910285D02*
X99782380Y-42243619D01*
X100782380Y-42672190D01*
X100782380Y-41291238D02*
X100306190Y-41624571D01*
X100782380Y-41862666D02*
X99782380Y-41862666D01*
X99782380Y-41481714D01*
X99830000Y-41386476D01*
X99877619Y-41338857D01*
X99972857Y-41291238D01*
X100115714Y-41291238D01*
X100210952Y-41338857D01*
X100258571Y-41386476D01*
X100306190Y-41481714D01*
X100306190Y-41862666D01*
D11*
X113266666Y-80916666D02*
X113500000Y-81616666D01*
X113733333Y-80916666D01*
X114366666Y-81550000D02*
X114333333Y-81583333D01*
X114233333Y-81616666D01*
X114166666Y-81616666D01*
X114066666Y-81583333D01*
X114000000Y-81516666D01*
X113966666Y-81450000D01*
X113933333Y-81316666D01*
X113933333Y-81216666D01*
X113966666Y-81083333D01*
X114000000Y-81016666D01*
X114066666Y-80950000D01*
X114166666Y-80916666D01*
X114233333Y-80916666D01*
X114333333Y-80950000D01*
X114366666Y-80983333D01*
X115066666Y-81550000D02*
X115033333Y-81583333D01*
X114933333Y-81616666D01*
X114866666Y-81616666D01*
X114766666Y-81583333D01*
X114700000Y-81516666D01*
X114666666Y-81450000D01*
X114633333Y-81316666D01*
X114633333Y-81216666D01*
X114666666Y-81083333D01*
X114700000Y-81016666D01*
X114766666Y-80950000D01*
X114866666Y-80916666D01*
X114933333Y-80916666D01*
X115033333Y-80950000D01*
X115066666Y-80983333D01*
X113766666Y-75850000D02*
X113700000Y-75816666D01*
X113600000Y-75816666D01*
X113500000Y-75850000D01*
X113433333Y-75916666D01*
X113400000Y-75983333D01*
X113366666Y-76116666D01*
X113366666Y-76216666D01*
X113400000Y-76350000D01*
X113433333Y-76416666D01*
X113500000Y-76483333D01*
X113600000Y-76516666D01*
X113666666Y-76516666D01*
X113766666Y-76483333D01*
X113800000Y-76450000D01*
X113800000Y-76216666D01*
X113666666Y-76216666D01*
X114100000Y-76516666D02*
X114100000Y-75816666D01*
X114500000Y-76516666D01*
X114500000Y-75816666D01*
X114833333Y-76516666D02*
X114833333Y-75816666D01*
X115000000Y-75816666D01*
X115100000Y-75850000D01*
X115166666Y-75916666D01*
X115200000Y-75983333D01*
X115233333Y-76116666D01*
X115233333Y-76216666D01*
X115200000Y-76350000D01*
X115166666Y-76416666D01*
X115100000Y-76483333D01*
X115000000Y-76516666D01*
X114833333Y-76516666D01*
X113850000Y-79016666D02*
X113516666Y-79016666D01*
X113516666Y-78316666D01*
X114083333Y-78650000D02*
X114316666Y-78650000D01*
X114416666Y-79016666D02*
X114083333Y-79016666D01*
X114083333Y-78316666D01*
X114416666Y-78316666D01*
X114716666Y-79016666D02*
X114716666Y-78316666D01*
X114883333Y-78316666D01*
X114983333Y-78350000D01*
X115050000Y-78416666D01*
X115083333Y-78483333D01*
X115116666Y-78616666D01*
X115116666Y-78716666D01*
X115083333Y-78850000D01*
X115050000Y-78916666D01*
X114983333Y-78983333D01*
X114883333Y-79016666D01*
X114716666Y-79016666D01*
D12*
G36*
X98468869Y-56541206D02*
G01*
X98540094Y-56596267D01*
X98643809Y-56673160D01*
X98727091Y-56719998D01*
X98752146Y-56726666D01*
X98795639Y-56760665D01*
X98802959Y-56851068D01*
X98779443Y-56980490D01*
X98730430Y-57131542D01*
X98661256Y-57286838D01*
X98577259Y-57428989D01*
X98510639Y-57513395D01*
X98356614Y-57711675D01*
X98279828Y-57894251D01*
X98281256Y-58069688D01*
X98361876Y-58246552D01*
X98522661Y-58433409D01*
X98626090Y-58527026D01*
X98768084Y-58644496D01*
X98867617Y-58713928D01*
X98943910Y-58745281D01*
X99016186Y-58748513D01*
X99045936Y-58744547D01*
X99164187Y-58706607D01*
X99304388Y-58636382D01*
X99365723Y-58597693D01*
X99567525Y-58484111D01*
X99757248Y-58438304D01*
X99964413Y-58454307D01*
X100017242Y-58466008D01*
X100171791Y-58509803D01*
X100251918Y-58546660D01*
X100255127Y-58573657D01*
X100178922Y-58587875D01*
X100122615Y-58589333D01*
X99923768Y-58613362D01*
X99764173Y-58678899D01*
X99655898Y-58776122D01*
X99611010Y-58895205D01*
X99626340Y-58993316D01*
X99689652Y-59061042D01*
X99809404Y-59122569D01*
X99957520Y-59166615D01*
X100095807Y-59182000D01*
X100194280Y-59192542D01*
X100243907Y-59218496D01*
X100245334Y-59224333D01*
X100207747Y-59250708D01*
X100113722Y-59265505D01*
X100073898Y-59266666D01*
X99897225Y-59290301D01*
X99740941Y-59352940D01*
X99633174Y-59442189D01*
X99616591Y-59468188D01*
X99597991Y-59580658D01*
X99650488Y-59686971D01*
X99760649Y-59776161D01*
X99915040Y-59837266D01*
X100095807Y-59859333D01*
X100205931Y-59872845D01*
X100244967Y-59916100D01*
X100245334Y-59922833D01*
X100234876Y-59956325D01*
X100195748Y-59975254D01*
X100116314Y-59979514D01*
X99984941Y-59969000D01*
X99789995Y-59943605D01*
X99610334Y-59917048D01*
X99057437Y-59814249D01*
X98581888Y-59684717D01*
X98180274Y-59527145D01*
X97849185Y-59340227D01*
X97617052Y-59153868D01*
X97391167Y-58903542D01*
X97241016Y-58649065D01*
X97158693Y-58373151D01*
X97136094Y-58102500D01*
X97140398Y-57906763D01*
X97161070Y-57757211D01*
X97205681Y-57615819D01*
X97256168Y-57499250D01*
X97323504Y-57367230D01*
X97383931Y-57272846D01*
X97424645Y-57236020D01*
X97425365Y-57236010D01*
X97480599Y-57264727D01*
X97568373Y-57336310D01*
X97620448Y-57385972D01*
X97779200Y-57514656D01*
X97919735Y-57567102D01*
X98036584Y-57543268D01*
X98124280Y-57443114D01*
X98147091Y-57389972D01*
X98162743Y-57311059D01*
X98139395Y-57234112D01*
X98067244Y-57130429D01*
X98051841Y-57111089D01*
X97955437Y-56979966D01*
X97921101Y-56906085D01*
X97947201Y-56890912D01*
X98032107Y-56935913D01*
X98149833Y-57023000D01*
X98290923Y-57117669D01*
X98399165Y-57144621D01*
X98489738Y-57105868D01*
X98524272Y-57072583D01*
X98582669Y-56978174D01*
X98579838Y-56878199D01*
X98512481Y-56756105D01*
X98444193Y-56670553D01*
X98358497Y-56555870D01*
X98337257Y-56493595D01*
X98375654Y-56487463D01*
X98468869Y-56541206D01*
G37*
X98468869Y-56541206D02*
X98540094Y-56596267D01*
X98643809Y-56673160D01*
X98727091Y-56719998D01*
X98752146Y-56726666D01*
X98795639Y-56760665D01*
X98802959Y-56851068D01*
X98779443Y-56980490D01*
X98730430Y-57131542D01*
X98661256Y-57286838D01*
X98577259Y-57428989D01*
X98510639Y-57513395D01*
X98356614Y-57711675D01*
X98279828Y-57894251D01*
X98281256Y-58069688D01*
X98361876Y-58246552D01*
X98522661Y-58433409D01*
X98626090Y-58527026D01*
X98768084Y-58644496D01*
X98867617Y-58713928D01*
X98943910Y-58745281D01*
X99016186Y-58748513D01*
X99045936Y-58744547D01*
X99164187Y-58706607D01*
X99304388Y-58636382D01*
X99365723Y-58597693D01*
X99567525Y-58484111D01*
X99757248Y-58438304D01*
X99964413Y-58454307D01*
X100017242Y-58466008D01*
X100171791Y-58509803D01*
X100251918Y-58546660D01*
X100255127Y-58573657D01*
X100178922Y-58587875D01*
X100122615Y-58589333D01*
X99923768Y-58613362D01*
X99764173Y-58678899D01*
X99655898Y-58776122D01*
X99611010Y-58895205D01*
X99626340Y-58993316D01*
X99689652Y-59061042D01*
X99809404Y-59122569D01*
X99957520Y-59166615D01*
X100095807Y-59182000D01*
X100194280Y-59192542D01*
X100243907Y-59218496D01*
X100245334Y-59224333D01*
X100207747Y-59250708D01*
X100113722Y-59265505D01*
X100073898Y-59266666D01*
X99897225Y-59290301D01*
X99740941Y-59352940D01*
X99633174Y-59442189D01*
X99616591Y-59468188D01*
X99597991Y-59580658D01*
X99650488Y-59686971D01*
X99760649Y-59776161D01*
X99915040Y-59837266D01*
X100095807Y-59859333D01*
X100205931Y-59872845D01*
X100244967Y-59916100D01*
X100245334Y-59922833D01*
X100234876Y-59956325D01*
X100195748Y-59975254D01*
X100116314Y-59979514D01*
X99984941Y-59969000D01*
X99789995Y-59943605D01*
X99610334Y-59917048D01*
X99057437Y-59814249D01*
X98581888Y-59684717D01*
X98180274Y-59527145D01*
X97849185Y-59340227D01*
X97617052Y-59153868D01*
X97391167Y-58903542D01*
X97241016Y-58649065D01*
X97158693Y-58373151D01*
X97136094Y-58102500D01*
X97140398Y-57906763D01*
X97161070Y-57757211D01*
X97205681Y-57615819D01*
X97256168Y-57499250D01*
X97323504Y-57367230D01*
X97383931Y-57272846D01*
X97424645Y-57236020D01*
X97425365Y-57236010D01*
X97480599Y-57264727D01*
X97568373Y-57336310D01*
X97620448Y-57385972D01*
X97779200Y-57514656D01*
X97919735Y-57567102D01*
X98036584Y-57543268D01*
X98124280Y-57443114D01*
X98147091Y-57389972D01*
X98162743Y-57311059D01*
X98139395Y-57234112D01*
X98067244Y-57130429D01*
X98051841Y-57111089D01*
X97955437Y-56979966D01*
X97921101Y-56906085D01*
X97947201Y-56890912D01*
X98032107Y-56935913D01*
X98149833Y-57023000D01*
X98290923Y-57117669D01*
X98399165Y-57144621D01*
X98489738Y-57105868D01*
X98524272Y-57072583D01*
X98582669Y-56978174D01*
X98579838Y-56878199D01*
X98512481Y-56756105D01*
X98444193Y-56670553D01*
X98358497Y-56555870D01*
X98337257Y-56493595D01*
X98375654Y-56487463D01*
X98468869Y-56541206D01*
G36*
X101863538Y-55990086D02*
G01*
X101897964Y-56007872D01*
X101948027Y-56040327D01*
X101954168Y-56079545D01*
X101915977Y-56153725D01*
X101895339Y-56187789D01*
X101829240Y-56342784D01*
X101817008Y-56487692D01*
X101859151Y-56599314D01*
X101885750Y-56625403D01*
X101978306Y-56674127D01*
X102068537Y-56665220D01*
X102174658Y-56593312D01*
X102254455Y-56516753D01*
X102368654Y-56413022D01*
X102438597Y-56376751D01*
X102459988Y-56405888D01*
X102428531Y-56498382D01*
X102385045Y-56579114D01*
X102301056Y-56749833D01*
X102281629Y-56874724D01*
X102328645Y-56964876D01*
X102443985Y-57031377D01*
X102462978Y-57038464D01*
X102531894Y-57036872D01*
X102619476Y-56979635D01*
X102704699Y-56896869D01*
X102801536Y-56802830D01*
X102879341Y-56741017D01*
X102910638Y-56726666D01*
X102943195Y-56731205D01*
X102947777Y-56756305D01*
X102919537Y-56819192D01*
X102853633Y-56937090D01*
X102849343Y-56944595D01*
X102767569Y-57118317D01*
X102750152Y-57248017D01*
X102797029Y-57344616D01*
X102846761Y-57385368D01*
X102969602Y-57430390D01*
X103090192Y-57397484D01*
X103217269Y-57284096D01*
X103225241Y-57274737D01*
X103297773Y-57194720D01*
X103346516Y-57152134D01*
X103352399Y-57150000D01*
X103382710Y-57188339D01*
X103420581Y-57289294D01*
X103460874Y-57431772D01*
X103498452Y-57594680D01*
X103528176Y-57756926D01*
X103544909Y-57897416D01*
X103546831Y-57948209D01*
X103508643Y-58307472D01*
X103401033Y-58653295D01*
X103232159Y-58966313D01*
X103010183Y-59227159D01*
X103006418Y-59230643D01*
X102768491Y-59408395D01*
X102462218Y-59571840D01*
X102103506Y-59715045D01*
X101708261Y-59832076D01*
X101292389Y-59916999D01*
X101093602Y-59944217D01*
X100834834Y-59971259D01*
X100651190Y-59983735D01*
X100534366Y-59981503D01*
X100476057Y-59964418D01*
X100467577Y-59933436D01*
X100516647Y-59896269D01*
X100620314Y-59863444D01*
X100677621Y-59853015D01*
X100888742Y-59803075D01*
X101033161Y-59726123D01*
X101105851Y-59627266D01*
X101101790Y-59511615D01*
X101071628Y-59452438D01*
X100950002Y-59336858D01*
X100768912Y-59274840D01*
X100634161Y-59262414D01*
X100478167Y-59258161D01*
X100647500Y-59220262D01*
X100782240Y-59189892D01*
X100897262Y-59163622D01*
X100913160Y-59159938D01*
X101042891Y-59096383D01*
X101139117Y-58988766D01*
X101176667Y-58865475D01*
X101139755Y-58755636D01*
X101027392Y-58672628D01*
X100837138Y-58614995D01*
X100727894Y-58597269D01*
X100478167Y-58564340D01*
X100639676Y-58509143D01*
X100828249Y-58475167D01*
X101028406Y-58503869D01*
X101256413Y-58598236D01*
X101323725Y-58634720D01*
X101543173Y-58731264D01*
X101730505Y-58752065D01*
X101892635Y-58696514D01*
X102029555Y-58572534D01*
X102112222Y-58437661D01*
X102189374Y-58254680D01*
X102248357Y-58059850D01*
X102276513Y-57889426D01*
X102277334Y-57862696D01*
X102272667Y-57770749D01*
X102249683Y-57699058D01*
X102194902Y-57628565D01*
X102094848Y-57540213D01*
X101990962Y-57457776D01*
X101918977Y-57357288D01*
X101855842Y-57178691D01*
X101802991Y-56928219D01*
X101761860Y-56612106D01*
X101742295Y-56377416D01*
X101730900Y-56175501D01*
X101732691Y-56046815D01*
X101752304Y-55980354D01*
X101794374Y-55965113D01*
X101863538Y-55990086D01*
G37*
X101863538Y-55990086D02*
X101897964Y-56007872D01*
X101948027Y-56040327D01*
X101954168Y-56079545D01*
X101915977Y-56153725D01*
X101895339Y-56187789D01*
X101829240Y-56342784D01*
X101817008Y-56487692D01*
X101859151Y-56599314D01*
X101885750Y-56625403D01*
X101978306Y-56674127D01*
X102068537Y-56665220D01*
X102174658Y-56593312D01*
X102254455Y-56516753D01*
X102368654Y-56413022D01*
X102438597Y-56376751D01*
X102459988Y-56405888D01*
X102428531Y-56498382D01*
X102385045Y-56579114D01*
X102301056Y-56749833D01*
X102281629Y-56874724D01*
X102328645Y-56964876D01*
X102443985Y-57031377D01*
X102462978Y-57038464D01*
X102531894Y-57036872D01*
X102619476Y-56979635D01*
X102704699Y-56896869D01*
X102801536Y-56802830D01*
X102879341Y-56741017D01*
X102910638Y-56726666D01*
X102943195Y-56731205D01*
X102947777Y-56756305D01*
X102919537Y-56819192D01*
X102853633Y-56937090D01*
X102849343Y-56944595D01*
X102767569Y-57118317D01*
X102750152Y-57248017D01*
X102797029Y-57344616D01*
X102846761Y-57385368D01*
X102969602Y-57430390D01*
X103090192Y-57397484D01*
X103217269Y-57284096D01*
X103225241Y-57274737D01*
X103297773Y-57194720D01*
X103346516Y-57152134D01*
X103352399Y-57150000D01*
X103382710Y-57188339D01*
X103420581Y-57289294D01*
X103460874Y-57431772D01*
X103498452Y-57594680D01*
X103528176Y-57756926D01*
X103544909Y-57897416D01*
X103546831Y-57948209D01*
X103508643Y-58307472D01*
X103401033Y-58653295D01*
X103232159Y-58966313D01*
X103010183Y-59227159D01*
X103006418Y-59230643D01*
X102768491Y-59408395D01*
X102462218Y-59571840D01*
X102103506Y-59715045D01*
X101708261Y-59832076D01*
X101292389Y-59916999D01*
X101093602Y-59944217D01*
X100834834Y-59971259D01*
X100651190Y-59983735D01*
X100534366Y-59981503D01*
X100476057Y-59964418D01*
X100467577Y-59933436D01*
X100516647Y-59896269D01*
X100620314Y-59863444D01*
X100677621Y-59853015D01*
X100888742Y-59803075D01*
X101033161Y-59726123D01*
X101105851Y-59627266D01*
X101101790Y-59511615D01*
X101071628Y-59452438D01*
X100950002Y-59336858D01*
X100768912Y-59274840D01*
X100634161Y-59262414D01*
X100478167Y-59258161D01*
X100647500Y-59220262D01*
X100782240Y-59189892D01*
X100897262Y-59163622D01*
X100913160Y-59159938D01*
X101042891Y-59096383D01*
X101139117Y-58988766D01*
X101176667Y-58865475D01*
X101139755Y-58755636D01*
X101027392Y-58672628D01*
X100837138Y-58614995D01*
X100727894Y-58597269D01*
X100478167Y-58564340D01*
X100639676Y-58509143D01*
X100828249Y-58475167D01*
X101028406Y-58503869D01*
X101256413Y-58598236D01*
X101323725Y-58634720D01*
X101543173Y-58731264D01*
X101730505Y-58752065D01*
X101892635Y-58696514D01*
X102029555Y-58572534D01*
X102112222Y-58437661D01*
X102189374Y-58254680D01*
X102248357Y-58059850D01*
X102276513Y-57889426D01*
X102277334Y-57862696D01*
X102272667Y-57770749D01*
X102249683Y-57699058D01*
X102194902Y-57628565D01*
X102094848Y-57540213D01*
X101990962Y-57457776D01*
X101918977Y-57357288D01*
X101855842Y-57178691D01*
X101802991Y-56928219D01*
X101761860Y-56612106D01*
X101742295Y-56377416D01*
X101730900Y-56175501D01*
X101732691Y-56046815D01*
X101752304Y-55980354D01*
X101794374Y-55965113D01*
X101863538Y-55990086D01*
G36*
X100467938Y-59444730D02*
G01*
X100698794Y-59463786D01*
X100847107Y-59495730D01*
X100914087Y-59541053D01*
X100900946Y-59600242D01*
X100888154Y-59614446D01*
X100821088Y-59640153D01*
X100691919Y-59659747D01*
X100523033Y-59672598D01*
X100336817Y-59678075D01*
X100155657Y-59675548D01*
X100001939Y-59664386D01*
X99898050Y-59643958D01*
X99893967Y-59642454D01*
X99802376Y-59592015D01*
X99787226Y-59544549D01*
X99840288Y-59502887D01*
X99953337Y-59469866D01*
X100118145Y-59448317D01*
X100326485Y-59441077D01*
X100467938Y-59444730D01*
G37*
X100467938Y-59444730D02*
X100698794Y-59463786D01*
X100847107Y-59495730D01*
X100914087Y-59541053D01*
X100900946Y-59600242D01*
X100888154Y-59614446D01*
X100821088Y-59640153D01*
X100691919Y-59659747D01*
X100523033Y-59672598D01*
X100336817Y-59678075D01*
X100155657Y-59675548D01*
X100001939Y-59664386D01*
X99898050Y-59643958D01*
X99893967Y-59642454D01*
X99802376Y-59592015D01*
X99787226Y-59544549D01*
X99840288Y-59502887D01*
X99953337Y-59469866D01*
X100118145Y-59448317D01*
X100326485Y-59441077D01*
X100467938Y-59444730D01*
G36*
X100359549Y-58782235D02*
G01*
X100551833Y-58792070D01*
X100731432Y-58806716D01*
X100876014Y-58824960D01*
X100963245Y-58845589D01*
X100972617Y-58850389D01*
X101001018Y-58889215D01*
X100959827Y-58939380D01*
X100946326Y-58949971D01*
X100865621Y-58978131D01*
X100723373Y-58997793D01*
X100542305Y-59008679D01*
X100345139Y-59010515D01*
X100154598Y-59003024D01*
X99993405Y-58985930D01*
X99893967Y-58962757D01*
X99807169Y-58912080D01*
X99802906Y-58858651D01*
X99879639Y-58809707D01*
X99929923Y-58793734D01*
X100026261Y-58781854D01*
X100176914Y-58778425D01*
X100359549Y-58782235D01*
G37*
X100359549Y-58782235D02*
X100551833Y-58792070D01*
X100731432Y-58806716D01*
X100876014Y-58824960D01*
X100963245Y-58845589D01*
X100972617Y-58850389D01*
X101001018Y-58889215D01*
X100959827Y-58939380D01*
X100946326Y-58949971D01*
X100865621Y-58978131D01*
X100723373Y-58997793D01*
X100542305Y-59008679D01*
X100345139Y-59010515D01*
X100154598Y-59003024D01*
X99993405Y-58985930D01*
X99893967Y-58962757D01*
X99807169Y-58912080D01*
X99802906Y-58858651D01*
X99879639Y-58809707D01*
X99929923Y-58793734D01*
X100026261Y-58781854D01*
X100176914Y-58778425D01*
X100359549Y-58782235D01*
G36*
X101955633Y-57663809D02*
G01*
X101961406Y-57666419D01*
X102051197Y-57739633D01*
X102093830Y-57818973D01*
X102095336Y-57939469D01*
X102061521Y-58099964D01*
X102002698Y-58269138D01*
X101929180Y-58415673D01*
X101873046Y-58489469D01*
X101764003Y-58569262D01*
X101649199Y-58581383D01*
X101504061Y-58528002D01*
X101494167Y-58522927D01*
X101374764Y-58453581D01*
X101328734Y-58394185D01*
X101351236Y-58322267D01*
X101429782Y-58224039D01*
X101532549Y-58096433D01*
X101646737Y-57939282D01*
X101711800Y-57842028D01*
X101792439Y-57720790D01*
X101847762Y-57659255D01*
X101896062Y-57644551D01*
X101955633Y-57663809D01*
G37*
X101955633Y-57663809D02*
X101961406Y-57666419D01*
X102051197Y-57739633D01*
X102093830Y-57818973D01*
X102095336Y-57939469D01*
X102061521Y-58099964D01*
X102002698Y-58269138D01*
X101929180Y-58415673D01*
X101873046Y-58489469D01*
X101764003Y-58569262D01*
X101649199Y-58581383D01*
X101504061Y-58528002D01*
X101494167Y-58522927D01*
X101374764Y-58453581D01*
X101328734Y-58394185D01*
X101351236Y-58322267D01*
X101429782Y-58224039D01*
X101532549Y-58096433D01*
X101646737Y-57939282D01*
X101711800Y-57842028D01*
X101792439Y-57720790D01*
X101847762Y-57659255D01*
X101896062Y-57644551D01*
X101955633Y-57663809D01*
G36*
X98746650Y-57607245D02*
G01*
X98813172Y-57692632D01*
X98839981Y-57736854D01*
X98914110Y-57855361D01*
X99018481Y-58006045D01*
X99125284Y-58149436D01*
X99318682Y-58398495D01*
X99226985Y-58472747D01*
X99108631Y-58536449D01*
X98982719Y-58533870D01*
X98837629Y-58462230D01*
X98689568Y-58344083D01*
X98567347Y-58227465D01*
X98499206Y-58139137D01*
X98470983Y-58057281D01*
X98467318Y-58001663D01*
X98486999Y-57882973D01*
X98536606Y-57755674D01*
X98602019Y-57646235D01*
X98669119Y-57581122D01*
X98695824Y-57573333D01*
X98746650Y-57607245D01*
G37*
X98746650Y-57607245D02*
X98813172Y-57692632D01*
X98839981Y-57736854D01*
X98914110Y-57855361D01*
X99018481Y-58006045D01*
X99125284Y-58149436D01*
X99318682Y-58398495D01*
X99226985Y-58472747D01*
X99108631Y-58536449D01*
X98982719Y-58533870D01*
X98837629Y-58462230D01*
X98689568Y-58344083D01*
X98567347Y-58227465D01*
X98499206Y-58139137D01*
X98470983Y-58057281D01*
X98467318Y-58001663D01*
X98486999Y-57882973D01*
X98536606Y-57755674D01*
X98602019Y-57646235D01*
X98669119Y-57581122D01*
X98695824Y-57573333D01*
X98746650Y-57607245D01*
G36*
X100499387Y-55880042D02*
G01*
X100734409Y-56026640D01*
X100967109Y-56089973D01*
X101203208Y-56071059D01*
X101331363Y-56028166D01*
X101470587Y-55976863D01*
X101538857Y-55969243D01*
X101537646Y-56005145D01*
X101537522Y-56005346D01*
X101532862Y-56061665D01*
X101539087Y-56183616D01*
X101554067Y-56353170D01*
X101575673Y-56552300D01*
X101601777Y-56762975D01*
X101630250Y-56967168D01*
X101658963Y-57146851D01*
X101685787Y-57283993D01*
X101691150Y-57306374D01*
X101712031Y-57403746D01*
X101711214Y-57480424D01*
X101681372Y-57562193D01*
X101615178Y-57674838D01*
X101563866Y-57754317D01*
X101415686Y-57969363D01*
X101288091Y-58119932D01*
X101165346Y-58218026D01*
X101031717Y-58275649D01*
X100871466Y-58304804D01*
X100838000Y-58308005D01*
X100671531Y-58324019D01*
X100520599Y-58341339D01*
X100435834Y-58353382D01*
X100313702Y-58351782D01*
X100170990Y-58320571D01*
X100139500Y-58309463D01*
X99948028Y-58264961D01*
X99711066Y-58266341D01*
X99451966Y-58288790D01*
X99257362Y-58026311D01*
X99143736Y-57865880D01*
X99034692Y-57700019D01*
X98955694Y-57567875D01*
X98848629Y-57371917D01*
X98972697Y-56899023D01*
X99026501Y-56683252D01*
X99074341Y-56472006D01*
X99110095Y-56293404D01*
X99125164Y-56198844D01*
X99153561Y-55971560D01*
X99323770Y-56031613D01*
X99514161Y-56076247D01*
X99720316Y-56089236D01*
X99908688Y-56070552D01*
X100025186Y-56032188D01*
X100137387Y-55956985D01*
X100240897Y-55864167D01*
X100342295Y-55755622D01*
X100499387Y-55880042D01*
G37*
X100499387Y-55880042D02*
X100734409Y-56026640D01*
X100967109Y-56089973D01*
X101203208Y-56071059D01*
X101331363Y-56028166D01*
X101470587Y-55976863D01*
X101538857Y-55969243D01*
X101537646Y-56005145D01*
X101537522Y-56005346D01*
X101532862Y-56061665D01*
X101539087Y-56183616D01*
X101554067Y-56353170D01*
X101575673Y-56552300D01*
X101601777Y-56762975D01*
X101630250Y-56967168D01*
X101658963Y-57146851D01*
X101685787Y-57283993D01*
X101691150Y-57306374D01*
X101712031Y-57403746D01*
X101711214Y-57480424D01*
X101681372Y-57562193D01*
X101615178Y-57674838D01*
X101563866Y-57754317D01*
X101415686Y-57969363D01*
X101288091Y-58119932D01*
X101165346Y-58218026D01*
X101031717Y-58275649D01*
X100871466Y-58304804D01*
X100838000Y-58308005D01*
X100671531Y-58324019D01*
X100520599Y-58341339D01*
X100435834Y-58353382D01*
X100313702Y-58351782D01*
X100170990Y-58320571D01*
X100139500Y-58309463D01*
X99948028Y-58264961D01*
X99711066Y-58266341D01*
X99451966Y-58288790D01*
X99257362Y-58026311D01*
X99143736Y-57865880D01*
X99034692Y-57700019D01*
X98955694Y-57567875D01*
X98848629Y-57371917D01*
X98972697Y-56899023D01*
X99026501Y-56683252D01*
X99074341Y-56472006D01*
X99110095Y-56293404D01*
X99125164Y-56198844D01*
X99153561Y-55971560D01*
X99323770Y-56031613D01*
X99514161Y-56076247D01*
X99720316Y-56089236D01*
X99908688Y-56070552D01*
X100025186Y-56032188D01*
X100137387Y-55956985D01*
X100240897Y-55864167D01*
X100342295Y-55755622D01*
X100499387Y-55880042D01*
G36*
X98428554Y-56135027D02*
G01*
X98493513Y-56156515D01*
X98614554Y-56224644D01*
X98727202Y-56312934D01*
X98814848Y-56404495D01*
X98860879Y-56482437D01*
X98855582Y-56524685D01*
X98805331Y-56535757D01*
X98718359Y-56494164D01*
X98610129Y-56416057D01*
X98476999Y-56318294D01*
X98384598Y-56272836D01*
X98310714Y-56275359D01*
X98233131Y-56321543D01*
X98211641Y-56338524D01*
X98144110Y-56435794D01*
X98152942Y-56558772D01*
X98238758Y-56710517D01*
X98302997Y-56789390D01*
X98377880Y-56886893D01*
X98387462Y-56933970D01*
X98372447Y-56938333D01*
X98299001Y-56909184D01*
X98238001Y-56857534D01*
X98144291Y-56781716D01*
X98039859Y-56724951D01*
X97941972Y-56695569D01*
X97872408Y-56715657D01*
X97831253Y-56748811D01*
X97761062Y-56863054D01*
X97757716Y-56996550D01*
X97820796Y-57117131D01*
X97836255Y-57132381D01*
X97918031Y-57220053D01*
X97964744Y-57287109D01*
X97981455Y-57350763D01*
X97946730Y-57367603D01*
X97875881Y-57342901D01*
X97784222Y-57281929D01*
X97689093Y-57192211D01*
X97568382Y-57016007D01*
X97531517Y-56843273D01*
X97578265Y-56667518D01*
X97665471Y-56533057D01*
X97852801Y-56337288D01*
X98050418Y-56202058D01*
X98246333Y-56132820D01*
X98428554Y-56135027D01*
G37*
X98428554Y-56135027D02*
X98493513Y-56156515D01*
X98614554Y-56224644D01*
X98727202Y-56312934D01*
X98814848Y-56404495D01*
X98860879Y-56482437D01*
X98855582Y-56524685D01*
X98805331Y-56535757D01*
X98718359Y-56494164D01*
X98610129Y-56416057D01*
X98476999Y-56318294D01*
X98384598Y-56272836D01*
X98310714Y-56275359D01*
X98233131Y-56321543D01*
X98211641Y-56338524D01*
X98144110Y-56435794D01*
X98152942Y-56558772D01*
X98238758Y-56710517D01*
X98302997Y-56789390D01*
X98377880Y-56886893D01*
X98387462Y-56933970D01*
X98372447Y-56938333D01*
X98299001Y-56909184D01*
X98238001Y-56857534D01*
X98144291Y-56781716D01*
X98039859Y-56724951D01*
X97941972Y-56695569D01*
X97872408Y-56715657D01*
X97831253Y-56748811D01*
X97761062Y-56863054D01*
X97757716Y-56996550D01*
X97820796Y-57117131D01*
X97836255Y-57132381D01*
X97918031Y-57220053D01*
X97964744Y-57287109D01*
X97981455Y-57350763D01*
X97946730Y-57367603D01*
X97875881Y-57342901D01*
X97784222Y-57281929D01*
X97689093Y-57192211D01*
X97568382Y-57016007D01*
X97531517Y-56843273D01*
X97578265Y-56667518D01*
X97665471Y-56533057D01*
X97852801Y-56337288D01*
X98050418Y-56202058D01*
X98246333Y-56132820D01*
X98428554Y-56135027D01*
G36*
X102713352Y-56034441D02*
G01*
X102961621Y-56190711D01*
X103145634Y-56367504D01*
X103258434Y-56556430D01*
X103293334Y-56733772D01*
X103270920Y-56856379D01*
X103213575Y-56992040D01*
X103136145Y-57116436D01*
X103053476Y-57205250D01*
X102987541Y-57234666D01*
X102924108Y-57219853D01*
X102912550Y-57202916D01*
X102933177Y-57150789D01*
X102985178Y-57055110D01*
X103017063Y-57001833D01*
X103102061Y-56819673D01*
X103121200Y-56672992D01*
X103084643Y-56570584D01*
X103002556Y-56521242D01*
X102885103Y-56533759D01*
X102742448Y-56616928D01*
X102659905Y-56692861D01*
X102562626Y-56788181D01*
X102509059Y-56823215D01*
X102489642Y-56803478D01*
X102489000Y-56791444D01*
X102516405Y-56695844D01*
X102551997Y-56642555D01*
X102621612Y-56523304D01*
X102644826Y-56390124D01*
X102617967Y-56276250D01*
X102595715Y-56246762D01*
X102487293Y-56183528D01*
X102367450Y-56201695D01*
X102233129Y-56301881D01*
X102211092Y-56324500D01*
X102091979Y-56433821D01*
X102013621Y-56472994D01*
X101982184Y-56446003D01*
X102003834Y-56356830D01*
X102069754Y-56233220D01*
X102209654Y-56070800D01*
X102376242Y-55985826D01*
X102561204Y-55980867D01*
X102713352Y-56034441D01*
G37*
X102713352Y-56034441D02*
X102961621Y-56190711D01*
X103145634Y-56367504D01*
X103258434Y-56556430D01*
X103293334Y-56733772D01*
X103270920Y-56856379D01*
X103213575Y-56992040D01*
X103136145Y-57116436D01*
X103053476Y-57205250D01*
X102987541Y-57234666D01*
X102924108Y-57219853D01*
X102912550Y-57202916D01*
X102933177Y-57150789D01*
X102985178Y-57055110D01*
X103017063Y-57001833D01*
X103102061Y-56819673D01*
X103121200Y-56672992D01*
X103084643Y-56570584D01*
X103002556Y-56521242D01*
X102885103Y-56533759D01*
X102742448Y-56616928D01*
X102659905Y-56692861D01*
X102562626Y-56788181D01*
X102509059Y-56823215D01*
X102489642Y-56803478D01*
X102489000Y-56791444D01*
X102516405Y-56695844D01*
X102551997Y-56642555D01*
X102621612Y-56523304D01*
X102644826Y-56390124D01*
X102617967Y-56276250D01*
X102595715Y-56246762D01*
X102487293Y-56183528D01*
X102367450Y-56201695D01*
X102233129Y-56301881D01*
X102211092Y-56324500D01*
X102091979Y-56433821D01*
X102013621Y-56472994D01*
X101982184Y-56446003D01*
X102003834Y-56356830D01*
X102069754Y-56233220D01*
X102209654Y-56070800D01*
X102376242Y-55985826D01*
X102561204Y-55980867D01*
X102713352Y-56034441D01*
G36*
X99161725Y-54059654D02*
G01*
X99271873Y-54188059D01*
X99334803Y-54298538D01*
X99368482Y-54427193D01*
X99378109Y-54494378D01*
X99387605Y-54799769D01*
X99334741Y-55055933D01*
X99257529Y-55208291D01*
X99159220Y-55335618D01*
X99078352Y-55390516D01*
X98998304Y-55378073D01*
X98913362Y-55313624D01*
X98763898Y-55211026D01*
X98590194Y-55144452D01*
X98425972Y-55125119D01*
X98370688Y-55133077D01*
X98204753Y-55214353D01*
X98089850Y-55353904D01*
X98032914Y-55537727D01*
X98040882Y-55751820D01*
X98047885Y-55784750D01*
X98066104Y-55894801D01*
X98047297Y-55959592D01*
X97992660Y-56007000D01*
X97918898Y-56066537D01*
X97807275Y-56166749D01*
X97679434Y-56288078D01*
X97653053Y-56313916D01*
X97537905Y-56426036D01*
X97448224Y-56510870D01*
X97398915Y-56554409D01*
X97394115Y-56557333D01*
X97368383Y-56524111D01*
X97317666Y-56440549D01*
X97293880Y-56398583D01*
X97162410Y-56085031D01*
X97086973Y-55732023D01*
X97069680Y-55365375D01*
X97112640Y-55010906D01*
X97165155Y-54823467D01*
X97293328Y-54561926D01*
X97482582Y-54310238D01*
X97710823Y-54094077D01*
X97903052Y-53965920D01*
X98033149Y-53901677D01*
X98134831Y-53876225D01*
X98250879Y-53882531D01*
X98329750Y-53895779D01*
X98578923Y-53915042D01*
X98763336Y-53898090D01*
X98974671Y-53859678D01*
X99161725Y-54059654D01*
G37*
X99161725Y-54059654D02*
X99271873Y-54188059D01*
X99334803Y-54298538D01*
X99368482Y-54427193D01*
X99378109Y-54494378D01*
X99387605Y-54799769D01*
X99334741Y-55055933D01*
X99257529Y-55208291D01*
X99159220Y-55335618D01*
X99078352Y-55390516D01*
X98998304Y-55378073D01*
X98913362Y-55313624D01*
X98763898Y-55211026D01*
X98590194Y-55144452D01*
X98425972Y-55125119D01*
X98370688Y-55133077D01*
X98204753Y-55214353D01*
X98089850Y-55353904D01*
X98032914Y-55537727D01*
X98040882Y-55751820D01*
X98047885Y-55784750D01*
X98066104Y-55894801D01*
X98047297Y-55959592D01*
X97992660Y-56007000D01*
X97918898Y-56066537D01*
X97807275Y-56166749D01*
X97679434Y-56288078D01*
X97653053Y-56313916D01*
X97537905Y-56426036D01*
X97448224Y-56510870D01*
X97398915Y-56554409D01*
X97394115Y-56557333D01*
X97368383Y-56524111D01*
X97317666Y-56440549D01*
X97293880Y-56398583D01*
X97162410Y-56085031D01*
X97086973Y-55732023D01*
X97069680Y-55365375D01*
X97112640Y-55010906D01*
X97165155Y-54823467D01*
X97293328Y-54561926D01*
X97482582Y-54310238D01*
X97710823Y-54094077D01*
X97903052Y-53965920D01*
X98033149Y-53901677D01*
X98134831Y-53876225D01*
X98250879Y-53882531D01*
X98329750Y-53895779D01*
X98578923Y-53915042D01*
X98763336Y-53898090D01*
X98974671Y-53859678D01*
X99161725Y-54059654D01*
G36*
X98929182Y-56142816D02*
G01*
X98923994Y-56182185D01*
X98900678Y-56214052D01*
X98873012Y-56182015D01*
X98857478Y-56119692D01*
X98865261Y-56102961D01*
X98907111Y-56096009D01*
X98929182Y-56142816D01*
G37*
X98929182Y-56142816D02*
X98923994Y-56182185D01*
X98900678Y-56214052D01*
X98873012Y-56182015D01*
X98857478Y-56119692D01*
X98865261Y-56102961D01*
X98907111Y-56096009D01*
X98929182Y-56142816D01*
G36*
X102341511Y-53958959D02*
G01*
X102438847Y-54000525D01*
X102520279Y-54046664D01*
X102720957Y-54189266D01*
X102928054Y-54378301D01*
X103118024Y-54588988D01*
X103267321Y-54796545D01*
X103315701Y-54883830D01*
X103425463Y-55202700D01*
X103455019Y-55541426D01*
X103403579Y-55890526D01*
X103400314Y-55902772D01*
X103358988Y-56043968D01*
X103322505Y-56148694D01*
X103299084Y-56193831D01*
X103254550Y-56178193D01*
X103169304Y-56120260D01*
X103102834Y-56066939D01*
X102973997Y-55967915D01*
X102843913Y-55883254D01*
X102795917Y-55857443D01*
X102713873Y-55810961D01*
X102673196Y-55755321D01*
X102659534Y-55661316D01*
X102658334Y-55577447D01*
X102650151Y-55436273D01*
X102614500Y-55337663D01*
X102534724Y-55240207D01*
X102514400Y-55219600D01*
X102356444Y-55106060D01*
X102190146Y-55075716D01*
X102011173Y-55128286D01*
X101922153Y-55181075D01*
X101808074Y-55243387D01*
X101715790Y-55248706D01*
X101628293Y-55190580D01*
X101528578Y-55062557D01*
X101501428Y-55021470D01*
X101408332Y-54814576D01*
X101361294Y-54571762D01*
X101366204Y-54331638D01*
X101383361Y-54247466D01*
X101462066Y-54087584D01*
X101586858Y-53988087D01*
X101741820Y-53958165D01*
X101847952Y-53979235D01*
X101984964Y-54007059D01*
X102130550Y-53985646D01*
X102154378Y-53978789D01*
X102258338Y-53953875D01*
X102341511Y-53958959D01*
G37*
X102341511Y-53958959D02*
X102438847Y-54000525D01*
X102520279Y-54046664D01*
X102720957Y-54189266D01*
X102928054Y-54378301D01*
X103118024Y-54588988D01*
X103267321Y-54796545D01*
X103315701Y-54883830D01*
X103425463Y-55202700D01*
X103455019Y-55541426D01*
X103403579Y-55890526D01*
X103400314Y-55902772D01*
X103358988Y-56043968D01*
X103322505Y-56148694D01*
X103299084Y-56193831D01*
X103254550Y-56178193D01*
X103169304Y-56120260D01*
X103102834Y-56066939D01*
X102973997Y-55967915D01*
X102843913Y-55883254D01*
X102795917Y-55857443D01*
X102713873Y-55810961D01*
X102673196Y-55755321D01*
X102659534Y-55661316D01*
X102658334Y-55577447D01*
X102650151Y-55436273D01*
X102614500Y-55337663D01*
X102534724Y-55240207D01*
X102514400Y-55219600D01*
X102356444Y-55106060D01*
X102190146Y-55075716D01*
X102011173Y-55128286D01*
X101922153Y-55181075D01*
X101808074Y-55243387D01*
X101715790Y-55248706D01*
X101628293Y-55190580D01*
X101528578Y-55062557D01*
X101501428Y-55021470D01*
X101408332Y-54814576D01*
X101361294Y-54571762D01*
X101366204Y-54331638D01*
X101383361Y-54247466D01*
X101462066Y-54087584D01*
X101586858Y-53988087D01*
X101741820Y-53958165D01*
X101847952Y-53979235D01*
X101984964Y-54007059D01*
X102130550Y-53985646D01*
X102154378Y-53978789D01*
X102258338Y-53953875D01*
X102341511Y-53958959D01*
G36*
X98584866Y-55326545D02*
G01*
X98728524Y-55409545D01*
X98806316Y-55484661D01*
X98907787Y-55637449D01*
X98934058Y-55773572D01*
X98885095Y-55884810D01*
X98808102Y-55942412D01*
X98719816Y-55985510D01*
X98671901Y-56004059D01*
X98670519Y-56004024D01*
X98626407Y-55987048D01*
X98573167Y-55964666D01*
X98463176Y-55934807D01*
X98377021Y-55925308D01*
X98293299Y-55902511D01*
X98242343Y-55830935D01*
X98218140Y-55697629D01*
X98213912Y-55574059D01*
X98244523Y-55430019D01*
X98327078Y-55339165D01*
X98445788Y-55303879D01*
X98584866Y-55326545D01*
G37*
X98584866Y-55326545D02*
X98728524Y-55409545D01*
X98806316Y-55484661D01*
X98907787Y-55637449D01*
X98934058Y-55773572D01*
X98885095Y-55884810D01*
X98808102Y-55942412D01*
X98719816Y-55985510D01*
X98671901Y-56004059D01*
X98670519Y-56004024D01*
X98626407Y-55987048D01*
X98573167Y-55964666D01*
X98463176Y-55934807D01*
X98377021Y-55925308D01*
X98293299Y-55902511D01*
X98242343Y-55830935D01*
X98218140Y-55697629D01*
X98213912Y-55574059D01*
X98244523Y-55430019D01*
X98327078Y-55339165D01*
X98445788Y-55303879D01*
X98584866Y-55326545D01*
G36*
X100085808Y-54147232D02*
G01*
X100165462Y-54171081D01*
X100310415Y-54207238D01*
X100478526Y-54224231D01*
X100695339Y-54224068D01*
X100790099Y-54220202D01*
X101203670Y-54200288D01*
X101185423Y-54420320D01*
X101199272Y-54721589D01*
X101286810Y-55005277D01*
X101441517Y-55251676D01*
X101471737Y-55285965D01*
X101563448Y-55393441D01*
X101625376Y-55481583D01*
X101642334Y-55522284D01*
X101608424Y-55592347D01*
X101521786Y-55683100D01*
X101405053Y-55776650D01*
X101280861Y-55855103D01*
X101171844Y-55900566D01*
X101160785Y-55902968D01*
X100948455Y-55900807D01*
X100736015Y-55818684D01*
X100536767Y-55663433D01*
X100440467Y-55572490D01*
X100367015Y-55512828D01*
X100340584Y-55499121D01*
X100298877Y-55531265D01*
X100236812Y-55610338D01*
X100224167Y-55629237D01*
X100072794Y-55788808D01*
X99876191Y-55884624D01*
X99649247Y-55912546D01*
X99406852Y-55868432D01*
X99387682Y-55861825D01*
X99211772Y-55783005D01*
X99120371Y-55702289D01*
X99113525Y-55619762D01*
X99191279Y-55535507D01*
X99206198Y-55525349D01*
X99287312Y-55449663D01*
X99379911Y-55331431D01*
X99428448Y-55255897D01*
X99482663Y-55157102D01*
X99517024Y-55068115D01*
X99535787Y-54965435D01*
X99543208Y-54825564D01*
X99543544Y-54625004D01*
X99543510Y-54620583D01*
X99542814Y-54425560D01*
X99546488Y-54299945D01*
X99557783Y-54228485D01*
X99579952Y-54195928D01*
X99616245Y-54187022D01*
X99636005Y-54186666D01*
X99750259Y-54171277D01*
X99843108Y-54144355D01*
X99949331Y-54125523D01*
X100085808Y-54147232D01*
G37*
X100085808Y-54147232D02*
X100165462Y-54171081D01*
X100310415Y-54207238D01*
X100478526Y-54224231D01*
X100695339Y-54224068D01*
X100790099Y-54220202D01*
X101203670Y-54200288D01*
X101185423Y-54420320D01*
X101199272Y-54721589D01*
X101286810Y-55005277D01*
X101441517Y-55251676D01*
X101471737Y-55285965D01*
X101563448Y-55393441D01*
X101625376Y-55481583D01*
X101642334Y-55522284D01*
X101608424Y-55592347D01*
X101521786Y-55683100D01*
X101405053Y-55776650D01*
X101280861Y-55855103D01*
X101171844Y-55900566D01*
X101160785Y-55902968D01*
X100948455Y-55900807D01*
X100736015Y-55818684D01*
X100536767Y-55663433D01*
X100440467Y-55572490D01*
X100367015Y-55512828D01*
X100340584Y-55499121D01*
X100298877Y-55531265D01*
X100236812Y-55610338D01*
X100224167Y-55629237D01*
X100072794Y-55788808D01*
X99876191Y-55884624D01*
X99649247Y-55912546D01*
X99406852Y-55868432D01*
X99387682Y-55861825D01*
X99211772Y-55783005D01*
X99120371Y-55702289D01*
X99113525Y-55619762D01*
X99191279Y-55535507D01*
X99206198Y-55525349D01*
X99287312Y-55449663D01*
X99379911Y-55331431D01*
X99428448Y-55255897D01*
X99482663Y-55157102D01*
X99517024Y-55068115D01*
X99535787Y-54965435D01*
X99543208Y-54825564D01*
X99543544Y-54625004D01*
X99543510Y-54620583D01*
X99542814Y-54425560D01*
X99546488Y-54299945D01*
X99557783Y-54228485D01*
X99579952Y-54195928D01*
X99616245Y-54187022D01*
X99636005Y-54186666D01*
X99750259Y-54171277D01*
X99843108Y-54144355D01*
X99949331Y-54125523D01*
X100085808Y-54147232D01*
G36*
X102326816Y-55283186D02*
G01*
X102418310Y-55381174D01*
X102473329Y-55514107D01*
X102480476Y-55617365D01*
X102461382Y-55714264D01*
X102409504Y-55772406D01*
X102299890Y-55819585D01*
X102298500Y-55820067D01*
X102169695Y-55861283D01*
X102082663Y-55871650D01*
X101999822Y-55849829D01*
X101906917Y-55806112D01*
X101808986Y-55749554D01*
X101775942Y-55693240D01*
X101799617Y-55608487D01*
X101831988Y-55542968D01*
X101929914Y-55406847D01*
X102056254Y-55301587D01*
X102184224Y-55247943D01*
X102216470Y-55245000D01*
X102326816Y-55283186D01*
G37*
X102326816Y-55283186D02*
X102418310Y-55381174D01*
X102473329Y-55514107D01*
X102480476Y-55617365D01*
X102461382Y-55714264D01*
X102409504Y-55772406D01*
X102299890Y-55819585D01*
X102298500Y-55820067D01*
X102169695Y-55861283D01*
X102082663Y-55871650D01*
X101999822Y-55849829D01*
X101906917Y-55806112D01*
X101808986Y-55749554D01*
X101775942Y-55693240D01*
X101799617Y-55608487D01*
X101831988Y-55542968D01*
X101929914Y-55406847D01*
X102056254Y-55301587D01*
X102184224Y-55247943D01*
X102216470Y-55245000D01*
X102326816Y-55283186D01*
G36*
X102009382Y-50805823D02*
G01*
X102198265Y-50956425D01*
X102225885Y-50985514D01*
X102393428Y-51208443D01*
X102506661Y-51461348D01*
X102570636Y-51759555D01*
X102590355Y-52091166D01*
X102586863Y-52280064D01*
X102575625Y-52443285D01*
X102558618Y-52558131D01*
X102546523Y-52594281D01*
X102517674Y-52629071D01*
X102487144Y-52616996D01*
X102444373Y-52547077D01*
X102388879Y-52430415D01*
X102328106Y-52271425D01*
X102287592Y-52115158D01*
X102277334Y-52025306D01*
X102246223Y-51807797D01*
X102161171Y-51619609D01*
X102034593Y-51472809D01*
X101878908Y-51379467D01*
X101706532Y-51351649D01*
X101603452Y-51370404D01*
X101419680Y-51470465D01*
X101266060Y-51634438D01*
X101154559Y-51843544D01*
X101097147Y-52079002D01*
X101092000Y-52172906D01*
X101092000Y-52406186D01*
X100854298Y-52518637D01*
X100684323Y-52615415D01*
X100512151Y-52738669D01*
X100430964Y-52808954D01*
X100325667Y-52916645D01*
X100269942Y-53001618D01*
X100248372Y-53095421D01*
X100245334Y-53188810D01*
X100255424Y-53329021D01*
X100297810Y-53430030D01*
X100385928Y-53531394D01*
X100542567Y-53649874D01*
X100718734Y-53702654D01*
X100930851Y-53692791D01*
X101076025Y-53659790D01*
X101245787Y-53613910D01*
X101353427Y-53591568D01*
X101418548Y-53594174D01*
X101460751Y-53623136D01*
X101499638Y-53679863D01*
X101506316Y-53690723D01*
X101543292Y-53760940D01*
X101545477Y-53813216D01*
X101501849Y-53857245D01*
X101401383Y-53902718D01*
X101233058Y-53959327D01*
X101182791Y-53975191D01*
X100899888Y-54036197D01*
X100601649Y-54053483D01*
X100328441Y-54025035D01*
X100302070Y-54019128D01*
X100061660Y-53926368D01*
X99885484Y-53778570D01*
X99774418Y-53576858D01*
X99729340Y-53322355D01*
X99728350Y-53283262D01*
X99755311Y-53006049D01*
X99844984Y-52775940D01*
X100002388Y-52586412D01*
X100232541Y-52430944D01*
X100461123Y-52330842D01*
X100774500Y-52215252D01*
X100804883Y-51878042D01*
X100861358Y-51513294D01*
X100959551Y-51220670D01*
X101101176Y-50997673D01*
X101287951Y-50841806D01*
X101521589Y-50750572D01*
X101588539Y-50737403D01*
X101810186Y-50734390D01*
X102009382Y-50805823D01*
G37*
X102009382Y-50805823D02*
X102198265Y-50956425D01*
X102225885Y-50985514D01*
X102393428Y-51208443D01*
X102506661Y-51461348D01*
X102570636Y-51759555D01*
X102590355Y-52091166D01*
X102586863Y-52280064D01*
X102575625Y-52443285D01*
X102558618Y-52558131D01*
X102546523Y-52594281D01*
X102517674Y-52629071D01*
X102487144Y-52616996D01*
X102444373Y-52547077D01*
X102388879Y-52430415D01*
X102328106Y-52271425D01*
X102287592Y-52115158D01*
X102277334Y-52025306D01*
X102246223Y-51807797D01*
X102161171Y-51619609D01*
X102034593Y-51472809D01*
X101878908Y-51379467D01*
X101706532Y-51351649D01*
X101603452Y-51370404D01*
X101419680Y-51470465D01*
X101266060Y-51634438D01*
X101154559Y-51843544D01*
X101097147Y-52079002D01*
X101092000Y-52172906D01*
X101092000Y-52406186D01*
X100854298Y-52518637D01*
X100684323Y-52615415D01*
X100512151Y-52738669D01*
X100430964Y-52808954D01*
X100325667Y-52916645D01*
X100269942Y-53001618D01*
X100248372Y-53095421D01*
X100245334Y-53188810D01*
X100255424Y-53329021D01*
X100297810Y-53430030D01*
X100385928Y-53531394D01*
X100542567Y-53649874D01*
X100718734Y-53702654D01*
X100930851Y-53692791D01*
X101076025Y-53659790D01*
X101245787Y-53613910D01*
X101353427Y-53591568D01*
X101418548Y-53594174D01*
X101460751Y-53623136D01*
X101499638Y-53679863D01*
X101506316Y-53690723D01*
X101543292Y-53760940D01*
X101545477Y-53813216D01*
X101501849Y-53857245D01*
X101401383Y-53902718D01*
X101233058Y-53959327D01*
X101182791Y-53975191D01*
X100899888Y-54036197D01*
X100601649Y-54053483D01*
X100328441Y-54025035D01*
X100302070Y-54019128D01*
X100061660Y-53926368D01*
X99885484Y-53778570D01*
X99774418Y-53576858D01*
X99729340Y-53322355D01*
X99728350Y-53283262D01*
X99755311Y-53006049D01*
X99844984Y-52775940D01*
X100002388Y-52586412D01*
X100232541Y-52430944D01*
X100461123Y-52330842D01*
X100774500Y-52215252D01*
X100804883Y-51878042D01*
X100861358Y-51513294D01*
X100959551Y-51220670D01*
X101101176Y-50997673D01*
X101287951Y-50841806D01*
X101521589Y-50750572D01*
X101588539Y-50737403D01*
X101810186Y-50734390D01*
X102009382Y-50805823D01*
G36*
X99556037Y-53548720D02*
G01*
X99604450Y-53636885D01*
X99659142Y-53751731D01*
X99708350Y-53867304D01*
X99740312Y-53957650D01*
X99744504Y-53996052D01*
X99666107Y-54023524D01*
X99544881Y-54017182D01*
X99412815Y-53982840D01*
X99301899Y-53926312D01*
X99284611Y-53912453D01*
X99165834Y-53807573D01*
X99335167Y-53660043D01*
X99433663Y-53577531D01*
X99504498Y-53524295D01*
X99525667Y-53513191D01*
X99556037Y-53548720D01*
G37*
X99556037Y-53548720D02*
X99604450Y-53636885D01*
X99659142Y-53751731D01*
X99708350Y-53867304D01*
X99740312Y-53957650D01*
X99744504Y-53996052D01*
X99666107Y-54023524D01*
X99544881Y-54017182D01*
X99412815Y-53982840D01*
X99301899Y-53926312D01*
X99284611Y-53912453D01*
X99165834Y-53807573D01*
X99335167Y-53660043D01*
X99433663Y-53577531D01*
X99504498Y-53524295D01*
X99525667Y-53513191D01*
X99556037Y-53548720D01*
G36*
X101556953Y-51787298D02*
G01*
X101565088Y-51791147D01*
X101832225Y-51963738D01*
X102048694Y-52204044D01*
X102141423Y-52356023D01*
X102269172Y-52637381D01*
X102353715Y-52913517D01*
X102394590Y-53172297D01*
X102391335Y-53401586D01*
X102343486Y-53589251D01*
X102250582Y-53723156D01*
X102195012Y-53762078D01*
X102042518Y-53804476D01*
X101889119Y-53783668D01*
X101774355Y-53710416D01*
X101696058Y-53617798D01*
X101600636Y-53493958D01*
X101560030Y-53438080D01*
X101362322Y-53230127D01*
X101113938Y-53088633D01*
X100819969Y-53016351D01*
X100771588Y-53011595D01*
X100625423Y-52998586D01*
X100549924Y-52984595D01*
X100531326Y-52962367D01*
X100555861Y-52924643D01*
X100572090Y-52906438D01*
X100727387Y-52782980D01*
X100962020Y-52666227D01*
X101092000Y-52616687D01*
X101282500Y-52549431D01*
X101282500Y-52205560D01*
X101287255Y-52014387D01*
X101303508Y-51889655D01*
X101334242Y-51813568D01*
X101351778Y-51792245D01*
X101404910Y-51749922D01*
X101461904Y-51748332D01*
X101556953Y-51787298D01*
G37*
X101556953Y-51787298D02*
X101565088Y-51791147D01*
X101832225Y-51963738D01*
X102048694Y-52204044D01*
X102141423Y-52356023D01*
X102269172Y-52637381D01*
X102353715Y-52913517D01*
X102394590Y-53172297D01*
X102391335Y-53401586D01*
X102343486Y-53589251D01*
X102250582Y-53723156D01*
X102195012Y-53762078D01*
X102042518Y-53804476D01*
X101889119Y-53783668D01*
X101774355Y-53710416D01*
X101696058Y-53617798D01*
X101600636Y-53493958D01*
X101560030Y-53438080D01*
X101362322Y-53230127D01*
X101113938Y-53088633D01*
X100819969Y-53016351D01*
X100771588Y-53011595D01*
X100625423Y-52998586D01*
X100549924Y-52984595D01*
X100531326Y-52962367D01*
X100555861Y-52924643D01*
X100572090Y-52906438D01*
X100727387Y-52782980D01*
X100962020Y-52666227D01*
X101092000Y-52616687D01*
X101282500Y-52549431D01*
X101282500Y-52205560D01*
X101287255Y-52014387D01*
X101303508Y-51889655D01*
X101334242Y-51813568D01*
X101351778Y-51792245D01*
X101404910Y-51749922D01*
X101461904Y-51748332D01*
X101556953Y-51787298D01*
G36*
X100682541Y-48948680D02*
G01*
X100906597Y-49024400D01*
X101114789Y-49163517D01*
X101167913Y-49209627D01*
X101356794Y-49427608D01*
X101470822Y-49676962D01*
X101514554Y-49968291D01*
X101515334Y-50017731D01*
X101500098Y-50260510D01*
X101448971Y-50441093D01*
X101353819Y-50577270D01*
X101210532Y-50684486D01*
X100989732Y-50862567D01*
X100819805Y-51107809D01*
X100701190Y-51419364D01*
X100634891Y-51790801D01*
X100605167Y-52083103D01*
X100313764Y-52201047D01*
X100016493Y-52358245D01*
X99786380Y-52560182D01*
X99627195Y-52802577D01*
X99543434Y-53076516D01*
X99510591Y-53199115D01*
X99444571Y-53305979D01*
X99326930Y-53426082D01*
X99312725Y-53438940D01*
X99175761Y-53545771D01*
X99032194Y-53632715D01*
X98942983Y-53670674D01*
X98718500Y-53710140D01*
X98465474Y-53712005D01*
X98227963Y-53677214D01*
X98148259Y-53653632D01*
X97895890Y-53521206D01*
X97691404Y-53327038D01*
X97544251Y-53084826D01*
X97463882Y-52808271D01*
X97451570Y-52643771D01*
X97458289Y-52516644D01*
X97623125Y-52516644D01*
X97636814Y-52770945D01*
X97716183Y-53016333D01*
X97853752Y-53235457D01*
X98042040Y-53410967D01*
X98214599Y-53504567D01*
X98369126Y-53539084D01*
X98564852Y-53546722D01*
X98763037Y-53528498D01*
X98923777Y-53485920D01*
X99149843Y-53350816D01*
X99321943Y-53166148D01*
X99438098Y-52946597D01*
X99496327Y-52706846D01*
X99494652Y-52461575D01*
X99431094Y-52225464D01*
X99303672Y-52013197D01*
X99142735Y-51861800D01*
X98891893Y-51727019D01*
X98630687Y-51669703D01*
X98372378Y-51686140D01*
X98130228Y-51772613D01*
X97917499Y-51925410D01*
X97747451Y-52140814D01*
X97682600Y-52270780D01*
X97623125Y-52516644D01*
X97458289Y-52516644D01*
X97464865Y-52392240D01*
X97511284Y-52195076D01*
X97601420Y-52025027D01*
X97745869Y-51854847D01*
X97766376Y-51834102D01*
X98006639Y-51638727D01*
X98253441Y-51527547D01*
X98508552Y-51500222D01*
X98773745Y-51556414D01*
X98910535Y-51615653D01*
X99124033Y-51738141D01*
X99284324Y-51872011D01*
X99421397Y-52044359D01*
X99471994Y-52122916D01*
X99549673Y-52245136D01*
X99609362Y-52332516D01*
X99638261Y-52366329D01*
X99638359Y-52366333D01*
X99680156Y-52345649D01*
X99769244Y-52292832D01*
X99833425Y-52252794D01*
X99988679Y-52165157D01*
X100157287Y-52085199D01*
X100203000Y-52066702D01*
X100393500Y-51994148D01*
X100423406Y-51661657D01*
X100439273Y-51492212D01*
X100453907Y-51347941D01*
X100464521Y-51256089D01*
X100465739Y-51247559D01*
X100456224Y-51196437D01*
X100401130Y-51147698D01*
X100286120Y-51090933D01*
X100203000Y-51056817D01*
X99975550Y-50961830D01*
X99808445Y-50878528D01*
X99680837Y-50794598D01*
X99571879Y-50697726D01*
X99541330Y-50666028D01*
X99411531Y-50509752D01*
X99336653Y-50362771D01*
X99303547Y-50191127D01*
X99298187Y-50038000D01*
X99299726Y-50025314D01*
X99484263Y-50025314D01*
X99522533Y-50308907D01*
X99628279Y-50551336D01*
X99791328Y-50745195D01*
X100001511Y-50883078D01*
X100248656Y-50957577D01*
X100522592Y-50961287D01*
X100714290Y-50921012D01*
X100949495Y-50808674D01*
X101138018Y-50633336D01*
X101270827Y-50407836D01*
X101338889Y-50145008D01*
X101346000Y-50023274D01*
X101323168Y-49773054D01*
X101247957Y-49570605D01*
X101110293Y-49390362D01*
X101087673Y-49367609D01*
X100859118Y-49189996D01*
X100617018Y-49095245D01*
X100355980Y-49081943D01*
X100151445Y-49122539D01*
X99904473Y-49235903D01*
X99705817Y-49411471D01*
X99565199Y-49636085D01*
X99492344Y-49896589D01*
X99484263Y-50025314D01*
X99299726Y-50025314D01*
X99336117Y-49725388D01*
X99444313Y-49453710D01*
X99615294Y-49230429D01*
X99841579Y-49063005D01*
X100115685Y-48958902D01*
X100413679Y-48925450D01*
X100682541Y-48948680D01*
G37*
X100682541Y-48948680D02*
X100906597Y-49024400D01*
X101114789Y-49163517D01*
X101167913Y-49209627D01*
X101356794Y-49427608D01*
X101470822Y-49676962D01*
X101514554Y-49968291D01*
X101515334Y-50017731D01*
X101500098Y-50260510D01*
X101448971Y-50441093D01*
X101353819Y-50577270D01*
X101210532Y-50684486D01*
X100989732Y-50862567D01*
X100819805Y-51107809D01*
X100701190Y-51419364D01*
X100634891Y-51790801D01*
X100605167Y-52083103D01*
X100313764Y-52201047D01*
X100016493Y-52358245D01*
X99786380Y-52560182D01*
X99627195Y-52802577D01*
X99543434Y-53076516D01*
X99510591Y-53199115D01*
X99444571Y-53305979D01*
X99326930Y-53426082D01*
X99312725Y-53438940D01*
X99175761Y-53545771D01*
X99032194Y-53632715D01*
X98942983Y-53670674D01*
X98718500Y-53710140D01*
X98465474Y-53712005D01*
X98227963Y-53677214D01*
X98148259Y-53653632D01*
X97895890Y-53521206D01*
X97691404Y-53327038D01*
X97544251Y-53084826D01*
X97463882Y-52808271D01*
X97451570Y-52643771D01*
X97458289Y-52516644D01*
X97623125Y-52516644D01*
X97636814Y-52770945D01*
X97716183Y-53016333D01*
X97853752Y-53235457D01*
X98042040Y-53410967D01*
X98214599Y-53504567D01*
X98369126Y-53539084D01*
X98564852Y-53546722D01*
X98763037Y-53528498D01*
X98923777Y-53485920D01*
X99149843Y-53350816D01*
X99321943Y-53166148D01*
X99438098Y-52946597D01*
X99496327Y-52706846D01*
X99494652Y-52461575D01*
X99431094Y-52225464D01*
X99303672Y-52013197D01*
X99142735Y-51861800D01*
X98891893Y-51727019D01*
X98630687Y-51669703D01*
X98372378Y-51686140D01*
X98130228Y-51772613D01*
X97917499Y-51925410D01*
X97747451Y-52140814D01*
X97682600Y-52270780D01*
X97623125Y-52516644D01*
X97458289Y-52516644D01*
X97464865Y-52392240D01*
X97511284Y-52195076D01*
X97601420Y-52025027D01*
X97745869Y-51854847D01*
X97766376Y-51834102D01*
X98006639Y-51638727D01*
X98253441Y-51527547D01*
X98508552Y-51500222D01*
X98773745Y-51556414D01*
X98910535Y-51615653D01*
X99124033Y-51738141D01*
X99284324Y-51872011D01*
X99421397Y-52044359D01*
X99471994Y-52122916D01*
X99549673Y-52245136D01*
X99609362Y-52332516D01*
X99638261Y-52366329D01*
X99638359Y-52366333D01*
X99680156Y-52345649D01*
X99769244Y-52292832D01*
X99833425Y-52252794D01*
X99988679Y-52165157D01*
X100157287Y-52085199D01*
X100203000Y-52066702D01*
X100393500Y-51994148D01*
X100423406Y-51661657D01*
X100439273Y-51492212D01*
X100453907Y-51347941D01*
X100464521Y-51256089D01*
X100465739Y-51247559D01*
X100456224Y-51196437D01*
X100401130Y-51147698D01*
X100286120Y-51090933D01*
X100203000Y-51056817D01*
X99975550Y-50961830D01*
X99808445Y-50878528D01*
X99680837Y-50794598D01*
X99571879Y-50697726D01*
X99541330Y-50666028D01*
X99411531Y-50509752D01*
X99336653Y-50362771D01*
X99303547Y-50191127D01*
X99298187Y-50038000D01*
X99299726Y-50025314D01*
X99484263Y-50025314D01*
X99522533Y-50308907D01*
X99628279Y-50551336D01*
X99791328Y-50745195D01*
X100001511Y-50883078D01*
X100248656Y-50957577D01*
X100522592Y-50961287D01*
X100714290Y-50921012D01*
X100949495Y-50808674D01*
X101138018Y-50633336D01*
X101270827Y-50407836D01*
X101338889Y-50145008D01*
X101346000Y-50023274D01*
X101323168Y-49773054D01*
X101247957Y-49570605D01*
X101110293Y-49390362D01*
X101087673Y-49367609D01*
X100859118Y-49189996D01*
X100617018Y-49095245D01*
X100355980Y-49081943D01*
X100151445Y-49122539D01*
X99904473Y-49235903D01*
X99705817Y-49411471D01*
X99565199Y-49636085D01*
X99492344Y-49896589D01*
X99484263Y-50025314D01*
X99299726Y-50025314D01*
X99336117Y-49725388D01*
X99444313Y-49453710D01*
X99615294Y-49230429D01*
X99841579Y-49063005D01*
X100115685Y-48958902D01*
X100413679Y-48925450D01*
X100682541Y-48948680D01*
G36*
X100837260Y-53191691D02*
G01*
X100982675Y-53236806D01*
X101102584Y-53285381D01*
X101218157Y-53342976D01*
X101252844Y-53388481D01*
X101207868Y-53430445D01*
X101128016Y-53462858D01*
X100919832Y-53508441D01*
X100725941Y-53501870D01*
X100569410Y-53445319D01*
X100518576Y-53405424D01*
X100436452Y-53309407D01*
X100428058Y-53248519D01*
X100497124Y-53210263D01*
X100582215Y-53192134D01*
X100714225Y-53178674D01*
X100837260Y-53191691D01*
G37*
X100837260Y-53191691D02*
X100982675Y-53236806D01*
X101102584Y-53285381D01*
X101218157Y-53342976D01*
X101252844Y-53388481D01*
X101207868Y-53430445D01*
X101128016Y-53462858D01*
X100919832Y-53508441D01*
X100725941Y-53501870D01*
X100569410Y-53445319D01*
X100518576Y-53405424D01*
X100436452Y-53309407D01*
X100428058Y-53248519D01*
X100497124Y-53210263D01*
X100582215Y-53192134D01*
X100714225Y-53178674D01*
X100837260Y-53191691D01*
G36*
X99209171Y-49501566D02*
G01*
X99184627Y-49600512D01*
X99161167Y-49680141D01*
X99112395Y-49974137D01*
X99139386Y-50275643D01*
X99239615Y-50559933D01*
X99253786Y-50586863D01*
X99396026Y-50776943D01*
X99602652Y-50957306D01*
X99853557Y-51112776D01*
X100082869Y-51212691D01*
X100206296Y-51262367D01*
X100263961Y-51305998D01*
X100272351Y-51357634D01*
X100269211Y-51371500D01*
X100254913Y-51465999D01*
X100246611Y-51600054D01*
X100245835Y-51646666D01*
X100245181Y-51837166D01*
X99698913Y-52106724D01*
X99547689Y-51896231D01*
X99334180Y-51666835D01*
X99063726Y-51483580D01*
X98787733Y-51370017D01*
X98532679Y-51317730D01*
X98302781Y-51326999D01*
X98075864Y-51401918D01*
X97829749Y-51546581D01*
X97829243Y-51546928D01*
X97608280Y-51698924D01*
X97638783Y-51090712D01*
X97660538Y-50761457D01*
X97695464Y-50502595D01*
X97753597Y-50299910D01*
X97844972Y-50139187D01*
X97979626Y-50006211D01*
X98167593Y-49886765D01*
X98418911Y-49766634D01*
X98638851Y-49674134D01*
X98839563Y-49593260D01*
X99010394Y-49526707D01*
X99137112Y-49479842D01*
X99205483Y-49458035D01*
X99213272Y-49457494D01*
X99209171Y-49501566D01*
G37*
X99209171Y-49501566D02*
X99184627Y-49600512D01*
X99161167Y-49680141D01*
X99112395Y-49974137D01*
X99139386Y-50275643D01*
X99239615Y-50559933D01*
X99253786Y-50586863D01*
X99396026Y-50776943D01*
X99602652Y-50957306D01*
X99853557Y-51112776D01*
X100082869Y-51212691D01*
X100206296Y-51262367D01*
X100263961Y-51305998D01*
X100272351Y-51357634D01*
X100269211Y-51371500D01*
X100254913Y-51465999D01*
X100246611Y-51600054D01*
X100245835Y-51646666D01*
X100245181Y-51837166D01*
X99698913Y-52106724D01*
X99547689Y-51896231D01*
X99334180Y-51666835D01*
X99063726Y-51483580D01*
X98787733Y-51370017D01*
X98532679Y-51317730D01*
X98302781Y-51326999D01*
X98075864Y-51401918D01*
X97829749Y-51546581D01*
X97829243Y-51546928D01*
X97608280Y-51698924D01*
X97638783Y-51090712D01*
X97660538Y-50761457D01*
X97695464Y-50502595D01*
X97753597Y-50299910D01*
X97844972Y-50139187D01*
X97979626Y-50006211D01*
X98167593Y-49886765D01*
X98418911Y-49766634D01*
X98638851Y-49674134D01*
X98839563Y-49593260D01*
X99010394Y-49526707D01*
X99137112Y-49479842D01*
X99205483Y-49458035D01*
X99213272Y-49457494D01*
X99209171Y-49501566D01*
G36*
X101860193Y-51580411D02*
G01*
X101964176Y-51652142D01*
X102048379Y-51781166D01*
X102082359Y-51856309D01*
X102078631Y-51886979D01*
X102028946Y-51871596D01*
X101925055Y-51808580D01*
X101818315Y-51737086D01*
X101592129Y-51583166D01*
X101725830Y-51569694D01*
X101860193Y-51580411D01*
G37*
X101860193Y-51580411D02*
X101964176Y-51652142D01*
X102048379Y-51781166D01*
X102082359Y-51856309D01*
X102078631Y-51886979D01*
X102028946Y-51871596D01*
X101925055Y-51808580D01*
X101818315Y-51737086D01*
X101592129Y-51583166D01*
X101725830Y-51569694D01*
X101860193Y-51580411D01*
G36*
X101832644Y-50136340D02*
G01*
X101925006Y-50191451D01*
X102014569Y-50280673D01*
X102084262Y-50392222D01*
X102105627Y-50450179D01*
X102123798Y-50564980D01*
X102095609Y-50611077D01*
X102022148Y-50586715D01*
X102021312Y-50586188D01*
X101939868Y-50560231D01*
X101819741Y-50547034D01*
X101799165Y-50546648D01*
X101638497Y-50546000D01*
X101664880Y-50387250D01*
X101686453Y-50269128D01*
X101705378Y-50183997D01*
X101707803Y-50175583D01*
X101754552Y-50127123D01*
X101832644Y-50136340D01*
G37*
X101832644Y-50136340D02*
X101925006Y-50191451D01*
X102014569Y-50280673D01*
X102084262Y-50392222D01*
X102105627Y-50450179D01*
X102123798Y-50564980D01*
X102095609Y-50611077D01*
X102022148Y-50586715D01*
X102021312Y-50586188D01*
X101939868Y-50560231D01*
X101819741Y-50547034D01*
X101799165Y-50546648D01*
X101638497Y-50546000D01*
X101664880Y-50387250D01*
X101686453Y-50269128D01*
X101705378Y-50183997D01*
X101707803Y-50175583D01*
X101754552Y-50127123D01*
X101832644Y-50136340D01*
G36*
X98678169Y-51871562D02*
G01*
X98875607Y-51929779D01*
X99051267Y-52036619D01*
X99191773Y-52190024D01*
X99283746Y-52387937D01*
X99314000Y-52609742D01*
X99290761Y-52834856D01*
X99212402Y-53017096D01*
X99071176Y-53182083D01*
X98872936Y-53315461D01*
X98645862Y-53374742D01*
X98405515Y-53357925D01*
X98220457Y-53291497D01*
X98024763Y-53150577D01*
X97885173Y-52959018D01*
X97809552Y-52735258D01*
X97809220Y-52714399D01*
X98051169Y-52714399D01*
X98113679Y-52884803D01*
X98232919Y-53020593D01*
X98400534Y-53106200D01*
X98556874Y-53128123D01*
X98741665Y-53103973D01*
X98868921Y-53036558D01*
X99008654Y-52880782D01*
X99076682Y-52702843D01*
X99076277Y-52519910D01*
X99010712Y-52349148D01*
X98883260Y-52207723D01*
X98697195Y-52112801D01*
X98692527Y-52111384D01*
X98496130Y-52093331D01*
X98313974Y-52152336D01*
X98165116Y-52280926D01*
X98129752Y-52332035D01*
X98053742Y-52524954D01*
X98051169Y-52714399D01*
X97809220Y-52714399D01*
X97805762Y-52497735D01*
X97832528Y-52381852D01*
X97938191Y-52166085D01*
X98088965Y-52009230D01*
X98271470Y-51909230D01*
X98472331Y-51864027D01*
X98678169Y-51871562D01*
G37*
X98678169Y-51871562D02*
X98875607Y-51929779D01*
X99051267Y-52036619D01*
X99191773Y-52190024D01*
X99283746Y-52387937D01*
X99314000Y-52609742D01*
X99290761Y-52834856D01*
X99212402Y-53017096D01*
X99071176Y-53182083D01*
X98872936Y-53315461D01*
X98645862Y-53374742D01*
X98405515Y-53357925D01*
X98220457Y-53291497D01*
X98024763Y-53150577D01*
X97885173Y-52959018D01*
X97809552Y-52735258D01*
X97809220Y-52714399D01*
X98051169Y-52714399D01*
X98113679Y-52884803D01*
X98232919Y-53020593D01*
X98400534Y-53106200D01*
X98556874Y-53128123D01*
X98741665Y-53103973D01*
X98868921Y-53036558D01*
X99008654Y-52880782D01*
X99076682Y-52702843D01*
X99076277Y-52519910D01*
X99010712Y-52349148D01*
X98883260Y-52207723D01*
X98697195Y-52112801D01*
X98692527Y-52111384D01*
X98496130Y-52093331D01*
X98313974Y-52152336D01*
X98165116Y-52280926D01*
X98129752Y-52332035D01*
X98053742Y-52524954D01*
X98051169Y-52714399D01*
X97809220Y-52714399D01*
X97805762Y-52497735D01*
X97832528Y-52381852D01*
X97938191Y-52166085D01*
X98088965Y-52009230D01*
X98271470Y-51909230D01*
X98472331Y-51864027D01*
X98678169Y-51871562D01*
G36*
X100454480Y-49284014D02*
G01*
X100702218Y-49339267D01*
X100905176Y-49457773D01*
X101055757Y-49626721D01*
X101146365Y-49833301D01*
X101169406Y-50064701D01*
X101117283Y-50308112D01*
X101094394Y-50363283D01*
X100969294Y-50542570D01*
X100787382Y-50678900D01*
X100569934Y-50762035D01*
X100338226Y-50781738D01*
X100248969Y-50770092D01*
X100062790Y-50696665D01*
X99889313Y-50564249D01*
X99758499Y-50396745D01*
X99742402Y-50365969D01*
X99667072Y-50125119D01*
X99667287Y-50054461D01*
X99843288Y-50054461D01*
X99871577Y-50235901D01*
X99961947Y-50397756D01*
X100084036Y-50502581D01*
X100276649Y-50577609D01*
X100467881Y-50568114D01*
X100630040Y-50491812D01*
X100786439Y-50347021D01*
X100866303Y-50171058D01*
X100879709Y-50044531D01*
X100842993Y-49854897D01*
X100742514Y-49700326D01*
X100595475Y-49591116D01*
X100419077Y-49537559D01*
X100230519Y-49549953D01*
X100122518Y-49591336D01*
X99969597Y-49712307D01*
X99876241Y-49873306D01*
X99843288Y-50054461D01*
X99667287Y-50054461D01*
X99667799Y-49886982D01*
X99740315Y-49666870D01*
X99880354Y-49480095D01*
X100018185Y-49376263D01*
X100146592Y-49310801D01*
X100263694Y-49282106D01*
X100411789Y-49281234D01*
X100454480Y-49284014D01*
G37*
X100454480Y-49284014D02*
X100702218Y-49339267D01*
X100905176Y-49457773D01*
X101055757Y-49626721D01*
X101146365Y-49833301D01*
X101169406Y-50064701D01*
X101117283Y-50308112D01*
X101094394Y-50363283D01*
X100969294Y-50542570D01*
X100787382Y-50678900D01*
X100569934Y-50762035D01*
X100338226Y-50781738D01*
X100248969Y-50770092D01*
X100062790Y-50696665D01*
X99889313Y-50564249D01*
X99758499Y-50396745D01*
X99742402Y-50365969D01*
X99667072Y-50125119D01*
X99667287Y-50054461D01*
X99843288Y-50054461D01*
X99871577Y-50235901D01*
X99961947Y-50397756D01*
X100084036Y-50502581D01*
X100276649Y-50577609D01*
X100467881Y-50568114D01*
X100630040Y-50491812D01*
X100786439Y-50347021D01*
X100866303Y-50171058D01*
X100879709Y-50044531D01*
X100842993Y-49854897D01*
X100742514Y-49700326D01*
X100595475Y-49591116D01*
X100419077Y-49537559D01*
X100230519Y-49549953D01*
X100122518Y-49591336D01*
X99969597Y-49712307D01*
X99876241Y-49873306D01*
X99843288Y-50054461D01*
X99667287Y-50054461D01*
X99667799Y-49886982D01*
X99740315Y-49666870D01*
X99880354Y-49480095D01*
X100018185Y-49376263D01*
X100146592Y-49310801D01*
X100263694Y-49282106D01*
X100411789Y-49281234D01*
X100454480Y-49284014D01*
G36*
X98721511Y-52314908D02*
G01*
X98834440Y-52411261D01*
X98887265Y-52565664D01*
X98890667Y-52626666D01*
X98855877Y-52783877D01*
X98764718Y-52896258D01*
X98637006Y-52955915D01*
X98492556Y-52954956D01*
X98351185Y-52885485D01*
X98317243Y-52855090D01*
X98231794Y-52719845D01*
X98216696Y-52574645D01*
X98263507Y-52439983D01*
X98363787Y-52336352D01*
X98509094Y-52284245D01*
X98553424Y-52281666D01*
X98721511Y-52314908D01*
G37*
X98721511Y-52314908D02*
X98834440Y-52411261D01*
X98887265Y-52565664D01*
X98890667Y-52626666D01*
X98855877Y-52783877D01*
X98764718Y-52896258D01*
X98637006Y-52955915D01*
X98492556Y-52954956D01*
X98351185Y-52885485D01*
X98317243Y-52855090D01*
X98231794Y-52719845D01*
X98216696Y-52574645D01*
X98263507Y-52439983D01*
X98363787Y-52336352D01*
X98509094Y-52284245D01*
X98553424Y-52281666D01*
X98721511Y-52314908D01*
G36*
X100482538Y-49751601D02*
G01*
X100608435Y-49839004D01*
X100614561Y-49845936D01*
X100697009Y-49989557D01*
X100694981Y-50131488D01*
X100608392Y-50273105D01*
X100587257Y-50295256D01*
X100466474Y-50389176D01*
X100347104Y-50411561D01*
X100211843Y-50374703D01*
X100118670Y-50298442D01*
X100048994Y-50172838D01*
X100019257Y-50032921D01*
X100023505Y-49973458D01*
X100085648Y-49842184D01*
X100198178Y-49758146D01*
X100338130Y-49726300D01*
X100482538Y-49751601D01*
G37*
X100482538Y-49751601D02*
X100608435Y-49839004D01*
X100614561Y-49845936D01*
X100697009Y-49989557D01*
X100694981Y-50131488D01*
X100608392Y-50273105D01*
X100587257Y-50295256D01*
X100466474Y-50389176D01*
X100347104Y-50411561D01*
X100211843Y-50374703D01*
X100118670Y-50298442D01*
X100048994Y-50172838D01*
X100019257Y-50032921D01*
X100023505Y-49973458D01*
X100085648Y-49842184D01*
X100198178Y-49758146D01*
X100338130Y-49726300D01*
X100482538Y-49751601D01*
D13*
X95050000Y-92928000D02*
X95050000Y-91150000D01*
X95050000Y-103850000D02*
X95050000Y-102072000D01*
X96828000Y-103850000D02*
X95050000Y-103850000D01*
X107750000Y-103850000D02*
X105972000Y-103850000D01*
X107750000Y-102072000D02*
X107750000Y-103850000D01*
X107750000Y-91150000D02*
X107750000Y-92928000D01*
X105972000Y-91150000D02*
X107750000Y-91150000D01*
X95050000Y-91150000D02*
X96828000Y-91150000D01*
D10*
X84900000Y-51300000D02*
X84900000Y-39300000D01*
X90900000Y-51300000D02*
X84900000Y-51300000D01*
X90900000Y-39300000D02*
X90900000Y-51300000D01*
X84900000Y-39300000D02*
X85400000Y-39300000D01*
X90400000Y-39300000D02*
X90400000Y-37400000D01*
X85400000Y-39300000D02*
X85400000Y-37400000D01*
X90900000Y-39300000D02*
X90400000Y-39300000D01*
X85400000Y-37400000D02*
X90400000Y-37400000D01*
X128750000Y-50550000D02*
X128750000Y-51550000D01*
X128750000Y-44050000D02*
X128750000Y-44950000D01*
X129450000Y-48250000D02*
X128050000Y-48250000D01*
X128050000Y-48250000D02*
X128750000Y-47350000D01*
X128750000Y-47350000D02*
X129450000Y-48250000D01*
X129450000Y-47350000D02*
X128050000Y-47350000D01*
X113700000Y-125124871D02*
X114200000Y-125990897D01*
X110450000Y-119495706D02*
X110900000Y-120275129D01*
X113156218Y-122783013D02*
X111943782Y-123483013D01*
X111943782Y-123483013D02*
X112100000Y-122353590D01*
X112100000Y-122353590D02*
X113156218Y-122783013D01*
X112706218Y-122003590D02*
X111493782Y-122703590D01*
X131250000Y-109800000D02*
X131250000Y-110800000D01*
X131250000Y-103300000D02*
X131250000Y-104200000D01*
X131950000Y-107500000D02*
X130550000Y-107500000D01*
X130550000Y-107500000D02*
X131250000Y-106600000D01*
X131250000Y-106600000D02*
X131950000Y-107500000D01*
X131950000Y-106600000D02*
X130550000Y-106600000D01*
X128750000Y-71800000D02*
X128750000Y-72800000D01*
X128750000Y-65300000D02*
X128750000Y-66200000D01*
X129450000Y-69500000D02*
X128050000Y-69500000D01*
X128050000Y-69500000D02*
X128750000Y-68600000D01*
X128750000Y-68600000D02*
X129450000Y-69500000D01*
X129450000Y-68600000D02*
X128050000Y-68600000D01*
X131250000Y-50550000D02*
X131250000Y-51550000D01*
X131250000Y-44050000D02*
X131250000Y-44950000D01*
X131950000Y-48250000D02*
X130550000Y-48250000D01*
X130550000Y-48250000D02*
X131250000Y-47350000D01*
X131250000Y-47350000D02*
X131950000Y-48250000D01*
X131950000Y-47350000D02*
X130550000Y-47350000D01*
X149250000Y-48050000D02*
X149250000Y-49050000D01*
X149250000Y-41550000D02*
X149250000Y-42450000D01*
X149950000Y-45750000D02*
X148550000Y-45750000D01*
X148550000Y-45750000D02*
X149250000Y-44850000D01*
X149250000Y-44850000D02*
X149950000Y-45750000D01*
X149950000Y-44850000D02*
X148550000Y-44850000D01*
X168250000Y-50300000D02*
X168250000Y-51300000D01*
X168250000Y-43800000D02*
X168250000Y-44700000D01*
X168950000Y-48000000D02*
X167550000Y-48000000D01*
X167550000Y-48000000D02*
X168250000Y-47100000D01*
X168250000Y-47100000D02*
X168950000Y-48000000D01*
X168950000Y-47100000D02*
X167550000Y-47100000D01*
X187250000Y-55300000D02*
X187250000Y-56300000D01*
X187250000Y-48800000D02*
X187250000Y-49700000D01*
X187950000Y-53000000D02*
X186550000Y-53000000D01*
X186550000Y-53000000D02*
X187250000Y-52100000D01*
X187250000Y-52100000D02*
X187950000Y-53000000D01*
X187950000Y-52100000D02*
X186550000Y-52100000D01*
X206250000Y-55300000D02*
X206250000Y-56300000D01*
X206250000Y-48800000D02*
X206250000Y-49700000D01*
X206950000Y-53000000D02*
X205550000Y-53000000D01*
X205550000Y-53000000D02*
X206250000Y-52100000D01*
X206250000Y-52100000D02*
X206950000Y-53000000D01*
X206950000Y-52100000D02*
X205550000Y-52100000D01*
X131252540Y-71752540D02*
X131252540Y-72752540D01*
X131252540Y-65252540D02*
X131252540Y-66152540D01*
X131952540Y-69452540D02*
X130552540Y-69452540D01*
X130552540Y-69452540D02*
X131252540Y-68552540D01*
X131252540Y-68552540D02*
X131952540Y-69452540D01*
X131952540Y-68552540D02*
X130552540Y-68552540D01*
X149000000Y-67300000D02*
X149000000Y-68300000D01*
X149000000Y-60800000D02*
X149000000Y-61700000D01*
X149700000Y-65000000D02*
X148300000Y-65000000D01*
X148300000Y-65000000D02*
X149000000Y-64100000D01*
X149000000Y-64100000D02*
X149700000Y-65000000D01*
X149700000Y-64100000D02*
X148300000Y-64100000D01*
X168250000Y-69300000D02*
X168250000Y-70300000D01*
X168250000Y-62800000D02*
X168250000Y-63700000D01*
X168950000Y-67000000D02*
X167550000Y-67000000D01*
X167550000Y-67000000D02*
X168250000Y-66100000D01*
X168250000Y-66100000D02*
X168950000Y-67000000D01*
X168950000Y-66100000D02*
X167550000Y-66100000D01*
X187250000Y-74050000D02*
X187250000Y-75050000D01*
X187250000Y-67550000D02*
X187250000Y-68450000D01*
X187950000Y-71750000D02*
X186550000Y-71750000D01*
X186550000Y-71750000D02*
X187250000Y-70850000D01*
X187250000Y-70850000D02*
X187950000Y-71750000D01*
X187950000Y-70850000D02*
X186550000Y-70850000D01*
X206250000Y-74050000D02*
X206250000Y-75050000D01*
X206250000Y-67550000D02*
X206250000Y-68450000D01*
X206950000Y-71750000D02*
X205550000Y-71750000D01*
X205550000Y-71750000D02*
X206250000Y-70850000D01*
X206250000Y-70850000D02*
X206950000Y-71750000D01*
X206950000Y-70850000D02*
X205550000Y-70850000D01*
X128750000Y-88550000D02*
X128750000Y-89550000D01*
X128750000Y-82050000D02*
X128750000Y-82950000D01*
X129450000Y-86250000D02*
X128050000Y-86250000D01*
X128050000Y-86250000D02*
X128750000Y-85350000D01*
X128750000Y-85350000D02*
X129450000Y-86250000D01*
X129450000Y-85350000D02*
X128050000Y-85350000D01*
X131250000Y-88550000D02*
X131250000Y-89550000D01*
X131250000Y-82050000D02*
X131250000Y-82950000D01*
X131950000Y-86250000D02*
X130550000Y-86250000D01*
X130550000Y-86250000D02*
X131250000Y-85350000D01*
X131250000Y-85350000D02*
X131950000Y-86250000D01*
X131950000Y-85350000D02*
X130550000Y-85350000D01*
X149000000Y-86300000D02*
X149000000Y-87300000D01*
X149000000Y-79800000D02*
X149000000Y-80700000D01*
X149700000Y-84000000D02*
X148300000Y-84000000D01*
X148300000Y-84000000D02*
X149000000Y-83100000D01*
X149000000Y-83100000D02*
X149700000Y-84000000D01*
X149700000Y-83100000D02*
X148300000Y-83100000D01*
X168250000Y-88550000D02*
X168250000Y-89550000D01*
X168250000Y-82050000D02*
X168250000Y-82950000D01*
X168950000Y-86250000D02*
X167550000Y-86250000D01*
X167550000Y-86250000D02*
X168250000Y-85350000D01*
X168250000Y-85350000D02*
X168950000Y-86250000D01*
X168950000Y-85350000D02*
X167550000Y-85350000D01*
X187250000Y-93550000D02*
X187250000Y-94550000D01*
X187250000Y-87050000D02*
X187250000Y-87950000D01*
X187950000Y-91250000D02*
X186550000Y-91250000D01*
X186550000Y-91250000D02*
X187250000Y-90350000D01*
X187250000Y-90350000D02*
X187950000Y-91250000D01*
X187950000Y-90350000D02*
X186550000Y-90350000D01*
X206250000Y-93550000D02*
X206250000Y-94550000D01*
X206250000Y-87050000D02*
X206250000Y-87950000D01*
X206950000Y-91250000D02*
X205550000Y-91250000D01*
X205550000Y-91250000D02*
X206250000Y-90350000D01*
X206250000Y-90350000D02*
X206950000Y-91250000D01*
X206950000Y-90350000D02*
X205550000Y-90350000D01*
X128800000Y-109800000D02*
X128800000Y-110800000D01*
X128800000Y-103300000D02*
X128800000Y-104200000D01*
X129500000Y-107500000D02*
X128100000Y-107500000D01*
X128100000Y-107500000D02*
X128800000Y-106600000D01*
X128800000Y-106600000D02*
X129500000Y-107500000D01*
X129500000Y-106600000D02*
X128100000Y-106600000D01*
X149000000Y-105300000D02*
X149000000Y-106300000D01*
X149000000Y-98800000D02*
X149000000Y-99700000D01*
X149700000Y-103000000D02*
X148300000Y-103000000D01*
X148300000Y-103000000D02*
X149000000Y-102100000D01*
X149000000Y-102100000D02*
X149700000Y-103000000D01*
X149700000Y-102100000D02*
X148300000Y-102100000D01*
X168250000Y-107550000D02*
X168250000Y-108550000D01*
X168250000Y-101050000D02*
X168250000Y-101950000D01*
X168950000Y-105250000D02*
X167550000Y-105250000D01*
X167550000Y-105250000D02*
X168250000Y-104350000D01*
X168250000Y-104350000D02*
X168950000Y-105250000D01*
X168950000Y-104350000D02*
X167550000Y-104350000D01*
X187250000Y-112300000D02*
X187250000Y-113300000D01*
X187250000Y-105800000D02*
X187250000Y-106700000D01*
X187950000Y-110000000D02*
X186550000Y-110000000D01*
X186550000Y-110000000D02*
X187250000Y-109100000D01*
X187250000Y-109100000D02*
X187950000Y-110000000D01*
X187950000Y-109100000D02*
X186550000Y-109100000D01*
X206250000Y-112300000D02*
X206250000Y-113300000D01*
X206250000Y-105800000D02*
X206250000Y-106700000D01*
X206950000Y-110000000D02*
X205550000Y-110000000D01*
X205550000Y-110000000D02*
X206250000Y-109100000D01*
X206250000Y-109100000D02*
X206950000Y-110000000D01*
X206950000Y-109100000D02*
X205550000Y-109100000D01*
X109800000Y-99800000D02*
X109800000Y-100800000D01*
X109800000Y-93300000D02*
X109800000Y-94200000D01*
X110500000Y-97500000D02*
X109100000Y-97500000D01*
X109100000Y-97500000D02*
X109800000Y-96600000D01*
X109800000Y-96600000D02*
X110500000Y-97500000D01*
X110500000Y-96600000D02*
X109100000Y-96600000D01*
X121700000Y-130300000D02*
X121700000Y-131300000D01*
X121700000Y-123800000D02*
X121700000Y-124700000D01*
X122400000Y-128000000D02*
X121000000Y-128000000D01*
X121000000Y-128000000D02*
X121700000Y-127100000D01*
X121700000Y-127100000D02*
X122400000Y-128000000D01*
X122400000Y-127100000D02*
X121000000Y-127100000D01*
X139200000Y-125200000D02*
X139200000Y-126200000D01*
X139200000Y-118700000D02*
X139200000Y-119600000D01*
X139900000Y-122900000D02*
X138500000Y-122900000D01*
X138500000Y-122900000D02*
X139200000Y-122000000D01*
X139200000Y-122000000D02*
X139900000Y-122900000D01*
X139900000Y-122000000D02*
X138500000Y-122000000D01*
X158700000Y-125200000D02*
X158700000Y-126200000D01*
X158700000Y-118700000D02*
X158700000Y-119600000D01*
X159400000Y-122900000D02*
X158000000Y-122900000D01*
X158000000Y-122900000D02*
X158700000Y-122000000D01*
X158700000Y-122000000D02*
X159400000Y-122900000D01*
X159400000Y-122000000D02*
X158000000Y-122000000D01*
X94833973Y-77533759D02*
X87213973Y-77533759D01*
X94833973Y-72453759D02*
X94833973Y-77533759D01*
X87213973Y-72453759D02*
X94833973Y-72453759D01*
X87213973Y-77533759D02*
X87213973Y-72453759D01*
X86900000Y-71500000D02*
X86900000Y-65500000D01*
X83400000Y-65500000D02*
X83400000Y-71500000D01*
X86900000Y-71500000D02*
X86400000Y-71500000D01*
X83400000Y-71500000D02*
X83800000Y-71500000D01*
X83400000Y-65500000D02*
X83800000Y-65500000D01*
X86900000Y-65500000D02*
X86400000Y-65500000D01*
X85688795Y-57540412D02*
X85688795Y-54538132D01*
X83687275Y-57540412D02*
X85688795Y-57540412D01*
X83687275Y-54538132D02*
X83687275Y-57540412D01*
X85688795Y-54538132D02*
X83687275Y-54538132D01*
X87938795Y-57540412D02*
X87938795Y-54538132D01*
X85937275Y-57540412D02*
X87938795Y-57540412D01*
X85937275Y-54538132D02*
X85937275Y-57540412D01*
X87938795Y-54538132D02*
X85937275Y-54538132D01*
X85900000Y-61700000D02*
X87900000Y-61700000D01*
X85900000Y-59700000D02*
X85900000Y-61700000D01*
X87900000Y-59700000D02*
X85900000Y-59700000D01*
X87900000Y-61700000D02*
X87900000Y-59700000D01*
X83700000Y-61700000D02*
X85700000Y-61700000D01*
X83700000Y-59700000D02*
X83700000Y-61700000D01*
X85700000Y-59700000D02*
X83700000Y-59700000D01*
X85700000Y-61700000D02*
X85700000Y-59700000D01*
D14*
X107448815Y-71535745D02*
X109988815Y-71535745D01*
X94748815Y-41055745D02*
X92208815Y-41055745D01*
D10*
X92208815Y-41055745D02*
X92208815Y-71535745D01*
D14*
X92208815Y-38515745D02*
X92208815Y-71535745D01*
X109988815Y-38515745D02*
X92208815Y-38515745D01*
X92208815Y-71535745D02*
X94748815Y-71535745D01*
X109988815Y-41055745D02*
X107448815Y-41055745D01*
X109988815Y-71535745D02*
X109988815Y-38515745D01*
X107448815Y-41055745D02*
X107448815Y-71535745D01*
X94748815Y-71535745D02*
X94748815Y-41055745D01*
D10*
X109988815Y-71535745D02*
X109988815Y-41055745D01*
X88111000Y-61843000D02*
X88111000Y-59557000D01*
X88111000Y-59557000D02*
X89889000Y-59557000D01*
X89889000Y-59557000D02*
X89889000Y-61843000D01*
X89889000Y-61843000D02*
X88111000Y-61843000D01*
X103411000Y-71543000D02*
X103411000Y-69257000D01*
X103411000Y-69257000D02*
X105189000Y-69257000D01*
X105189000Y-69257000D02*
X105189000Y-71543000D01*
X105189000Y-71543000D02*
X103411000Y-71543000D01*
X102689000Y-71543000D02*
X100911000Y-71543000D01*
X102689000Y-69257000D02*
X102689000Y-71543000D01*
X100911000Y-69257000D02*
X102689000Y-69257000D01*
X100911000Y-71543000D02*
X100911000Y-69257000D01*
X98311000Y-71543000D02*
X98311000Y-69257000D01*
X98311000Y-69257000D02*
X100089000Y-69257000D01*
X100089000Y-69257000D02*
X100089000Y-71543000D01*
X100089000Y-71543000D02*
X98311000Y-71543000D01*
X97589000Y-71543000D02*
X95811000Y-71543000D01*
X97589000Y-69257000D02*
X97589000Y-71543000D01*
X95811000Y-69257000D02*
X97589000Y-69257000D01*
X95811000Y-71543000D02*
X95811000Y-69257000D01*
X95430000Y-76270000D02*
X95430000Y-73730000D01*
X105590000Y-73730000D02*
X105590000Y-76270000D01*
X95430000Y-73730000D02*
X105590000Y-73730000D01*
X95430000Y-76270000D02*
X105590000Y-76270000D01*
D15*
X109050000Y-85000000D02*
G75*
G03*
X109050000Y-85000000I-1050000J0D01*
G01*
X87050000Y-85000000D02*
G75*
G03*
X87050000Y-85000000I-1050000J0D01*
G01*
X102742503Y-92339053D02*
X102703054Y-92917710D01*
X105136946Y-92502290D02*
X105097497Y-93080947D01*
X102703055Y-92917710D02*
G75*
G03*
X105097497Y-93080946I1197221J-81618D01*
G01*
X105136945Y-92502290D02*
G75*
G03*
X102742503Y-92339054I-1197221J81618D01*
G01*
X97737392Y-92386425D02*
X96528468Y-94284056D01*
X99761532Y-93675944D02*
X98552608Y-95573575D01*
X96528468Y-94284055D02*
G75*
G03*
X98552608Y-95573575I1012070J-644760D01*
G01*
X99761532Y-93675945D02*
G75*
G03*
X97737392Y-92386425I-1012070J644760D01*
G01*
X86700000Y-47800000D02*
G75*
G03*
X86700000Y-47800000I-550000J0D01*
G01*
X86700000Y-40800000D02*
G75*
G03*
X86700000Y-40800000I-550000J0D01*
G01*
X83500000Y-48600000D02*
X83500000Y-50600000D01*
X84600000Y-50600000D01*
X84600000Y-48600000D01*
X83500000Y-48600000D01*
X87700000Y-50100000D02*
X87700000Y-52100000D01*
X88800000Y-52100000D01*
X88800000Y-50100000D01*
X87700000Y-50100000D01*
X83500000Y-41600000D02*
X83500000Y-43600000D01*
X84600000Y-43600000D01*
X84600000Y-41600000D01*
X83500000Y-41600000D01*
X83500000Y-44600000D02*
X83500000Y-46600000D01*
X84600000Y-46600000D01*
X84600000Y-44600000D01*
X83500000Y-44600000D01*
X88450000Y-40800000D02*
G75*
G03*
X88450000Y-40800000I-550000J0D01*
G01*
X88450000Y-47800000D02*
G75*
G03*
X88450000Y-47800000I-550000J0D01*
G01*
X89450000Y-41600000D02*
X89450000Y-43600000D01*
X90550000Y-43600000D01*
X90550000Y-41600000D01*
X89450000Y-41600000D01*
X89450000Y-44600000D02*
X89450000Y-46600000D01*
X90550000Y-46600000D01*
X90550000Y-44600000D01*
X89450000Y-44600000D01*
X89450000Y-48600000D02*
X89450000Y-50600000D01*
X90550000Y-50600000D01*
X90550000Y-48600000D01*
X89450000Y-48600000D01*
X85250000Y-50100000D02*
X85250000Y-52100000D01*
X86350000Y-52100000D01*
X86350000Y-50100000D01*
X85250000Y-50100000D01*
X97348500Y-75000000D02*
G75*
G03*
X97348500Y-75000000I-648500J0D01*
G01*
X99888500Y-75000000D02*
G75*
G03*
X99888500Y-75000000I-648500J0D01*
G01*
X102428500Y-75000000D02*
G75*
G03*
X102428500Y-75000000I-648500J0D01*
G01*
X104968500Y-75000000D02*
G75*
G03*
X104968500Y-75000000I-648500J0D01*
G01*
D10*
X85461904Y-69661904D02*
X85080952Y-69928571D01*
X85461904Y-70119047D02*
X84661904Y-70119047D01*
X84661904Y-69814285D01*
X84700000Y-69738095D01*
X84738095Y-69700000D01*
X84814285Y-69661904D01*
X84928571Y-69661904D01*
X85004761Y-69700000D01*
X85042857Y-69738095D01*
X85080952Y-69814285D01*
X85080952Y-70119047D01*
X85042857Y-69319047D02*
X85042857Y-69052380D01*
X85461904Y-68938095D02*
X85461904Y-69319047D01*
X84661904Y-69319047D01*
X84661904Y-68938095D01*
X85423809Y-68633333D02*
X85461904Y-68519047D01*
X85461904Y-68328571D01*
X85423809Y-68252380D01*
X85385714Y-68214285D01*
X85309523Y-68176190D01*
X85233333Y-68176190D01*
X85157142Y-68214285D01*
X85119047Y-68252380D01*
X85080952Y-68328571D01*
X85042857Y-68480952D01*
X85004761Y-68557142D01*
X84966666Y-68595238D01*
X84890476Y-68633333D01*
X84814285Y-68633333D01*
X84738095Y-68595238D01*
X84700000Y-68557142D01*
X84661904Y-68480952D01*
X84661904Y-68290476D01*
X84700000Y-68176190D01*
X85042857Y-67833333D02*
X85042857Y-67566666D01*
X85461904Y-67452380D02*
X85461904Y-67833333D01*
X84661904Y-67833333D01*
X84661904Y-67452380D01*
X84661904Y-67223809D02*
X84661904Y-66766666D01*
X85461904Y-66995238D02*
X84661904Y-66995238D01*
X85067695Y-56135466D02*
X84680647Y-56406400D01*
X85067695Y-56599923D02*
X84254895Y-56599923D01*
X84254895Y-56290285D01*
X84293600Y-56212876D01*
X84332304Y-56174171D01*
X84409714Y-56135466D01*
X84525828Y-56135466D01*
X84603238Y-56174171D01*
X84641942Y-56212876D01*
X84680647Y-56290285D01*
X84680647Y-56599923D01*
X85067695Y-55361371D02*
X85067695Y-55825828D01*
X85067695Y-55593600D02*
X84254895Y-55593600D01*
X84371009Y-55671009D01*
X84448419Y-55748419D01*
X84487123Y-55825828D01*
X87267695Y-56135466D02*
X86880647Y-56406400D01*
X87267695Y-56599923D02*
X86454895Y-56599923D01*
X86454895Y-56290285D01*
X86493600Y-56212876D01*
X86532304Y-56174171D01*
X86609714Y-56135466D01*
X86725828Y-56135466D01*
X86803238Y-56174171D01*
X86841942Y-56212876D01*
X86880647Y-56290285D01*
X86880647Y-56599923D01*
X86532304Y-55825828D02*
X86493600Y-55787123D01*
X86454895Y-55709714D01*
X86454895Y-55516190D01*
X86493600Y-55438780D01*
X86532304Y-55400076D01*
X86609714Y-55361371D01*
X86687123Y-55361371D01*
X86803238Y-55400076D01*
X87267695Y-55864533D01*
X87267695Y-55361371D01*
X86300076Y-62739639D02*
X86300076Y-61926839D01*
X86609714Y-61926839D01*
X86687123Y-61965544D01*
X86725828Y-62004248D01*
X86764533Y-62081658D01*
X86764533Y-62197772D01*
X86725828Y-62275182D01*
X86687123Y-62313886D01*
X86609714Y-62352591D01*
X86300076Y-62352591D01*
X87074171Y-62004248D02*
X87112876Y-61965544D01*
X87190285Y-61926839D01*
X87383809Y-61926839D01*
X87461219Y-61965544D01*
X87499923Y-62004248D01*
X87538628Y-62081658D01*
X87538628Y-62159067D01*
X87499923Y-62275182D01*
X87035466Y-62739639D01*
X87538628Y-62739639D01*
X84100076Y-62739639D02*
X84100076Y-61926839D01*
X84409714Y-61926839D01*
X84487123Y-61965544D01*
X84525828Y-62004248D01*
X84564533Y-62081658D01*
X84564533Y-62197772D01*
X84525828Y-62275182D01*
X84487123Y-62313886D01*
X84409714Y-62352591D01*
X84100076Y-62352591D01*
X85338628Y-62739639D02*
X84874171Y-62739639D01*
X85106400Y-62739639D02*
X85106400Y-61926839D01*
X85028990Y-62042953D01*
X84951580Y-62120363D01*
X84874171Y-62159067D01*
M02*
