G04 #@! TF.GenerationSoftware,KiCad,Pcbnew,5.1.6-c6e7f7d~87~ubuntu20.04.1*
G04 #@! TF.CreationDate,2020-10-22T20:53:10+01:00*
G04 #@! TF.ProjectId,Lily58,4c696c79-3538-42e6-9b69-6361645f7063,rev?*
G04 #@! TF.SameCoordinates,Original*
G04 #@! TF.FileFunction,Soldermask,Bot*
G04 #@! TF.FilePolarity,Negative*
%FSLAX46Y46*%
G04 Gerber Fmt 4.6, Leading zero omitted, Abs format (unit mm)*
G04 Created by KiCad (PCBNEW 5.1.6-c6e7f7d~87~ubuntu20.04.1) date 2020-10-22 20:53:10*
%MOMM*%
%LPD*%
G01*
G04 APERTURE LIST*
%ADD10C,0.200000*%
%ADD11R,2.400000X2.400000*%
%ADD12C,2.400000*%
%ADD13C,2.600000*%
%ADD14C,2.101800*%
%ADD15C,4.387800*%
%ADD16C,1.600000*%
%ADD17R,1.600000X2.500000*%
%ADD18R,1.900000X2.200000*%
%ADD19C,2.398980*%
%ADD20R,2.398980X2.398980*%
%ADD21C,0.100000*%
%ADD22C,5.300000*%
%ADD23R,1.797000X1.797000*%
%ADD24C,1.797000*%
%ADD25C,2.900000*%
%ADD26C,1.924000*%
%ADD27C,1.400000*%
%ADD28C,3.000000*%
%ADD29C,3.200000*%
%ADD30C,2.100000*%
%ADD31C,4.400000*%
%ADD32C,2.300000*%
%ADD33R,1.924000X1.924000*%
%ADD34R,1.543000X1.035000*%
G04 APERTURE END LIST*
D10*
X219685714Y-119233333D02*
X219304761Y-119233333D01*
X219761904Y-119461904D02*
X219495238Y-118661904D01*
X219228571Y-119461904D01*
X218847619Y-119461904D02*
X218923809Y-119423809D01*
X218961904Y-119347619D01*
X218961904Y-118661904D01*
X218200000Y-118928571D02*
X218200000Y-119576190D01*
X218238095Y-119652380D01*
X218276190Y-119690476D01*
X218352380Y-119728571D01*
X218466666Y-119728571D01*
X218542857Y-119690476D01*
X218200000Y-119423809D02*
X218276190Y-119461904D01*
X218428571Y-119461904D01*
X218504761Y-119423809D01*
X218542857Y-119385714D01*
X218580952Y-119309523D01*
X218580952Y-119080952D01*
X218542857Y-119004761D01*
X218504761Y-118966666D01*
X218428571Y-118928571D01*
X218276190Y-118928571D01*
X218200000Y-118966666D01*
X217704761Y-119461904D02*
X217780952Y-119423809D01*
X217819047Y-119385714D01*
X217857142Y-119309523D01*
X217857142Y-119080952D01*
X217819047Y-119004761D01*
X217780952Y-118966666D01*
X217704761Y-118928571D01*
X217590476Y-118928571D01*
X217514285Y-118966666D01*
X217476190Y-119004761D01*
X217438095Y-119080952D01*
X217438095Y-119309523D01*
X217476190Y-119385714D01*
X217514285Y-119423809D01*
X217590476Y-119461904D01*
X217704761Y-119461904D01*
X217095238Y-119461904D02*
X217095238Y-118928571D01*
X217095238Y-119080952D02*
X217057142Y-119004761D01*
X217019047Y-118966666D01*
X216942857Y-118928571D01*
X216866666Y-118928571D01*
X216600000Y-119461904D02*
X216600000Y-118928571D01*
X216600000Y-118661904D02*
X216638095Y-118700000D01*
X216600000Y-118738095D01*
X216561904Y-118700000D01*
X216600000Y-118661904D01*
X216600000Y-118738095D01*
X216257142Y-119423809D02*
X216180952Y-119461904D01*
X216028571Y-119461904D01*
X215952380Y-119423809D01*
X215914285Y-119347619D01*
X215914285Y-119309523D01*
X215952380Y-119233333D01*
X216028571Y-119195238D01*
X216142857Y-119195238D01*
X216219047Y-119157142D01*
X216257142Y-119080952D01*
X216257142Y-119042857D01*
X216219047Y-118966666D01*
X216142857Y-118928571D01*
X216028571Y-118928571D01*
X215952380Y-118966666D01*
X215685714Y-118928571D02*
X215380952Y-118928571D01*
X215571428Y-118661904D02*
X215571428Y-119347619D01*
X215533333Y-119423809D01*
X215457142Y-119461904D01*
X215380952Y-119461904D01*
X215114285Y-119385714D02*
X215076190Y-119423809D01*
X215114285Y-119461904D01*
X215152380Y-119423809D01*
X215114285Y-119385714D01*
X215114285Y-119461904D01*
X214390476Y-119423809D02*
X214466666Y-119461904D01*
X214619047Y-119461904D01*
X214695238Y-119423809D01*
X214733333Y-119385714D01*
X214771428Y-119309523D01*
X214771428Y-119080952D01*
X214733333Y-119004761D01*
X214695238Y-118966666D01*
X214619047Y-118928571D01*
X214466666Y-118928571D01*
X214390476Y-118966666D01*
X213933333Y-119461904D02*
X214009523Y-119423809D01*
X214047619Y-119385714D01*
X214085714Y-119309523D01*
X214085714Y-119080952D01*
X214047619Y-119004761D01*
X214009523Y-118966666D01*
X213933333Y-118928571D01*
X213819047Y-118928571D01*
X213742857Y-118966666D01*
X213704761Y-119004761D01*
X213666666Y-119080952D01*
X213666666Y-119309523D01*
X213704761Y-119385714D01*
X213742857Y-119423809D01*
X213819047Y-119461904D01*
X213933333Y-119461904D01*
X213323809Y-119385714D02*
X213285714Y-119423809D01*
X213323809Y-119461904D01*
X213361904Y-119423809D01*
X213323809Y-119385714D01*
X213323809Y-119461904D01*
X212600000Y-118928571D02*
X212600000Y-119461904D01*
X212942857Y-118928571D02*
X212942857Y-119347619D01*
X212904761Y-119423809D01*
X212828571Y-119461904D01*
X212714285Y-119461904D01*
X212638095Y-119423809D01*
X212600000Y-119385714D01*
X212219047Y-119461904D02*
X212219047Y-118661904D01*
X212142857Y-119157142D02*
X211914285Y-119461904D01*
X211914285Y-118928571D02*
X212219047Y-119233333D01*
D11*
X103441500Y-105346500D03*
D12*
X100941500Y-105346500D03*
X98441500Y-105346500D03*
X103441500Y-90846500D03*
X98441500Y-90846500D03*
D13*
X108000000Y-85000000D03*
X86000000Y-85000000D03*
G36*
G01*
X102453633Y-92900706D02*
X102493082Y-92322050D01*
G75*
G02*
X104038346Y-90974030I1446642J-98622D01*
G01*
X104038346Y-90974030D01*
G75*
G02*
X105386366Y-92519294I-98622J-1446642D01*
G01*
X105346918Y-93097950D01*
G75*
G02*
X103801654Y-94445970I-1446642J98622D01*
G01*
X103801654Y-94445970D01*
G75*
G02*
X102453634Y-92900706I98622J1446642D01*
G01*
G37*
G36*
G01*
X96317620Y-94149731D02*
X97526544Y-92252101D01*
G75*
G02*
X99528546Y-91808267I1222918J-779084D01*
G01*
X99528546Y-91808267D01*
G75*
G02*
X99972380Y-93810269I-779084J-1222918D01*
G01*
X98763456Y-95707899D01*
G75*
G02*
X96761454Y-96151733I-1222918J779084D01*
G01*
X96761454Y-96151733D01*
G75*
G02*
X96317620Y-94149731I779084J1222918D01*
G01*
G37*
D14*
X106480000Y-97500000D03*
X96320000Y-97500000D03*
D15*
X101400000Y-97500000D03*
D16*
X86150000Y-47800000D03*
X86150000Y-40800000D03*
D17*
X84050000Y-49600000D03*
X88250000Y-51100000D03*
X84050000Y-42600000D03*
X84050000Y-45600000D03*
D16*
X87900000Y-40800000D03*
X87900000Y-47800000D03*
D17*
X90000000Y-42600000D03*
X90000000Y-45600000D03*
X90000000Y-49600000D03*
X85800000Y-51100000D03*
D18*
X128750000Y-49450000D03*
X128750000Y-46050000D03*
D19*
X128752540Y-52910000D03*
D20*
X128752540Y-42750000D03*
D21*
G36*
X111777276Y-123694615D02*
G01*
X113422724Y-122744615D01*
X114522724Y-124649871D01*
X112877276Y-125599871D01*
X111777276Y-123694615D01*
G37*
G36*
X110077276Y-120750129D02*
G01*
X111722724Y-119800129D01*
X112822724Y-121705385D01*
X111177276Y-122655385D01*
X110077276Y-120750129D01*
G37*
D19*
X114882200Y-127167421D03*
D21*
G36*
X111440734Y-118807647D02*
G01*
X109363156Y-120007137D01*
X108163666Y-117929559D01*
X110241244Y-116730069D01*
X111440734Y-118807647D01*
G37*
D18*
X131250000Y-108700000D03*
X131250000Y-105300000D03*
D19*
X131252540Y-112160000D03*
D20*
X131252540Y-102000000D03*
D18*
X128750000Y-70700000D03*
X128750000Y-67300000D03*
D19*
X128752540Y-74160000D03*
D20*
X128752540Y-64000000D03*
D18*
X131250000Y-49450000D03*
X131250000Y-46050000D03*
D19*
X131252540Y-52910000D03*
D20*
X131252540Y-42750000D03*
D18*
X149250000Y-46950000D03*
X149250000Y-43550000D03*
D19*
X149252540Y-50410000D03*
D20*
X149252540Y-40250000D03*
D18*
X168250000Y-49200000D03*
X168250000Y-45800000D03*
D19*
X168252540Y-52660000D03*
D20*
X168252540Y-42500000D03*
D18*
X187250000Y-54200000D03*
X187250000Y-50800000D03*
D19*
X187252540Y-57660000D03*
D20*
X187252540Y-47500000D03*
D18*
X206250000Y-54200000D03*
X206250000Y-50800000D03*
D19*
X206252540Y-57660000D03*
D20*
X206252540Y-47500000D03*
D18*
X131252540Y-70652540D03*
X131252540Y-67252540D03*
D19*
X131255080Y-74112540D03*
D20*
X131255080Y-63952540D03*
D18*
X149000000Y-66200000D03*
X149000000Y-62800000D03*
D19*
X149002540Y-69660000D03*
D20*
X149002540Y-59500000D03*
D18*
X168250000Y-68200000D03*
X168250000Y-64800000D03*
D19*
X168252540Y-71660000D03*
D20*
X168252540Y-61500000D03*
D18*
X187250000Y-72950000D03*
X187250000Y-69550000D03*
D19*
X187252540Y-76410000D03*
D20*
X187252540Y-66250000D03*
D18*
X206250000Y-72950000D03*
X206250000Y-69550000D03*
D19*
X206252540Y-76410000D03*
D20*
X206252540Y-66250000D03*
D18*
X128750000Y-87450000D03*
X128750000Y-84050000D03*
D19*
X128752540Y-90910000D03*
D20*
X128752540Y-80750000D03*
D18*
X131250000Y-87450000D03*
X131250000Y-84050000D03*
D19*
X131252540Y-90910000D03*
D20*
X131252540Y-80750000D03*
D18*
X149000000Y-85200000D03*
X149000000Y-81800000D03*
D19*
X149002540Y-88660000D03*
D20*
X149002540Y-78500000D03*
D18*
X168250000Y-87450000D03*
X168250000Y-84050000D03*
D19*
X168252540Y-90910000D03*
D20*
X168252540Y-80750000D03*
D18*
X187250000Y-92450000D03*
X187250000Y-89050000D03*
D19*
X187252540Y-95910000D03*
D20*
X187252540Y-85750000D03*
D18*
X206250000Y-92450000D03*
X206250000Y-89050000D03*
D19*
X206252540Y-95910000D03*
D20*
X206252540Y-85750000D03*
D18*
X128800000Y-108700000D03*
X128800000Y-105300000D03*
D19*
X128802540Y-112160000D03*
D20*
X128802540Y-102000000D03*
D18*
X149000000Y-104200000D03*
X149000000Y-100800000D03*
D19*
X149002540Y-107660000D03*
D20*
X149002540Y-97500000D03*
D18*
X168250000Y-106450000D03*
X168250000Y-103050000D03*
D19*
X168252540Y-109910000D03*
D20*
X168252540Y-99750000D03*
D18*
X187250000Y-111200000D03*
X187250000Y-107800000D03*
D19*
X187252540Y-114660000D03*
D20*
X187252540Y-104500000D03*
D18*
X206250000Y-111200000D03*
X206250000Y-107800000D03*
D19*
X206252540Y-114660000D03*
D20*
X206252540Y-104500000D03*
D18*
X109800000Y-98700000D03*
X109800000Y-95300000D03*
D19*
X109802540Y-102160000D03*
D20*
X109802540Y-92000000D03*
D18*
X121700000Y-129200000D03*
X121700000Y-125800000D03*
D19*
X121702540Y-132660000D03*
D20*
X121702540Y-122500000D03*
D18*
X139200000Y-124100000D03*
X139200000Y-120700000D03*
D19*
X139202540Y-127560000D03*
D20*
X139202540Y-117400000D03*
D18*
X158700000Y-124100000D03*
X158700000Y-120700000D03*
D19*
X158702540Y-127560000D03*
D20*
X158702540Y-117400000D03*
D22*
X129600000Y-59600000D03*
X205800000Y-61800000D03*
X129600000Y-97600000D03*
X205800000Y-100000000D03*
X105000000Y-114800000D03*
D23*
X88483973Y-76263759D03*
D24*
X88483973Y-73723759D03*
X91023973Y-76263759D03*
X91023973Y-73723759D03*
X93563973Y-76263759D03*
X93563973Y-73723759D03*
D25*
X85100000Y-71750000D03*
X85100000Y-65250000D03*
D24*
X84688035Y-53499272D03*
X84688035Y-58579272D03*
X86938035Y-53499272D03*
X86938035Y-58579272D03*
X86900000Y-60700000D03*
X84700000Y-60700000D03*
D26*
X93478815Y-47405745D03*
X108718815Y-65185745D03*
X93478815Y-57565745D03*
X108718815Y-55025745D03*
X108718815Y-49945745D03*
X93478815Y-67725745D03*
X108718815Y-47405745D03*
X108718815Y-42325745D03*
X93478815Y-62645745D03*
X108718815Y-70265745D03*
X93478815Y-55025745D03*
X93478815Y-44865745D03*
X93478815Y-49945745D03*
X93478815Y-52485745D03*
X93478815Y-65185745D03*
X93478815Y-60105745D03*
X108718815Y-62645745D03*
X108718815Y-60105745D03*
X93478815Y-70265745D03*
X108718815Y-67725745D03*
X108718815Y-44865745D03*
X93478815Y-42325745D03*
X108718815Y-57565745D03*
X108718815Y-52485745D03*
X92180000Y-41130000D03*
X92180000Y-43670000D03*
X92180000Y-46210000D03*
X92180000Y-48750000D03*
X92180000Y-51290000D03*
X92180000Y-53830000D03*
X92180000Y-56370000D03*
X92180000Y-58910000D03*
X92180000Y-61450000D03*
X92180000Y-63990000D03*
X92180000Y-66530000D03*
X92180000Y-69070000D03*
X107420000Y-69070000D03*
X107420000Y-66530000D03*
X107420000Y-63990000D03*
X107420000Y-61450000D03*
X107420000Y-58910000D03*
X107420000Y-56370000D03*
X107420000Y-53830000D03*
X107420000Y-51290000D03*
X107420000Y-48750000D03*
X107420000Y-46210000D03*
X107420000Y-43670000D03*
X107420000Y-41130000D03*
D27*
X111247307Y-129420653D03*
D28*
X104209103Y-133230127D03*
X99890450Y-129950000D03*
D29*
X99209103Y-124569873D03*
X110669409Y-126659705D03*
X108129409Y-122260295D03*
X109104705Y-129029557D03*
D30*
X107540000Y-131399409D03*
X102460000Y-122600591D03*
D31*
X105000000Y-127000000D03*
D29*
X105294705Y-122430443D03*
D27*
X106027307Y-120379347D03*
D32*
X102250000Y-122236860D03*
X107750000Y-131763140D03*
D33*
X112200000Y-81300000D03*
X112200000Y-78760000D03*
X112200000Y-76220000D03*
D27*
X125720000Y-83900000D03*
D28*
X125500000Y-91900000D03*
X120500000Y-94000000D03*
D29*
X115500000Y-91900000D03*
X123040000Y-83020000D03*
X117960000Y-83020000D03*
X124310000Y-85560000D03*
D30*
X125580000Y-88100000D03*
X115420000Y-88100000D03*
D31*
X120500000Y-88100000D03*
D29*
X116690000Y-85560000D03*
D27*
X115280000Y-83900000D03*
D32*
X115000000Y-88100000D03*
X126000000Y-88100000D03*
D27*
X220920000Y-87800000D03*
D28*
X220700000Y-95800000D03*
X215700000Y-97900000D03*
D29*
X210700000Y-95800000D03*
X218240000Y-86920000D03*
X213160000Y-86920000D03*
X219510000Y-89460000D03*
D30*
X220780000Y-92000000D03*
X210620000Y-92000000D03*
D31*
X215700000Y-92000000D03*
D29*
X211890000Y-89460000D03*
D27*
X210480000Y-87800000D03*
D32*
X210200000Y-92000000D03*
X221200000Y-92000000D03*
D27*
X220970000Y-106800000D03*
D28*
X220750000Y-114800000D03*
X215750000Y-116900000D03*
D29*
X210750000Y-114800000D03*
X218290000Y-105920000D03*
X213210000Y-105920000D03*
X219560000Y-108460000D03*
D30*
X220830000Y-111000000D03*
X210670000Y-111000000D03*
D31*
X215750000Y-111000000D03*
D29*
X211940000Y-108460000D03*
D27*
X210530000Y-106800000D03*
D32*
X210250000Y-111000000D03*
X221250000Y-111000000D03*
D27*
X154220000Y-119550000D03*
D28*
X154000000Y-127550000D03*
X149000000Y-129650000D03*
D29*
X144000000Y-127550000D03*
X151540000Y-118670000D03*
X146460000Y-118670000D03*
X152810000Y-121210000D03*
D30*
X154080000Y-123750000D03*
X143920000Y-123750000D03*
D31*
X149000000Y-123750000D03*
D29*
X145190000Y-121210000D03*
D27*
X143780000Y-119550000D03*
D32*
X143500000Y-123750000D03*
X154500000Y-123750000D03*
D27*
X125720000Y-45800000D03*
D28*
X125500000Y-53800000D03*
X120500000Y-55900000D03*
D29*
X115500000Y-53800000D03*
X123040000Y-44920000D03*
X117960000Y-44920000D03*
X124310000Y-47460000D03*
D30*
X125580000Y-50000000D03*
X115420000Y-50000000D03*
D31*
X120500000Y-50000000D03*
D29*
X116690000Y-47460000D03*
D27*
X115280000Y-45800000D03*
D32*
X115000000Y-50000000D03*
X126000000Y-50000000D03*
D27*
X144720000Y-43400000D03*
D28*
X144500000Y-51400000D03*
X139500000Y-53500000D03*
D29*
X134500000Y-51400000D03*
X142040000Y-42520000D03*
X136960000Y-42520000D03*
X143310000Y-45060000D03*
D30*
X144580000Y-47600000D03*
X134420000Y-47600000D03*
D31*
X139500000Y-47600000D03*
D29*
X135690000Y-45060000D03*
D27*
X134280000Y-43400000D03*
D32*
X134000000Y-47600000D03*
X145000000Y-47600000D03*
D27*
X163820000Y-42010000D03*
D28*
X163600000Y-50010000D03*
X158600000Y-52110000D03*
D29*
X153600000Y-50010000D03*
X161140000Y-41130000D03*
X156060000Y-41130000D03*
X162410000Y-43670000D03*
D30*
X163680000Y-46210000D03*
X153520000Y-46210000D03*
D31*
X158600000Y-46210000D03*
D29*
X154790000Y-43670000D03*
D27*
X153380000Y-42010000D03*
D32*
X153100000Y-46210000D03*
X164100000Y-46210000D03*
D27*
X182820000Y-43400000D03*
D28*
X182600000Y-51400000D03*
X177600000Y-53500000D03*
D29*
X172600000Y-51400000D03*
X180140000Y-42520000D03*
X175060000Y-42520000D03*
X181410000Y-45060000D03*
D30*
X182680000Y-47600000D03*
X172520000Y-47600000D03*
D31*
X177600000Y-47600000D03*
D29*
X173790000Y-45060000D03*
D27*
X172380000Y-43400000D03*
D32*
X172100000Y-47600000D03*
X183100000Y-47600000D03*
D27*
X201920000Y-48200000D03*
D28*
X201700000Y-56200000D03*
X196700000Y-58300000D03*
D29*
X191700000Y-56200000D03*
X199240000Y-47320000D03*
X194160000Y-47320000D03*
X200510000Y-49860000D03*
D30*
X201780000Y-52400000D03*
X191620000Y-52400000D03*
D31*
X196700000Y-52400000D03*
D29*
X192890000Y-49860000D03*
D27*
X191480000Y-48200000D03*
D32*
X191200000Y-52400000D03*
X202200000Y-52400000D03*
D27*
X220920000Y-49700000D03*
D28*
X220700000Y-57700000D03*
X215700000Y-59800000D03*
D29*
X210700000Y-57700000D03*
X218240000Y-48820000D03*
X213160000Y-48820000D03*
X219510000Y-51360000D03*
D30*
X220780000Y-53900000D03*
X210620000Y-53900000D03*
D31*
X215700000Y-53900000D03*
D29*
X211890000Y-51360000D03*
D27*
X210480000Y-49700000D03*
D32*
X210200000Y-53900000D03*
X221200000Y-53900000D03*
D27*
X125720000Y-64900000D03*
D28*
X125500000Y-72900000D03*
X120500000Y-75000000D03*
D29*
X115500000Y-72900000D03*
X123040000Y-64020000D03*
X117960000Y-64020000D03*
X124310000Y-66560000D03*
D30*
X125580000Y-69100000D03*
X115420000Y-69100000D03*
D31*
X120500000Y-69100000D03*
D29*
X116690000Y-66560000D03*
D27*
X115280000Y-64900000D03*
D32*
X115000000Y-69100000D03*
X126000000Y-69100000D03*
D27*
X144720000Y-62500000D03*
D28*
X144500000Y-70500000D03*
X139500000Y-72600000D03*
D29*
X134500000Y-70500000D03*
X142040000Y-61620000D03*
X136960000Y-61620000D03*
X143310000Y-64160000D03*
D30*
X144580000Y-66700000D03*
X134420000Y-66700000D03*
D31*
X139500000Y-66700000D03*
D29*
X135690000Y-64160000D03*
D27*
X134280000Y-62500000D03*
D32*
X134000000Y-66700000D03*
X145000000Y-66700000D03*
D27*
X163820000Y-61100000D03*
D28*
X163600000Y-69100000D03*
X158600000Y-71200000D03*
D29*
X153600000Y-69100000D03*
X161140000Y-60220000D03*
X156060000Y-60220000D03*
X162410000Y-62760000D03*
D30*
X163680000Y-65300000D03*
X153520000Y-65300000D03*
D31*
X158600000Y-65300000D03*
D29*
X154790000Y-62760000D03*
D27*
X153380000Y-61100000D03*
D32*
X153100000Y-65300000D03*
X164100000Y-65300000D03*
D27*
X182820000Y-62400000D03*
D28*
X182600000Y-70400000D03*
X177600000Y-72500000D03*
D29*
X172600000Y-70400000D03*
X180140000Y-61520000D03*
X175060000Y-61520000D03*
X181410000Y-64060000D03*
D30*
X182680000Y-66600000D03*
X172520000Y-66600000D03*
D31*
X177600000Y-66600000D03*
D29*
X173790000Y-64060000D03*
D27*
X172380000Y-62400000D03*
D32*
X172100000Y-66600000D03*
X183100000Y-66600000D03*
D27*
X201920000Y-67100000D03*
D28*
X201700000Y-75100000D03*
X196700000Y-77200000D03*
D29*
X191700000Y-75100000D03*
X199240000Y-66220000D03*
X194160000Y-66220000D03*
X200510000Y-68760000D03*
D30*
X201780000Y-71300000D03*
X191620000Y-71300000D03*
D31*
X196700000Y-71300000D03*
D29*
X192890000Y-68760000D03*
D27*
X191480000Y-67100000D03*
D32*
X191200000Y-71300000D03*
X202200000Y-71300000D03*
D27*
X220920000Y-68600000D03*
D28*
X220700000Y-76600000D03*
X215700000Y-78700000D03*
D29*
X210700000Y-76600000D03*
X218240000Y-67720000D03*
X213160000Y-67720000D03*
X219510000Y-70260000D03*
D30*
X220780000Y-72800000D03*
X210620000Y-72800000D03*
D31*
X215700000Y-72800000D03*
D29*
X211890000Y-70260000D03*
D27*
X210480000Y-68600000D03*
D32*
X210200000Y-72800000D03*
X221200000Y-72800000D03*
D27*
X144720000Y-81500000D03*
D28*
X144500000Y-89500000D03*
X139500000Y-91600000D03*
D29*
X134500000Y-89500000D03*
X142040000Y-80620000D03*
X136960000Y-80620000D03*
X143310000Y-83160000D03*
D30*
X144580000Y-85700000D03*
X134420000Y-85700000D03*
D31*
X139500000Y-85700000D03*
D29*
X135690000Y-83160000D03*
D27*
X134280000Y-81500000D03*
D32*
X134000000Y-85700000D03*
X145000000Y-85700000D03*
D27*
X163820000Y-80200000D03*
D28*
X163600000Y-88200000D03*
X158600000Y-90300000D03*
D29*
X153600000Y-88200000D03*
X161140000Y-79320000D03*
X156060000Y-79320000D03*
X162410000Y-81860000D03*
D30*
X163680000Y-84400000D03*
X153520000Y-84400000D03*
D31*
X158600000Y-84400000D03*
D29*
X154790000Y-81860000D03*
D27*
X153380000Y-80200000D03*
D32*
X153100000Y-84400000D03*
X164100000Y-84400000D03*
D27*
X182820000Y-81500000D03*
D28*
X182600000Y-89500000D03*
X177600000Y-91600000D03*
D29*
X172600000Y-89500000D03*
X180140000Y-80620000D03*
X175060000Y-80620000D03*
X181410000Y-83160000D03*
D30*
X182680000Y-85700000D03*
X172520000Y-85700000D03*
D31*
X177600000Y-85700000D03*
D29*
X173790000Y-83160000D03*
D27*
X172380000Y-81500000D03*
D32*
X172100000Y-85700000D03*
X183100000Y-85700000D03*
D27*
X201920000Y-86300000D03*
D28*
X201700000Y-94300000D03*
X196700000Y-96400000D03*
D29*
X191700000Y-94300000D03*
X199240000Y-85420000D03*
X194160000Y-85420000D03*
X200510000Y-87960000D03*
D30*
X201780000Y-90500000D03*
X191620000Y-90500000D03*
D31*
X196700000Y-90500000D03*
D29*
X192890000Y-87960000D03*
D27*
X191480000Y-86300000D03*
D32*
X191200000Y-90500000D03*
X202200000Y-90500000D03*
D27*
X125720000Y-102900000D03*
D28*
X125500000Y-110900000D03*
X120500000Y-113000000D03*
D29*
X115500000Y-110900000D03*
X123040000Y-102020000D03*
X117960000Y-102020000D03*
X124310000Y-104560000D03*
D30*
X125580000Y-107100000D03*
X115420000Y-107100000D03*
D31*
X120500000Y-107100000D03*
D29*
X116690000Y-104560000D03*
D27*
X115280000Y-102900000D03*
D32*
X115000000Y-107100000D03*
X126000000Y-107100000D03*
D27*
X144720000Y-100600000D03*
D28*
X144500000Y-108600000D03*
X139500000Y-110700000D03*
D29*
X134500000Y-108600000D03*
X142040000Y-99720000D03*
X136960000Y-99720000D03*
X143310000Y-102260000D03*
D30*
X144580000Y-104800000D03*
X134420000Y-104800000D03*
D31*
X139500000Y-104800000D03*
D29*
X135690000Y-102260000D03*
D27*
X134280000Y-100600000D03*
D32*
X134000000Y-104800000D03*
X145000000Y-104800000D03*
D27*
X163820000Y-99200000D03*
D28*
X163600000Y-107200000D03*
X158600000Y-109300000D03*
D29*
X153600000Y-107200000D03*
X161140000Y-98320000D03*
X156060000Y-98320000D03*
X162410000Y-100860000D03*
D30*
X163680000Y-103400000D03*
X153520000Y-103400000D03*
D31*
X158600000Y-103400000D03*
D29*
X154790000Y-100860000D03*
D27*
X153380000Y-99200000D03*
D32*
X153100000Y-103400000D03*
X164100000Y-103400000D03*
D27*
X182820000Y-100600000D03*
D28*
X182600000Y-108600000D03*
X177600000Y-110700000D03*
D29*
X172600000Y-108600000D03*
X180140000Y-99720000D03*
X175060000Y-99720000D03*
X181410000Y-102260000D03*
D30*
X182680000Y-104800000D03*
X172520000Y-104800000D03*
D31*
X177600000Y-104800000D03*
D29*
X173790000Y-102260000D03*
D27*
X172380000Y-100600000D03*
D32*
X172100000Y-104800000D03*
X183100000Y-104800000D03*
D27*
X201920000Y-105300000D03*
D28*
X201700000Y-113300000D03*
X196700000Y-115400000D03*
D29*
X191700000Y-113300000D03*
X199240000Y-104420000D03*
X194160000Y-104420000D03*
X200510000Y-106960000D03*
D30*
X201780000Y-109500000D03*
X191620000Y-109500000D03*
D31*
X196700000Y-109500000D03*
D29*
X192890000Y-106960000D03*
D27*
X191480000Y-105300000D03*
D32*
X191200000Y-109500000D03*
X202200000Y-109500000D03*
D27*
X135220000Y-121800000D03*
D28*
X135000000Y-129800000D03*
X130000000Y-131900000D03*
D29*
X125000000Y-129800000D03*
X132540000Y-120920000D03*
X127460000Y-120920000D03*
X133810000Y-123460000D03*
D30*
X135080000Y-126000000D03*
X124920000Y-126000000D03*
D31*
X130000000Y-126000000D03*
D29*
X126190000Y-123460000D03*
D27*
X124780000Y-121800000D03*
D32*
X124500000Y-126000000D03*
X135500000Y-126000000D03*
D27*
X173320000Y-119550000D03*
D28*
X173100000Y-127550000D03*
X168100000Y-129650000D03*
D29*
X163100000Y-127550000D03*
X170640000Y-118670000D03*
X165560000Y-118670000D03*
X171910000Y-121210000D03*
D30*
X173180000Y-123750000D03*
X163020000Y-123750000D03*
D31*
X168100000Y-123750000D03*
D29*
X164290000Y-121210000D03*
D27*
X162880000Y-119550000D03*
D32*
X162600000Y-123750000D03*
X173600000Y-123750000D03*
D34*
X104300000Y-69899620D03*
X104300000Y-70900380D03*
X101800000Y-70900380D03*
X101800000Y-69899620D03*
X99200000Y-69899620D03*
X99200000Y-70900380D03*
X96700000Y-70900380D03*
X96700000Y-69899620D03*
D24*
X96700000Y-75000000D03*
X99240000Y-75000000D03*
X101780000Y-75000000D03*
X104320000Y-75000000D03*
M02*
